<ttFont>
    <TTGlyph name="A" xMin="20" yMin="0" xMax="490" yMax="700">
      <contour>
        <pt x="155" y="180" on="1"/>
        <pt x="110" y="0" on="1"/>
        <pt x="20" y="0" on="1"/>
        <pt x="190" y="700" on="1"/>
        <pt x="320" y="700" on="1"/>
        <pt x="490" y="0" on="1"/>
        <pt x="400" y="0" on="1"/>
        <pt x="355" y="180" on="1"/>
      </contour>
      <contour>
        <pt x="257" y="600" on="1"/>
        <pt x="253" y="600" on="1"/>
        <pt x="170" y="250" on="1"/>
        <pt x="340" y="250" on="1"/>
      </contour>
    </TTGlyph>
    <TTGlyph name="AE" xMin="0" yMin="0" xMax="691" yMax="700">
      <contour>
        <pt x="240" y="700" on="1"/>
        <pt x="691" y="700" on="1"/>
        <pt x="691" y="630" on="1"/>
        <pt x="441" y="630" on="1"/>
        <pt x="441" y="400" on="1"/>
        <pt x="661" y="400" on="1"/>
        <pt x="661" y="330" on="1"/>
        <pt x="441" y="330" on="1"/>
        <pt x="441" y="70" on="1"/>
        <pt x="691" y="70" on="1"/>
        <pt x="691" y="0" on="1"/>
        <pt x="351" y="0" on="1"/>
        <pt x="351" y="180" on="1"/>
        <pt x="152" y="180" on="1"/>
        <pt x="90" y="0" on="1"/>
        <pt x="0" y="0" on="1"/>
      </contour>
      <contour>
        <pt x="176" y="250" on="1"/>
        <pt x="351" y="250" on="1"/>
        <pt x="351" y="630" on="1"/>
        <pt x="306" y="630" on="1"/>
      </contour>
    </TTGlyph>
    <TTGlyph name="Aacute" xMin="20" yMin="0" xMax="490" yMax="880">
      <contour>
        <pt x="155" y="180" on="1"/>
        <pt x="110" y="0" on="1"/>
        <pt x="20" y="0" on="1"/>
        <pt x="190" y="700" on="1"/>
        <pt x="320" y="700" on="1"/>
        <pt x="490" y="0" on="1"/>
        <pt x="400" y="0" on="1"/>
        <pt x="355" y="180" on="1"/>
      </contour>
      <contour>
        <pt x="257" y="600" on="1"/>
        <pt x="253" y="600" on="1"/>
        <pt x="170" y="250" on="1"/>
        <pt x="340" y="250" on="1"/>
      </contour>
      <contour>
        <pt x="220" y="750" on="1"/>
        <pt x="255" y="880" on="1"/>
        <pt x="350" y="880" on="1"/>
        <pt x="280" y="750" on="1"/>
      </contour>
    </TTGlyph>
    <TTGlyph name="Acircumflex" xMin="20" yMin="0" xMax="490" yMax="880">
      <contour>
        <pt x="155" y="180" on="1"/>
        <pt x="110" y="0" on="1"/>
        <pt x="20" y="0" on="1"/>
        <pt x="190" y="700" on="1"/>
        <pt x="320" y="700" on="1"/>
        <pt x="490" y="0" on="1"/>
        <pt x="400" y="0" on="1"/>
        <pt x="355" y="180" on="1"/>
      </contour>
      <contour>
        <pt x="257" y="600" on="1"/>
        <pt x="253" y="600" on="1"/>
        <pt x="170" y="250" on="1"/>
        <pt x="340" y="250" on="1"/>
      </contour>
      <contour>
        <pt x="133" y="750" on="1"/>
        <pt x="208" y="880" on="1"/>
        <pt x="303" y="880" on="1"/>
        <pt x="378" y="750" on="1"/>
        <pt x="318" y="750" on="1"/>
        <pt x="255" y="824" on="1"/>
        <pt x="193" y="750" on="1"/>
      </contour>
    </TTGlyph>
    <TTGlyph name="Adieresis" xMin="20" yMin="0" xMax="490" yMax="870">
      <contour>
        <pt x="155" y="180" on="1"/>
        <pt x="110" y="0" on="1"/>
        <pt x="20" y="0" on="1"/>
        <pt x="190" y="700" on="1"/>
        <pt x="320" y="700" on="1"/>
        <pt x="490" y="0" on="1"/>
        <pt x="400" y="0" on="1"/>
        <pt x="355" y="180" on="1"/>
      </contour>
      <contour>
        <pt x="257" y="600" on="1"/>
        <pt x="253" y="600" on="1"/>
        <pt x="170" y="250" on="1"/>
        <pt x="340" y="250" on="1"/>
      </contour>
      <contour>
        <pt x="220" y="870" on="1"/>
        <pt x="220" y="760" on="1"/>
        <pt x="130" y="760" on="1"/>
        <pt x="130" y="870" on="1"/>
      </contour>
      <contour>
        <pt x="380" y="870" on="1"/>
        <pt x="380" y="760" on="1"/>
        <pt x="290" y="760" on="1"/>
        <pt x="290" y="870" on="1"/>
      </contour>
    </TTGlyph>
    <TTGlyph name="Agrave" xMin="20" yMin="0" xMax="490" yMax="880">
      <contour>
        <pt x="155" y="180" on="1"/>
        <pt x="110" y="0" on="1"/>
        <pt x="20" y="0" on="1"/>
        <pt x="190" y="700" on="1"/>
        <pt x="320" y="700" on="1"/>
        <pt x="490" y="0" on="1"/>
        <pt x="400" y="0" on="1"/>
        <pt x="355" y="180" on="1"/>
      </contour>
      <contour>
        <pt x="257" y="600" on="1"/>
        <pt x="253" y="600" on="1"/>
        <pt x="170" y="250" on="1"/>
        <pt x="340" y="250" on="1"/>
      </contour>
      <contour>
        <pt x="230" y="750" on="1"/>
        <pt x="160" y="880" on="1"/>
        <pt x="255" y="880" on="1"/>
        <pt x="290" y="750" on="1"/>
      </contour>
    </TTGlyph>
    <TTGlyph name="Amacron" xMin="20" yMin="0" xMax="490" yMax="830">
      <contour>
        <pt x="155" y="180" on="1"/>
        <pt x="110" y="0" on="1"/>
        <pt x="20" y="0" on="1"/>
        <pt x="190" y="700" on="1"/>
        <pt x="320" y="700" on="1"/>
        <pt x="490" y="0" on="1"/>
        <pt x="400" y="0" on="1"/>
        <pt x="355" y="180" on="1"/>
      </contour>
      <contour>
        <pt x="257" y="600" on="1"/>
        <pt x="253" y="600" on="1"/>
        <pt x="170" y="250" on="1"/>
        <pt x="340" y="250" on="1"/>
      </contour>
      <contour>
        <pt x="140" y="830" on="1"/>
        <pt x="370" y="830" on="1"/>
        <pt x="370" y="770" on="1"/>
        <pt x="140" y="770" on="1"/>
      </contour>
    </TTGlyph>
    <TTGlyph name="Aogonek" xMin="20" yMin="-160" xMax="545" yMax="700">
      <contour>
        <pt x="355" y="180" on="1"/>
        <pt x="155" y="180" on="1"/>
        <pt x="110" y="0" on="1"/>
        <pt x="20" y="0" on="1"/>
        <pt x="190" y="700" on="1"/>
        <pt x="320" y="700" on="1"/>
        <pt x="490" y="0" on="1"/>
        <pt x="450" y="0" on="1"/>
        <pt x="450" y="-45" on="1"/>
        <pt x="450" y="-79" on="0"/>
        <pt x="476" y="-104" on="0"/>
        <pt x="510" y="-104" on="1"/>
        <pt x="545" y="-104" on="1"/>
        <pt x="545" y="-145" on="1"/>
        <pt x="535" y="-149" on="0"/>
        <pt x="524" y="-153" on="1"/>
        <pt x="514" y="-156" on="0"/>
        <pt x="487" y="-160" on="0"/>
        <pt x="470" y="-160" on="1"/>
        <pt x="428" y="-160" on="0"/>
        <pt x="385" y="-118" on="0"/>
        <pt x="385" y="-80" on="1"/>
        <pt x="385" y="-63" on="0"/>
        <pt x="392" y="-34" on="0"/>
        <pt x="397" y="-23" on="1"/>
        <pt x="402" y="-11" on="0"/>
        <pt x="410" y="0" on="1"/>
        <pt x="400" y="0" on="1"/>
      </contour>
      <contour>
        <pt x="257" y="600" on="1"/>
        <pt x="253" y="600" on="1"/>
        <pt x="170" y="250" on="1"/>
        <pt x="340" y="250" on="1"/>
      </contour>
    </TTGlyph>
    <TTGlyph name="Aring" xMin="20" yMin="0" xMax="490" yMax="890">
      <contour>
        <pt x="155" y="180" on="1"/>
        <pt x="110" y="0" on="1"/>
        <pt x="20" y="0" on="1"/>
        <pt x="190" y="700" on="1"/>
        <pt x="320" y="700" on="1"/>
        <pt x="490" y="0" on="1"/>
        <pt x="400" y="0" on="1"/>
        <pt x="355" y="180" on="1"/>
      </contour>
      <contour>
        <pt x="257" y="600" on="1"/>
        <pt x="253" y="600" on="1"/>
        <pt x="170" y="250" on="1"/>
        <pt x="340" y="250" on="1"/>
      </contour>
      <contour>
        <pt x="290" y="810" on="1"/>
        <pt x="290" y="829" on="0"/>
        <pt x="270" y="845" on="0"/>
        <pt x="255" y="845" on="1"/>
        <pt x="240" y="845" on="0"/>
        <pt x="220" y="829" on="0"/>
        <pt x="220" y="810" on="1"/>
        <pt x="220" y="791" on="0"/>
        <pt x="240" y="775" on="0"/>
        <pt x="255" y="775" on="1"/>
        <pt x="270" y="775" on="0"/>
        <pt x="290" y="791" on="0"/>
      </contour>
      <contour>
        <pt x="340" y="810" on="1"/>
        <pt x="340" y="772" on="0"/>
        <pt x="293" y="730" on="0"/>
        <pt x="255" y="730" on="1"/>
        <pt x="217" y="730" on="0"/>
        <pt x="170" y="772" on="0"/>
        <pt x="170" y="810" on="1"/>
        <pt x="170" y="848" on="0"/>
        <pt x="217" y="890" on="0"/>
        <pt x="255" y="890" on="1"/>
        <pt x="293" y="890" on="0"/>
        <pt x="340" y="848" on="0"/>
      </contour>
    </TTGlyph>
    <TTGlyph name="Atilde" xMin="20" yMin="0" xMax="490" yMax="870">
      <contour>
        <pt x="155" y="180" on="1"/>
        <pt x="110" y="0" on="1"/>
        <pt x="20" y="0" on="1"/>
        <pt x="190" y="700" on="1"/>
        <pt x="320" y="700" on="1"/>
        <pt x="490" y="0" on="1"/>
        <pt x="400" y="0" on="1"/>
        <pt x="355" y="180" on="1"/>
      </contour>
      <contour>
        <pt x="257" y="600" on="1"/>
        <pt x="253" y="600" on="1"/>
        <pt x="170" y="250" on="1"/>
        <pt x="340" y="250" on="1"/>
      </contour>
      <contour>
        <pt x="320" y="765" on="1"/>
        <pt x="320" y="810" on="0"/>
        <pt x="295" y="810" on="1"/>
        <pt x="286" y="810" on="0"/>
        <pt x="269" y="791" on="0"/>
        <pt x="250" y="769" on="0"/>
        <pt x="224" y="750" on="0"/>
        <pt x="205" y="750" on="1"/>
        <pt x="167" y="750" on="0"/>
        <pt x="130" y="798" on="0"/>
        <pt x="130" y="855" on="1"/>
        <pt x="180" y="855" on="1"/>
        <pt x="180" y="810" on="0"/>
        <pt x="205" y="810" on="1"/>
        <pt x="214" y="810" on="0"/>
        <pt x="231" y="829" on="0"/>
        <pt x="250" y="851" on="0"/>
        <pt x="276" y="870" on="0"/>
        <pt x="295" y="870" on="1"/>
        <pt x="333" y="870" on="0"/>
        <pt x="370" y="822" on="0"/>
        <pt x="370" y="765" on="1"/>
      </contour>
    </TTGlyph>
    <TTGlyph name="B" xMin="70" yMin="-10" xMax="460" yMax="710">
      <contour>
        <pt x="350" y="373" on="1"/>
        <pt x="410" y="356" on="0"/>
        <pt x="460" y="258" on="0"/>
        <pt x="460" y="190" on="1"/>
        <pt x="460" y="137" on="0"/>
        <pt x="436" y="62" on="0"/>
        <pt x="382" y="13" on="0"/>
        <pt x="294" y="-10" on="0"/>
        <pt x="230" y="-10" on="1"/>
        <pt x="185" y="-10" on="0"/>
        <pt x="108" y="-1" on="0"/>
        <pt x="70" y="10" on="1"/>
        <pt x="70" y="690" on="1"/>
        <pt x="108" y="701" on="0"/>
        <pt x="185" y="710" on="0"/>
        <pt x="230" y="710" on="1"/>
        <pt x="336" y="710" on="0"/>
        <pt x="430" y="619" on="0"/>
        <pt x="430" y="525" on="1"/>
        <pt x="430" y="480" on="0"/>
        <pt x="395" y="402" on="0"/>
        <pt x="350" y="377" on="1"/>
      </contour>
      <contour>
        <pt x="160" y="335" on="1"/>
        <pt x="160" y="55" on="1"/>
        <pt x="230" y="55" on="1"/>
        <pt x="305" y="55" on="0"/>
        <pt x="370" y="118" on="0"/>
        <pt x="370" y="190" on="1"/>
        <pt x="370" y="269" on="0"/>
        <pt x="305" y="335" on="0"/>
        <pt x="230" y="335" on="1"/>
      </contour>
      <contour>
        <pt x="220" y="400" on="1"/>
        <pt x="340" y="400" on="0"/>
        <pt x="340" y="525" on="1"/>
        <pt x="340" y="645" on="0"/>
        <pt x="220" y="645" on="1"/>
        <pt x="160" y="645" on="1"/>
        <pt x="160" y="400" on="1"/>
      </contour>
    </TTGlyph>
    <TTGlyph name="C" xMin="50" yMin="-10" xMax="420" yMax="710">
      <contour>
        <pt x="270" y="-10" on="1"/>
        <pt x="217" y="-10" on="0"/>
        <pt x="136" y="24" on="0"/>
        <pt x="79" y="106" on="0"/>
        <pt x="50" y="245" on="0"/>
        <pt x="50" y="350" on="1"/>
        <pt x="50" y="455" on="0"/>
        <pt x="79" y="594" on="0"/>
        <pt x="133" y="676" on="0"/>
        <pt x="211" y="710" on="0"/>
        <pt x="260" y="710" on="1"/>
        <pt x="305" y="710" on="0"/>
        <pt x="387" y="698" on="0"/>
        <pt x="410" y="690" on="1"/>
        <pt x="410" y="645" on="1"/>
        <pt x="280" y="645" on="1"/>
        <pt x="250" y="645" on="0"/>
        <pt x="199" y="619" on="0"/>
        <pt x="161" y="552" on="0"/>
        <pt x="140" y="438" on="0"/>
        <pt x="140" y="350" on="1"/>
        <pt x="140" y="262" on="0"/>
        <pt x="162" y="148" on="0"/>
        <pt x="201" y="81" on="0"/>
        <pt x="256" y="55" on="0"/>
        <pt x="290" y="55" on="1"/>
        <pt x="420" y="55" on="1"/>
        <pt x="420" y="10" on="1"/>
        <pt x="397" y="2" on="0"/>
        <pt x="315" y="-10" on="0"/>
      </contour>
    </TTGlyph>
    <TTGlyph name="Cacute" xMin="50" yMin="-10" xMax="420" yMax="880">
      <contour>
        <pt x="270" y="-10" on="1"/>
        <pt x="217" y="-10" on="0"/>
        <pt x="136" y="24" on="0"/>
        <pt x="79" y="106" on="0"/>
        <pt x="50" y="245" on="0"/>
        <pt x="50" y="350" on="1"/>
        <pt x="50" y="455" on="0"/>
        <pt x="79" y="594" on="0"/>
        <pt x="133" y="676" on="0"/>
        <pt x="211" y="710" on="0"/>
        <pt x="260" y="710" on="1"/>
        <pt x="305" y="710" on="0"/>
        <pt x="387" y="698" on="0"/>
        <pt x="410" y="690" on="1"/>
        <pt x="410" y="645" on="1"/>
        <pt x="280" y="645" on="1"/>
        <pt x="250" y="645" on="0"/>
        <pt x="199" y="619" on="0"/>
        <pt x="161" y="552" on="0"/>
        <pt x="140" y="438" on="0"/>
        <pt x="140" y="350" on="1"/>
        <pt x="140" y="262" on="0"/>
        <pt x="162" y="148" on="0"/>
        <pt x="201" y="81" on="0"/>
        <pt x="256" y="55" on="0"/>
        <pt x="290" y="55" on="1"/>
        <pt x="420" y="55" on="1"/>
        <pt x="420" y="10" on="1"/>
        <pt x="397" y="2" on="0"/>
        <pt x="315" y="-10" on="0"/>
      </contour>
      <contour>
        <pt x="230" y="750" on="1"/>
        <pt x="265" y="880" on="1"/>
        <pt x="360" y="880" on="1"/>
        <pt x="290" y="750" on="1"/>
      </contour>
    </TTGlyph>
    <TTGlyph name="Ccaron" xMin="50" yMin="-10" xMax="420" yMax="890">
      <contour>
        <pt x="270" y="-10" on="1"/>
        <pt x="217" y="-10" on="0"/>
        <pt x="136" y="24" on="0"/>
        <pt x="79" y="106" on="0"/>
        <pt x="50" y="245" on="0"/>
        <pt x="50" y="350" on="1"/>
        <pt x="50" y="455" on="0"/>
        <pt x="79" y="594" on="0"/>
        <pt x="133" y="676" on="0"/>
        <pt x="211" y="710" on="0"/>
        <pt x="260" y="710" on="1"/>
        <pt x="305" y="710" on="0"/>
        <pt x="387" y="698" on="0"/>
        <pt x="410" y="690" on="1"/>
        <pt x="410" y="645" on="1"/>
        <pt x="280" y="645" on="1"/>
        <pt x="250" y="645" on="0"/>
        <pt x="199" y="619" on="0"/>
        <pt x="161" y="552" on="0"/>
        <pt x="140" y="438" on="0"/>
        <pt x="140" y="350" on="1"/>
        <pt x="140" y="262" on="0"/>
        <pt x="162" y="148" on="0"/>
        <pt x="201" y="81" on="0"/>
        <pt x="256" y="55" on="0"/>
        <pt x="290" y="55" on="1"/>
        <pt x="420" y="55" on="1"/>
        <pt x="420" y="10" on="1"/>
        <pt x="397" y="2" on="0"/>
        <pt x="315" y="-10" on="0"/>
      </contour>
      <contour>
        <pt x="193" y="890" on="1"/>
        <pt x="255" y="816" on="1"/>
        <pt x="318" y="890" on="1"/>
        <pt x="378" y="890" on="1"/>
        <pt x="303" y="760" on="1"/>
        <pt x="208" y="760" on="1"/>
        <pt x="133" y="890" on="1"/>
      </contour>
    </TTGlyph>
    <TTGlyph name="Ccedilla" xMin="50" yMin="-165" xMax="420" yMax="710">
      <contour>
        <pt x="285" y="-25" on="1"/>
        <pt x="327" y="-25" on="0"/>
        <pt x="370" y="-65" on="0"/>
        <pt x="370" y="-95" on="1"/>
        <pt x="370" y="-125" on="0"/>
        <pt x="324" y="-165" on="0"/>
        <pt x="275" y="-165" on="1"/>
        <pt x="258" y="-165" on="0"/>
        <pt x="231" y="-161" on="0"/>
        <pt x="221" y="-158" on="1"/>
        <pt x="210" y="-154" on="0"/>
        <pt x="200" y="-150" on="1"/>
        <pt x="200" y="-120" on="1"/>
        <pt x="265" y="-120" on="1"/>
        <pt x="288" y="-120" on="0"/>
        <pt x="305" y="-106" on="0"/>
        <pt x="305" y="-95" on="1"/>
        <pt x="305" y="-70" on="0"/>
        <pt x="275" y="-70" on="1"/>
        <pt x="220" y="-70" on="1"/>
        <pt x="220" y="-6" on="1"/>
        <pt x="179" y="1" on="0"/>
        <pt x="116" y="45" on="0"/>
        <pt x="72" y="129" on="0"/>
        <pt x="50" y="258" on="0"/>
        <pt x="50" y="350" on="1"/>
        <pt x="50" y="455" on="0"/>
        <pt x="79" y="594" on="0"/>
        <pt x="133" y="676" on="0"/>
        <pt x="211" y="710" on="0"/>
        <pt x="260" y="710" on="1"/>
        <pt x="305" y="710" on="0"/>
        <pt x="387" y="698" on="0"/>
        <pt x="410" y="690" on="1"/>
        <pt x="410" y="645" on="1"/>
        <pt x="280" y="645" on="1"/>
        <pt x="250" y="645" on="0"/>
        <pt x="199" y="619" on="0"/>
        <pt x="161" y="552" on="0"/>
        <pt x="140" y="438" on="0"/>
        <pt x="140" y="350" on="1"/>
        <pt x="140" y="262" on="0"/>
        <pt x="162" y="148" on="0"/>
        <pt x="201" y="81" on="0"/>
        <pt x="256" y="55" on="0"/>
        <pt x="290" y="55" on="1"/>
        <pt x="420" y="55" on="1"/>
        <pt x="420" y="10" on="1"/>
        <pt x="397" y="2" on="0"/>
        <pt x="315" y="-10" on="0"/>
        <pt x="270" y="-10" on="1"/>
        <pt x="270" y="-25" on="1"/>
      </contour>
    </TTGlyph>
    <TTGlyph name="D" xMin="70" yMin="-10" xMax="470" yMax="710">
      <contour>
        <pt x="470" y="350" on="1"/>
        <pt x="470" y="245" on="0"/>
        <pt x="440" y="106" on="0"/>
        <pt x="380" y="24" on="0"/>
        <pt x="290" y="-10" on="0"/>
        <pt x="230" y="-10" on="1"/>
        <pt x="185" y="-10" on="0"/>
        <pt x="108" y="-1" on="0"/>
        <pt x="70" y="10" on="1"/>
        <pt x="70" y="690" on="1"/>
        <pt x="108" y="701" on="0"/>
        <pt x="185" y="710" on="0"/>
        <pt x="230" y="710" on="1"/>
        <pt x="290" y="710" on="0"/>
        <pt x="380" y="676" on="0"/>
        <pt x="440" y="594" on="0"/>
        <pt x="470" y="455" on="0"/>
      </contour>
      <contour>
        <pt x="380" y="350" on="1"/>
        <pt x="380" y="438" on="0"/>
        <pt x="358" y="552" on="0"/>
        <pt x="319" y="619" on="0"/>
        <pt x="264" y="645" on="0"/>
        <pt x="230" y="645" on="1"/>
        <pt x="160" y="645" on="1"/>
        <pt x="160" y="55" on="1"/>
        <pt x="230" y="55" on="1"/>
        <pt x="264" y="55" on="0"/>
        <pt x="319" y="81" on="0"/>
        <pt x="358" y="148" on="0"/>
        <pt x="380" y="262" on="0"/>
      </contour>
    </TTGlyph>
    <TTGlyph name="E" xMin="70" yMin="0" xMax="410" yMax="700">
      <contour>
        <pt x="160" y="70" on="1"/>
        <pt x="410" y="70" on="1"/>
        <pt x="410" y="0" on="1"/>
        <pt x="70" y="0" on="1"/>
        <pt x="70" y="700" on="1"/>
        <pt x="410" y="700" on="1"/>
        <pt x="410" y="630" on="1"/>
        <pt x="160" y="630" on="1"/>
        <pt x="160" y="400" on="1"/>
        <pt x="380" y="400" on="1"/>
        <pt x="380" y="330" on="1"/>
        <pt x="160" y="330" on="1"/>
      </contour>
    </TTGlyph>
    <TTGlyph name="Eacute" xMin="70" yMin="0" xMax="410" yMax="880">
      <contour>
        <pt x="160" y="70" on="1"/>
        <pt x="410" y="70" on="1"/>
        <pt x="410" y="0" on="1"/>
        <pt x="70" y="0" on="1"/>
        <pt x="70" y="700" on="1"/>
        <pt x="410" y="700" on="1"/>
        <pt x="410" y="630" on="1"/>
        <pt x="160" y="630" on="1"/>
        <pt x="160" y="400" on="1"/>
        <pt x="380" y="400" on="1"/>
        <pt x="380" y="330" on="1"/>
        <pt x="160" y="330" on="1"/>
      </contour>
      <contour>
        <pt x="210" y="750" on="1"/>
        <pt x="245" y="880" on="1"/>
        <pt x="340" y="880" on="1"/>
        <pt x="270" y="750" on="1"/>
      </contour>
    </TTGlyph>
    <TTGlyph name="Ecircumflex" xMin="70" yMin="0" xMax="410" yMax="880">
      <contour>
        <pt x="160" y="70" on="1"/>
        <pt x="410" y="70" on="1"/>
        <pt x="410" y="0" on="1"/>
        <pt x="70" y="0" on="1"/>
        <pt x="70" y="700" on="1"/>
        <pt x="410" y="700" on="1"/>
        <pt x="410" y="630" on="1"/>
        <pt x="160" y="630" on="1"/>
        <pt x="160" y="400" on="1"/>
        <pt x="380" y="400" on="1"/>
        <pt x="380" y="330" on="1"/>
        <pt x="160" y="330" on="1"/>
      </contour>
      <contour>
        <pt x="115" y="750" on="1"/>
        <pt x="190" y="880" on="1"/>
        <pt x="285" y="880" on="1"/>
        <pt x="360" y="750" on="1"/>
        <pt x="300" y="750" on="1"/>
        <pt x="237" y="824" on="1"/>
        <pt x="175" y="750" on="1"/>
      </contour>
    </TTGlyph>
    <TTGlyph name="Edieresis" xMin="70" yMin="0" xMax="410" yMax="880">
      <contour>
        <pt x="160" y="70" on="1"/>
        <pt x="410" y="70" on="1"/>
        <pt x="410" y="0" on="1"/>
        <pt x="70" y="0" on="1"/>
        <pt x="70" y="700" on="1"/>
        <pt x="410" y="700" on="1"/>
        <pt x="410" y="630" on="1"/>
        <pt x="160" y="630" on="1"/>
        <pt x="160" y="400" on="1"/>
        <pt x="380" y="400" on="1"/>
        <pt x="380" y="330" on="1"/>
        <pt x="160" y="330" on="1"/>
      </contour>
      <contour>
        <pt x="200" y="880" on="1"/>
        <pt x="200" y="770" on="1"/>
        <pt x="110" y="770" on="1"/>
        <pt x="110" y="880" on="1"/>
      </contour>
      <contour>
        <pt x="360" y="880" on="1"/>
        <pt x="360" y="770" on="1"/>
        <pt x="270" y="770" on="1"/>
        <pt x="270" y="880" on="1"/>
      </contour>
    </TTGlyph>
    <TTGlyph name="Edotaccent" xMin="70" yMin="0" xMax="410" yMax="880">
      <contour>
        <pt x="160" y="70" on="1"/>
        <pt x="410" y="70" on="1"/>
        <pt x="410" y="0" on="1"/>
        <pt x="70" y="0" on="1"/>
        <pt x="70" y="700" on="1"/>
        <pt x="410" y="700" on="1"/>
        <pt x="410" y="630" on="1"/>
        <pt x="160" y="630" on="1"/>
        <pt x="160" y="400" on="1"/>
        <pt x="380" y="400" on="1"/>
        <pt x="380" y="330" on="1"/>
        <pt x="160" y="330" on="1"/>
      </contour>
      <contour>
        <pt x="290" y="880" on="1"/>
        <pt x="290" y="770" on="1"/>
        <pt x="200" y="770" on="1"/>
        <pt x="200" y="880" on="1"/>
      </contour>
    </TTGlyph>
    <TTGlyph name="Egrave" xMin="70" yMin="0" xMax="410" yMax="880">
      <contour>
        <pt x="160" y="70" on="1"/>
        <pt x="410" y="70" on="1"/>
        <pt x="410" y="0" on="1"/>
        <pt x="70" y="0" on="1"/>
        <pt x="70" y="700" on="1"/>
        <pt x="410" y="700" on="1"/>
        <pt x="410" y="630" on="1"/>
        <pt x="160" y="630" on="1"/>
        <pt x="160" y="400" on="1"/>
        <pt x="380" y="400" on="1"/>
        <pt x="380" y="330" on="1"/>
        <pt x="160" y="330" on="1"/>
      </contour>
      <contour>
        <pt x="220" y="750" on="1"/>
        <pt x="150" y="880" on="1"/>
        <pt x="245" y="880" on="1"/>
        <pt x="280" y="750" on="1"/>
      </contour>
    </TTGlyph>
    <TTGlyph name="Emacron" xMin="70" yMin="0" xMax="410" yMax="830">
      <contour>
        <pt x="160" y="70" on="1"/>
        <pt x="410" y="70" on="1"/>
        <pt x="410" y="0" on="1"/>
        <pt x="70" y="0" on="1"/>
        <pt x="70" y="700" on="1"/>
        <pt x="410" y="700" on="1"/>
        <pt x="410" y="630" on="1"/>
        <pt x="160" y="630" on="1"/>
        <pt x="160" y="400" on="1"/>
        <pt x="380" y="400" on="1"/>
        <pt x="380" y="330" on="1"/>
        <pt x="160" y="330" on="1"/>
      </contour>
      <contour>
        <pt x="124" y="830" on="1"/>
        <pt x="354" y="830" on="1"/>
        <pt x="354" y="770" on="1"/>
        <pt x="124" y="770" on="1"/>
      </contour>
    </TTGlyph>
    <TTGlyph name="Eogonek" xMin="70" yMin="-160" xMax="460" yMax="700">
      <contour>
        <pt x="70" y="0" on="1"/>
        <pt x="70" y="700" on="1"/>
        <pt x="410" y="700" on="1"/>
        <pt x="410" y="630" on="1"/>
        <pt x="160" y="630" on="1"/>
        <pt x="160" y="400" on="1"/>
        <pt x="380" y="400" on="1"/>
        <pt x="380" y="330" on="1"/>
        <pt x="160" y="330" on="1"/>
        <pt x="160" y="70" on="1"/>
        <pt x="410" y="70" on="1"/>
        <pt x="410" y="0" on="1"/>
        <pt x="365" y="0" on="1"/>
        <pt x="365" y="-45" on="1"/>
        <pt x="365" y="-79" on="0"/>
        <pt x="391" y="-104" on="0"/>
        <pt x="425" y="-104" on="1"/>
        <pt x="460" y="-104" on="1"/>
        <pt x="460" y="-145" on="1"/>
        <pt x="450" y="-149" on="0"/>
        <pt x="439" y="-153" on="1"/>
        <pt x="429" y="-156" on="0"/>
        <pt x="402" y="-160" on="0"/>
        <pt x="385" y="-160" on="1"/>
        <pt x="343" y="-160" on="0"/>
        <pt x="300" y="-118" on="0"/>
        <pt x="300" y="-80" on="1"/>
        <pt x="300" y="-63" on="0"/>
        <pt x="307" y="-34" on="0"/>
        <pt x="312" y="-23" on="1"/>
        <pt x="317" y="-11" on="0"/>
        <pt x="325" y="0" on="1"/>
      </contour>
    </TTGlyph>
    <TTGlyph name="Eth" xMin="10" yMin="-10" xMax="490" yMax="710">
      <contour>
        <pt x="90" y="390" on="1"/>
        <pt x="90" y="690" on="1"/>
        <pt x="128" y="701" on="0"/>
        <pt x="205" y="710" on="0"/>
        <pt x="250" y="710" on="1"/>
        <pt x="310" y="710" on="0"/>
        <pt x="400" y="676" on="0"/>
        <pt x="460" y="594" on="0"/>
        <pt x="490" y="455" on="0"/>
        <pt x="490" y="350" on="1"/>
        <pt x="490" y="245" on="0"/>
        <pt x="460" y="106" on="0"/>
        <pt x="400" y="24" on="0"/>
        <pt x="310" y="-10" on="0"/>
        <pt x="250" y="-10" on="1"/>
        <pt x="205" y="-10" on="0"/>
        <pt x="128" y="-1" on="0"/>
        <pt x="90" y="10" on="1"/>
        <pt x="90" y="320" on="1"/>
        <pt x="10" y="320" on="1"/>
        <pt x="10" y="390" on="1"/>
      </contour>
      <contour>
        <pt x="400" y="350" on="1"/>
        <pt x="400" y="438" on="0"/>
        <pt x="378" y="552" on="0"/>
        <pt x="339" y="619" on="0"/>
        <pt x="284" y="645" on="0"/>
        <pt x="250" y="645" on="1"/>
        <pt x="180" y="645" on="1"/>
        <pt x="180" y="390" on="1"/>
        <pt x="290" y="390" on="1"/>
        <pt x="290" y="320" on="1"/>
        <pt x="180" y="320" on="1"/>
        <pt x="180" y="55" on="1"/>
        <pt x="250" y="55" on="1"/>
        <pt x="284" y="55" on="0"/>
        <pt x="339" y="81" on="0"/>
        <pt x="378" y="148" on="0"/>
        <pt x="400" y="262" on="0"/>
      </contour>
    </TTGlyph>
    <TTGlyph name="Euro" xMin="10" yMin="-10" xMax="450" yMax="710">
      <contour>
        <pt x="20" y="450" on="1"/>
        <pt x="85" y="450" on="1"/>
        <pt x="92" y="525" on="0"/>
        <pt x="127" y="625" on="0"/>
        <pt x="180" y="685" on="0"/>
        <pt x="249" y="710" on="0"/>
        <pt x="290" y="710" on="1"/>
        <pt x="335" y="710" on="0"/>
        <pt x="417" y="698" on="0"/>
        <pt x="440" y="690" on="1"/>
        <pt x="440" y="645" on="1"/>
        <pt x="310" y="645" on="1"/>
        <pt x="286" y="645" on="0"/>
        <pt x="242" y="628" on="0"/>
        <pt x="206" y="584" on="0"/>
        <pt x="181" y="508" on="0"/>
        <pt x="175" y="450" on="1"/>
        <pt x="380" y="450" on="1"/>
        <pt x="370" y="385" on="1"/>
        <pt x="170" y="385" on="1"/>
        <pt x="170" y="315" on="1"/>
        <pt x="355" y="315" on="1"/>
        <pt x="345" y="250" on="1"/>
        <pt x="175" y="250" on="1"/>
        <pt x="181" y="192" on="0"/>
        <pt x="206" y="116" on="0"/>
        <pt x="244" y="72" on="0"/>
        <pt x="292" y="55" on="0"/>
        <pt x="320" y="55" on="1"/>
        <pt x="450" y="55" on="1"/>
        <pt x="450" y="10" on="1"/>
        <pt x="427" y="2" on="0"/>
        <pt x="345" y="-10" on="0"/>
        <pt x="300" y="-10" on="1"/>
        <pt x="255" y="-10" on="0"/>
        <pt x="182" y="15" on="0"/>
        <pt x="128" y="75" on="0"/>
        <pt x="92" y="175" on="0"/>
        <pt x="85" y="250" on="1"/>
        <pt x="10" y="250" on="1"/>
        <pt x="20" y="315" on="1"/>
        <pt x="80" y="315" on="1"/>
        <pt x="80" y="385" on="1"/>
        <pt x="10" y="385" on="1"/>
      </contour>
    </TTGlyph>
    <TTGlyph name="F" xMin="70" yMin="0" xMax="410" yMax="700">
      <contour>
        <pt x="160" y="0" on="1"/>
        <pt x="70" y="0" on="1"/>
        <pt x="70" y="700" on="1"/>
        <pt x="410" y="700" on="1"/>
        <pt x="410" y="630" on="1"/>
        <pt x="160" y="630" on="1"/>
        <pt x="160" y="385" on="1"/>
        <pt x="370" y="385" on="1"/>
        <pt x="370" y="315" on="1"/>
        <pt x="160" y="315" on="1"/>
      </contour>
    </TTGlyph>
    <TTGlyph name="G" xMin="50" yMin="-10" xMax="440" yMax="710">
      <contour>
        <pt x="440" y="10" on="1"/>
        <pt x="417" y="2" on="0"/>
        <pt x="335" y="-10" on="0"/>
        <pt x="290" y="-10" on="1"/>
        <pt x="230" y="-10" on="0"/>
        <pt x="140" y="24" on="0"/>
        <pt x="80" y="106" on="0"/>
        <pt x="50" y="245" on="0"/>
        <pt x="50" y="350" on="1"/>
        <pt x="50" y="455" on="0"/>
        <pt x="79" y="594" on="0"/>
        <pt x="136" y="676" on="0"/>
        <pt x="217" y="710" on="0"/>
        <pt x="270" y="710" on="1"/>
        <pt x="315" y="710" on="0"/>
        <pt x="397" y="698" on="0"/>
        <pt x="420" y="690" on="1"/>
        <pt x="420" y="645" on="1"/>
        <pt x="290" y="645" on="1"/>
        <pt x="256" y="645" on="0"/>
        <pt x="201" y="619" on="0"/>
        <pt x="162" y="552" on="0"/>
        <pt x="140" y="438" on="0"/>
        <pt x="140" y="350" on="1"/>
        <pt x="140" y="262" on="0"/>
        <pt x="162" y="148" on="0"/>
        <pt x="205" y="81" on="0"/>
        <pt x="269" y="55" on="0"/>
        <pt x="310" y="55" on="1"/>
        <pt x="350" y="55" on="1"/>
        <pt x="350" y="380" on="1"/>
        <pt x="440" y="380" on="1"/>
      </contour>
    </TTGlyph>
    <TTGlyph name="Gbreve" xMin="50" yMin="-10" xMax="440" yMax="875">
      <contour>
        <pt x="440" y="10" on="1"/>
        <pt x="417" y="2" on="0"/>
        <pt x="335" y="-10" on="0"/>
        <pt x="290" y="-10" on="1"/>
        <pt x="230" y="-10" on="0"/>
        <pt x="140" y="24" on="0"/>
        <pt x="80" y="106" on="0"/>
        <pt x="50" y="245" on="0"/>
        <pt x="50" y="350" on="1"/>
        <pt x="50" y="455" on="0"/>
        <pt x="79" y="594" on="0"/>
        <pt x="136" y="676" on="0"/>
        <pt x="217" y="710" on="0"/>
        <pt x="270" y="710" on="1"/>
        <pt x="315" y="710" on="0"/>
        <pt x="397" y="698" on="0"/>
        <pt x="420" y="690" on="1"/>
        <pt x="420" y="645" on="1"/>
        <pt x="290" y="645" on="1"/>
        <pt x="256" y="645" on="0"/>
        <pt x="201" y="619" on="0"/>
        <pt x="162" y="552" on="0"/>
        <pt x="140" y="438" on="0"/>
        <pt x="140" y="350" on="1"/>
        <pt x="140" y="262" on="0"/>
        <pt x="162" y="148" on="0"/>
        <pt x="205" y="81" on="0"/>
        <pt x="269" y="55" on="0"/>
        <pt x="310" y="55" on="1"/>
        <pt x="350" y="55" on="1"/>
        <pt x="350" y="380" on="1"/>
        <pt x="440" y="380" on="1"/>
      </contour>
      <contour>
        <pt x="270" y="830" on="1"/>
        <pt x="304" y="830" on="0"/>
        <pt x="355" y="860" on="0"/>
        <pt x="370" y="875" on="1"/>
        <pt x="410" y="835" on="1"/>
        <pt x="391" y="801" on="0"/>
        <pt x="319" y="760" on="0"/>
        <pt x="270" y="760" on="1"/>
        <pt x="221" y="760" on="0"/>
        <pt x="149" y="801" on="0"/>
        <pt x="130" y="835" on="1"/>
        <pt x="170" y="875" on="1"/>
        <pt x="185" y="860" on="0"/>
        <pt x="236" y="830" on="0"/>
      </contour>
    </TTGlyph>
    <TTGlyph name="Gcommaaccent" xMin="50" yMin="-220" xMax="440" yMax="710">
      <contour>
        <pt x="230" y="-70" on="1"/>
        <pt x="320" y="-70" on="1"/>
        <pt x="290" y="-220" on="1"/>
        <pt x="230" y="-220" on="1"/>
      </contour>
      <contour>
        <pt x="440" y="10" on="1"/>
        <pt x="417" y="2" on="0"/>
        <pt x="335" y="-10" on="0"/>
        <pt x="290" y="-10" on="1"/>
        <pt x="230" y="-10" on="0"/>
        <pt x="140" y="24" on="0"/>
        <pt x="80" y="106" on="0"/>
        <pt x="50" y="245" on="0"/>
        <pt x="50" y="350" on="1"/>
        <pt x="50" y="455" on="0"/>
        <pt x="79" y="594" on="0"/>
        <pt x="136" y="676" on="0"/>
        <pt x="217" y="710" on="0"/>
        <pt x="270" y="710" on="1"/>
        <pt x="315" y="710" on="0"/>
        <pt x="397" y="698" on="0"/>
        <pt x="420" y="690" on="1"/>
        <pt x="420" y="645" on="1"/>
        <pt x="290" y="645" on="1"/>
        <pt x="256" y="645" on="0"/>
        <pt x="201" y="619" on="0"/>
        <pt x="162" y="552" on="0"/>
        <pt x="140" y="438" on="0"/>
        <pt x="140" y="350" on="1"/>
        <pt x="140" y="262" on="0"/>
        <pt x="162" y="148" on="0"/>
        <pt x="205" y="81" on="0"/>
        <pt x="269" y="55" on="0"/>
        <pt x="310" y="55" on="1"/>
        <pt x="350" y="55" on="1"/>
        <pt x="350" y="380" on="1"/>
        <pt x="440" y="380" on="1"/>
      </contour>
    </TTGlyph>
    <TTGlyph name="H" xMin="70" yMin="0" xMax="460" yMax="700">
      <contour>
        <pt x="460" y="700" on="1"/>
        <pt x="460" y="0" on="1"/>
        <pt x="370" y="0" on="1"/>
        <pt x="370" y="320" on="1"/>
        <pt x="160" y="320" on="1"/>
        <pt x="160" y="0" on="1"/>
        <pt x="70" y="0" on="1"/>
        <pt x="70" y="700" on="1"/>
        <pt x="160" y="700" on="1"/>
        <pt x="160" y="390" on="1"/>
        <pt x="370" y="390" on="1"/>
        <pt x="370" y="700" on="1"/>
      </contour>
    </TTGlyph>
    <TTGlyph name="I" xMin="70" yMin="0" xMax="160" yMax="700">
      <contour>
        <pt x="160" y="700" on="1"/>
        <pt x="160" y="0" on="1"/>
        <pt x="70" y="0" on="1"/>
        <pt x="70" y="700" on="1"/>
      </contour>
    </TTGlyph>
    <TTGlyph name="Iacute" xMin="70" yMin="0" xMax="215" yMax="880">
      <contour>
        <pt x="160" y="700" on="1"/>
        <pt x="160" y="0" on="1"/>
        <pt x="70" y="0" on="1"/>
        <pt x="70" y="700" on="1"/>
      </contour>
      <contour>
        <pt x="85" y="750" on="1"/>
        <pt x="120" y="880" on="1"/>
        <pt x="215" y="880" on="1"/>
        <pt x="145" y="750" on="1"/>
      </contour>
    </TTGlyph>
    <TTGlyph name="Icircumflex" xMin="-15" yMin="0" xMax="230" yMax="880">
      <contour>
        <pt x="150" y="700" on="1"/>
        <pt x="150" y="0" on="1"/>
        <pt x="60" y="0" on="1"/>
        <pt x="60" y="700" on="1"/>
      </contour>
      <contour>
        <pt x="-15" y="750" on="1"/>
        <pt x="60" y="880" on="1"/>
        <pt x="155" y="880" on="1"/>
        <pt x="230" y="750" on="1"/>
        <pt x="170" y="750" on="1"/>
        <pt x="107" y="824" on="1"/>
        <pt x="45" y="750" on="1"/>
      </contour>
    </TTGlyph>
    <TTGlyph name="Idieresis" xMin="-10" yMin="0" xMax="240" yMax="880">
      <contour>
        <pt x="160" y="700" on="1"/>
        <pt x="160" y="0" on="1"/>
        <pt x="70" y="0" on="1"/>
        <pt x="70" y="700" on="1"/>
      </contour>
      <contour>
        <pt x="80" y="880" on="1"/>
        <pt x="80" y="770" on="1"/>
        <pt x="-10" y="770" on="1"/>
        <pt x="-10" y="880" on="1"/>
      </contour>
      <contour>
        <pt x="240" y="880" on="1"/>
        <pt x="240" y="770" on="1"/>
        <pt x="150" y="770" on="1"/>
        <pt x="150" y="880" on="1"/>
      </contour>
    </TTGlyph>
    <TTGlyph name="Idotaccent" xMin="70" yMin="0" xMax="160" yMax="880">
      <contour>
        <pt x="160" y="700" on="1"/>
        <pt x="160" y="0" on="1"/>
        <pt x="70" y="0" on="1"/>
        <pt x="70" y="700" on="1"/>
      </contour>
      <contour>
        <pt x="160" y="880" on="1"/>
        <pt x="160" y="770" on="1"/>
        <pt x="70" y="770" on="1"/>
        <pt x="70" y="880" on="1"/>
      </contour>
    </TTGlyph>
    <TTGlyph name="Igrave" xMin="15" yMin="0" xMax="155" yMax="880">
      <contour>
        <pt x="155" y="700" on="1"/>
        <pt x="155" y="0" on="1"/>
        <pt x="65" y="0" on="1"/>
        <pt x="65" y="700" on="1"/>
      </contour>
      <contour>
        <pt x="85" y="750" on="1"/>
        <pt x="15" y="880" on="1"/>
        <pt x="110" y="880" on="1"/>
        <pt x="145" y="750" on="1"/>
      </contour>
    </TTGlyph>
    <TTGlyph name="Imacron" xMin="-5" yMin="0" xMax="225" yMax="820">
      <contour>
        <pt x="155" y="700" on="1"/>
        <pt x="155" y="0" on="1"/>
        <pt x="65" y="0" on="1"/>
        <pt x="65" y="700" on="1"/>
      </contour>
      <contour>
        <pt x="-5" y="820" on="1"/>
        <pt x="225" y="820" on="1"/>
        <pt x="225" y="760" on="1"/>
        <pt x="-5" y="760" on="1"/>
      </contour>
    </TTGlyph>
    <TTGlyph name="Iogonek" xMin="50" yMin="-160" xMax="210" yMax="700">
      <contour>
        <pt x="65" y="700" on="1"/>
        <pt x="155" y="700" on="1"/>
        <pt x="155" y="0" on="1"/>
        <pt x="115" y="0" on="1"/>
        <pt x="115" y="-45" on="1"/>
        <pt x="115" y="-79" on="0"/>
        <pt x="141" y="-104" on="0"/>
        <pt x="175" y="-104" on="1"/>
        <pt x="210" y="-104" on="1"/>
        <pt x="210" y="-145" on="1"/>
        <pt x="200" y="-149" on="0"/>
        <pt x="189" y="-153" on="1"/>
        <pt x="179" y="-156" on="0"/>
        <pt x="152" y="-160" on="0"/>
        <pt x="135" y="-160" on="1"/>
        <pt x="93" y="-160" on="0"/>
        <pt x="50" y="-118" on="0"/>
        <pt x="50" y="-80" on="1"/>
        <pt x="50" y="-63" on="0"/>
        <pt x="57" y="-34" on="0"/>
        <pt x="62" y="-23" on="1"/>
        <pt x="67" y="-11" on="0"/>
        <pt x="75" y="0" on="1"/>
        <pt x="65" y="0" on="1"/>
      </contour>
    </TTGlyph>
    <TTGlyph name="Itilde" xMin="-5" yMin="0" xMax="235" yMax="870">
      <contour>
        <pt x="160" y="700" on="1"/>
        <pt x="160" y="0" on="1"/>
        <pt x="70" y="0" on="1"/>
        <pt x="70" y="700" on="1"/>
      </contour>
      <contour>
        <pt x="185" y="765" on="1"/>
        <pt x="185" y="810" on="0"/>
        <pt x="160" y="810" on="1"/>
        <pt x="151" y="810" on="0"/>
        <pt x="134" y="791" on="0"/>
        <pt x="115" y="769" on="0"/>
        <pt x="89" y="750" on="0"/>
        <pt x="70" y="750" on="1"/>
        <pt x="32" y="750" on="0"/>
        <pt x="-5" y="798" on="0"/>
        <pt x="-5" y="855" on="1"/>
        <pt x="45" y="855" on="1"/>
        <pt x="45" y="810" on="0"/>
        <pt x="70" y="810" on="1"/>
        <pt x="79" y="810" on="0"/>
        <pt x="96" y="829" on="0"/>
        <pt x="115" y="851" on="0"/>
        <pt x="141" y="870" on="0"/>
        <pt x="160" y="870" on="1"/>
        <pt x="198" y="870" on="0"/>
        <pt x="235" y="822" on="0"/>
        <pt x="235" y="765" on="1"/>
      </contour>
    </TTGlyph>
    <TTGlyph name="J" xMin="0" yMin="-10" xMax="290" yMax="700">
      <contour>
        <pt x="90" y="55" on="1"/>
        <pt x="116" y="55" on="0"/>
        <pt x="157" y="72" on="0"/>
        <pt x="185" y="114" on="0"/>
        <pt x="200" y="186" on="0"/>
        <pt x="200" y="240" on="1"/>
        <pt x="200" y="700" on="1"/>
        <pt x="290" y="700" on="1"/>
        <pt x="290" y="240" on="1"/>
        <pt x="290" y="169" on="0"/>
        <pt x="267" y="73" on="0"/>
        <pt x="218" y="15" on="0"/>
        <pt x="142" y="-10" on="0"/>
        <pt x="90" y="-10" on="1"/>
        <pt x="67" y="-10" on="0"/>
        <pt x="19" y="2" on="0"/>
        <pt x="0" y="10" on="1"/>
        <pt x="0" y="55" on="1"/>
      </contour>
    </TTGlyph>
    <TTGlyph name="Jcircumflex" xMin="0" yMin="-10" xMax="368" yMax="870">
      <contour>
        <pt x="90" y="55" on="1"/>
        <pt x="116" y="55" on="0"/>
        <pt x="157" y="72" on="0"/>
        <pt x="185" y="114" on="0"/>
        <pt x="200" y="186" on="0"/>
        <pt x="200" y="240" on="1"/>
        <pt x="200" y="700" on="1"/>
        <pt x="290" y="700" on="1"/>
        <pt x="290" y="240" on="1"/>
        <pt x="290" y="169" on="0"/>
        <pt x="267" y="73" on="0"/>
        <pt x="218" y="15" on="0"/>
        <pt x="142" y="-10" on="0"/>
        <pt x="90" y="-10" on="1"/>
        <pt x="67" y="-10" on="0"/>
        <pt x="19" y="2" on="0"/>
        <pt x="0" y="10" on="1"/>
        <pt x="0" y="55" on="1"/>
      </contour>
      <contour>
        <pt x="123" y="740" on="1"/>
        <pt x="198" y="870" on="1"/>
        <pt x="293" y="870" on="1"/>
        <pt x="368" y="740" on="1"/>
        <pt x="308" y="740" on="1"/>
        <pt x="245" y="814" on="1"/>
        <pt x="183" y="740" on="1"/>
      </contour>
    </TTGlyph>
    <TTGlyph name="K" xMin="70" yMin="0" xMax="480" yMax="700">
      <contour>
        <pt x="480" y="0" on="1"/>
        <pt x="375" y="0" on="1"/>
        <pt x="160" y="350" on="1"/>
        <pt x="160" y="0" on="1"/>
        <pt x="70" y="0" on="1"/>
        <pt x="70" y="700" on="1"/>
        <pt x="160" y="700" on="1"/>
        <pt x="160" y="360" on="1"/>
        <pt x="355" y="700" on="1"/>
        <pt x="460" y="700" on="1"/>
        <pt x="255" y="355" on="1"/>
      </contour>
    </TTGlyph>
    <TTGlyph name="Kcommaaccent" xMin="70" yMin="-200" xMax="480" yMax="700">
      <contour>
        <pt x="210" y="-50" on="1"/>
        <pt x="300" y="-50" on="1"/>
        <pt x="270" y="-200" on="1"/>
        <pt x="210" y="-200" on="1"/>
      </contour>
      <contour>
        <pt x="480" y="0" on="1"/>
        <pt x="375" y="0" on="1"/>
        <pt x="160" y="350" on="1"/>
        <pt x="160" y="0" on="1"/>
        <pt x="70" y="0" on="1"/>
        <pt x="70" y="700" on="1"/>
        <pt x="160" y="700" on="1"/>
        <pt x="160" y="360" on="1"/>
        <pt x="355" y="700" on="1"/>
        <pt x="460" y="700" on="1"/>
        <pt x="255" y="355" on="1"/>
      </contour>
    </TTGlyph>
    <TTGlyph name="L" xMin="70" yMin="0" xMax="410" yMax="700">
      <contour>
        <pt x="160" y="70" on="1"/>
        <pt x="410" y="70" on="1"/>
        <pt x="410" y="0" on="1"/>
        <pt x="70" y="0" on="1"/>
        <pt x="70" y="700" on="1"/>
        <pt x="160" y="700" on="1"/>
      </contour>
    </TTGlyph>
    <TTGlyph name="Lcommaaccent" xMin="70" yMin="-210" xMax="410" yMax="700">
      <contour>
        <pt x="200" y="-60" on="1"/>
        <pt x="290" y="-60" on="1"/>
        <pt x="260" y="-210" on="1"/>
        <pt x="200" y="-210" on="1"/>
      </contour>
      <contour>
        <pt x="160" y="70" on="1"/>
        <pt x="410" y="70" on="1"/>
        <pt x="410" y="0" on="1"/>
        <pt x="70" y="0" on="1"/>
        <pt x="70" y="700" on="1"/>
        <pt x="160" y="700" on="1"/>
      </contour>
    </TTGlyph>
    <TTGlyph name="Lslash" xMin="-10" yMin="0" xMax="415" yMax="700">
      <contour>
        <pt x="165" y="430" on="1"/>
        <pt x="225" y="470" on="1"/>
        <pt x="260" y="420" on="1"/>
        <pt x="165" y="355" on="1"/>
        <pt x="165" y="70" on="1"/>
        <pt x="415" y="70" on="1"/>
        <pt x="415" y="0" on="1"/>
        <pt x="75" y="0" on="1"/>
        <pt x="75" y="290" on="1"/>
        <pt x="25" y="255" on="1"/>
        <pt x="-10" y="305" on="1"/>
        <pt x="75" y="365" on="1"/>
        <pt x="75" y="700" on="1"/>
        <pt x="165" y="700" on="1"/>
      </contour>
    </TTGlyph>
    <TTGlyph name="M" xMin="55" yMin="0" xMax="685" yMax="700">
      <contour>
        <pt x="325" y="90" on="1"/>
        <pt x="180" y="520" on="1"/>
        <pt x="175" y="520" on="1"/>
        <pt x="145" y="0" on="1"/>
        <pt x="55" y="0" on="1"/>
        <pt x="95" y="700" on="1"/>
        <pt x="205" y="700" on="1"/>
        <pt x="368" y="220" on="1"/>
        <pt x="372" y="220" on="1"/>
        <pt x="535" y="700" on="1"/>
        <pt x="645" y="700" on="1"/>
        <pt x="685" y="0" on="1"/>
        <pt x="595" y="0" on="1"/>
        <pt x="565" y="520" on="1"/>
        <pt x="560" y="520" on="1"/>
        <pt x="415" y="90" on="1"/>
      </contour>
    </TTGlyph>
    <TTGlyph name="N" xMin="70" yMin="0" xMax="470" yMax="700">
      <contour>
        <pt x="160" y="0" on="1"/>
        <pt x="70" y="0" on="1"/>
        <pt x="70" y="700" on="1"/>
        <pt x="170" y="700" on="1"/>
        <pt x="375" y="205" on="1"/>
        <pt x="380" y="205" on="1"/>
        <pt x="380" y="700" on="1"/>
        <pt x="470" y="700" on="1"/>
        <pt x="470" y="0" on="1"/>
        <pt x="370" y="0" on="1"/>
        <pt x="165" y="495" on="1"/>
        <pt x="160" y="495" on="1"/>
      </contour>
    </TTGlyph>
    <TTGlyph name="Nacute" xMin="70" yMin="0" xMax="470" yMax="880">
      <contour>
        <pt x="240" y="750" on="1"/>
        <pt x="275" y="880" on="1"/>
        <pt x="370" y="880" on="1"/>
        <pt x="300" y="750" on="1"/>
      </contour>
      <contour>
        <pt x="160" y="0" on="1"/>
        <pt x="70" y="0" on="1"/>
        <pt x="70" y="700" on="1"/>
        <pt x="170" y="700" on="1"/>
        <pt x="375" y="205" on="1"/>
        <pt x="380" y="205" on="1"/>
        <pt x="380" y="700" on="1"/>
        <pt x="470" y="700" on="1"/>
        <pt x="470" y="0" on="1"/>
        <pt x="370" y="0" on="1"/>
        <pt x="165" y="495" on="1"/>
        <pt x="160" y="495" on="1"/>
      </contour>
    </TTGlyph>
    <TTGlyph name="Ncommaaccent" xMin="70" yMin="-200" xMax="470" yMax="700">
      <contour>
        <pt x="220" y="-50" on="1"/>
        <pt x="310" y="-50" on="1"/>
        <pt x="280" y="-200" on="1"/>
        <pt x="220" y="-200" on="1"/>
      </contour>
      <contour>
        <pt x="160" y="0" on="1"/>
        <pt x="70" y="0" on="1"/>
        <pt x="70" y="700" on="1"/>
        <pt x="170" y="700" on="1"/>
        <pt x="375" y="205" on="1"/>
        <pt x="380" y="205" on="1"/>
        <pt x="380" y="700" on="1"/>
        <pt x="470" y="700" on="1"/>
        <pt x="470" y="0" on="1"/>
        <pt x="370" y="0" on="1"/>
        <pt x="165" y="495" on="1"/>
        <pt x="160" y="495" on="1"/>
      </contour>
    </TTGlyph>
    <TTGlyph name="Ntilde" xMin="70" yMin="0" xMax="470" yMax="870">
      <contour>
        <pt x="330" y="765" on="1"/>
        <pt x="330" y="810" on="0"/>
        <pt x="305" y="810" on="1"/>
        <pt x="296" y="810" on="0"/>
        <pt x="279" y="791" on="0"/>
        <pt x="260" y="769" on="0"/>
        <pt x="234" y="750" on="0"/>
        <pt x="215" y="750" on="1"/>
        <pt x="177" y="750" on="0"/>
        <pt x="140" y="798" on="0"/>
        <pt x="140" y="855" on="1"/>
        <pt x="190" y="855" on="1"/>
        <pt x="190" y="810" on="0"/>
        <pt x="215" y="810" on="1"/>
        <pt x="224" y="810" on="0"/>
        <pt x="241" y="829" on="0"/>
        <pt x="260" y="851" on="0"/>
        <pt x="286" y="870" on="0"/>
        <pt x="305" y="870" on="1"/>
        <pt x="343" y="870" on="0"/>
        <pt x="380" y="822" on="0"/>
        <pt x="380" y="765" on="1"/>
      </contour>
      <contour>
        <pt x="160" y="0" on="1"/>
        <pt x="70" y="0" on="1"/>
        <pt x="70" y="700" on="1"/>
        <pt x="170" y="700" on="1"/>
        <pt x="375" y="205" on="1"/>
        <pt x="380" y="205" on="1"/>
        <pt x="380" y="700" on="1"/>
        <pt x="470" y="700" on="1"/>
        <pt x="470" y="0" on="1"/>
        <pt x="370" y="0" on="1"/>
        <pt x="165" y="495" on="1"/>
        <pt x="160" y="495" on="1"/>
      </contour>
    </TTGlyph>
    <TTGlyph name="O" xMin="50" yMin="-10" xMax="480" yMax="710">
      <contour>
        <pt x="265" y="710" on="1"/>
        <pt x="316" y="710" on="0"/>
        <pt x="395" y="676" on="0"/>
        <pt x="451" y="594" on="0"/>
        <pt x="480" y="455" on="0"/>
        <pt x="480" y="350" on="1"/>
        <pt x="480" y="245" on="0"/>
        <pt x="451" y="106" on="0"/>
        <pt x="395" y="24" on="0"/>
        <pt x="316" y="-10" on="0"/>
        <pt x="265" y="-10" on="1"/>
        <pt x="214" y="-10" on="0"/>
        <pt x="135" y="24" on="0"/>
        <pt x="79" y="106" on="0"/>
        <pt x="50" y="245" on="0"/>
        <pt x="50" y="350" on="1"/>
        <pt x="50" y="455" on="0"/>
        <pt x="79" y="594" on="0"/>
        <pt x="135" y="676" on="0"/>
        <pt x="214" y="710" on="0"/>
      </contour>
      <contour>
        <pt x="265" y="50" on="1"/>
        <pt x="289" y="50" on="0"/>
        <pt x="335" y="76" on="0"/>
        <pt x="369" y="144" on="0"/>
        <pt x="390" y="260" on="0"/>
        <pt x="390" y="350" on="1"/>
        <pt x="390" y="440" on="0"/>
        <pt x="369" y="556" on="0"/>
        <pt x="335" y="624" on="0"/>
        <pt x="289" y="650" on="0"/>
        <pt x="265" y="650" on="1"/>
        <pt x="241" y="650" on="0"/>
        <pt x="195" y="624" on="0"/>
        <pt x="161" y="556" on="0"/>
        <pt x="140" y="440" on="0"/>
        <pt x="140" y="350" on="1"/>
        <pt x="140" y="260" on="0"/>
        <pt x="161" y="144" on="0"/>
        <pt x="195" y="76" on="0"/>
        <pt x="241" y="50" on="0"/>
      </contour>
    </TTGlyph>
    <TTGlyph name="OE" xMin="40" yMin="0" xMax="700" yMax="700">
      <contour>
        <pt x="700" y="700" on="1"/>
        <pt x="700" y="630" on="1"/>
        <pt x="450" y="630" on="1"/>
        <pt x="450" y="400" on="1"/>
        <pt x="670" y="400" on="1"/>
        <pt x="670" y="330" on="1"/>
        <pt x="450" y="330" on="1"/>
        <pt x="450" y="70" on="1"/>
        <pt x="700" y="70" on="1"/>
        <pt x="700" y="0" on="1"/>
        <pt x="330" y="0" on="1"/>
        <pt x="259" y="0" on="0"/>
        <pt x="150" y="39" on="0"/>
        <pt x="77" y="123" on="0"/>
        <pt x="40" y="256" on="0"/>
        <pt x="40" y="350" on="1"/>
        <pt x="40" y="444" on="0"/>
        <pt x="77" y="577" on="0"/>
        <pt x="150" y="661" on="0"/>
        <pt x="259" y="700" on="0"/>
        <pt x="330" y="700" on="1"/>
      </contour>
      <contour>
        <pt x="360" y="630" on="1"/>
        <pt x="330" y="630" on="1"/>
        <pt x="281" y="630" on="0"/>
        <pt x="207" y="602" on="0"/>
        <pt x="156" y="536" on="0"/>
        <pt x="130" y="429" on="0"/>
        <pt x="130" y="350" on="1"/>
        <pt x="130" y="271" on="0"/>
        <pt x="156" y="164" on="0"/>
        <pt x="207" y="98" on="0"/>
        <pt x="281" y="70" on="0"/>
        <pt x="330" y="70" on="1"/>
        <pt x="360" y="70" on="1"/>
      </contour>
    </TTGlyph>
    <TTGlyph name="Oacute" xMin="50" yMin="-10" xMax="480" yMax="890">
      <contour>
        <pt x="265" y="710" on="1"/>
        <pt x="316" y="710" on="0"/>
        <pt x="395" y="676" on="0"/>
        <pt x="451" y="594" on="0"/>
        <pt x="480" y="455" on="0"/>
        <pt x="480" y="350" on="1"/>
        <pt x="480" y="245" on="0"/>
        <pt x="451" y="106" on="0"/>
        <pt x="395" y="24" on="0"/>
        <pt x="316" y="-10" on="0"/>
        <pt x="265" y="-10" on="1"/>
        <pt x="214" y="-10" on="0"/>
        <pt x="135" y="24" on="0"/>
        <pt x="79" y="106" on="0"/>
        <pt x="50" y="245" on="0"/>
        <pt x="50" y="350" on="1"/>
        <pt x="50" y="455" on="0"/>
        <pt x="79" y="594" on="0"/>
        <pt x="135" y="676" on="0"/>
        <pt x="214" y="710" on="0"/>
      </contour>
      <contour>
        <pt x="265" y="50" on="1"/>
        <pt x="289" y="50" on="0"/>
        <pt x="335" y="76" on="0"/>
        <pt x="369" y="144" on="0"/>
        <pt x="390" y="260" on="0"/>
        <pt x="390" y="350" on="1"/>
        <pt x="390" y="440" on="0"/>
        <pt x="369" y="556" on="0"/>
        <pt x="335" y="624" on="0"/>
        <pt x="289" y="650" on="0"/>
        <pt x="265" y="650" on="1"/>
        <pt x="241" y="650" on="0"/>
        <pt x="195" y="624" on="0"/>
        <pt x="161" y="556" on="0"/>
        <pt x="140" y="440" on="0"/>
        <pt x="140" y="350" on="1"/>
        <pt x="140" y="260" on="0"/>
        <pt x="161" y="144" on="0"/>
        <pt x="195" y="76" on="0"/>
        <pt x="241" y="50" on="0"/>
      </contour>
      <contour>
        <pt x="230" y="760" on="1"/>
        <pt x="265" y="890" on="1"/>
        <pt x="360" y="890" on="1"/>
        <pt x="290" y="760" on="1"/>
      </contour>
    </TTGlyph>
    <TTGlyph name="Ocircumflex" xMin="50" yMin="-10" xMax="480" yMax="890">
      <contour>
        <pt x="265" y="710" on="1"/>
        <pt x="316" y="710" on="0"/>
        <pt x="395" y="676" on="0"/>
        <pt x="451" y="594" on="0"/>
        <pt x="480" y="455" on="0"/>
        <pt x="480" y="350" on="1"/>
        <pt x="480" y="245" on="0"/>
        <pt x="451" y="106" on="0"/>
        <pt x="395" y="24" on="0"/>
        <pt x="316" y="-10" on="0"/>
        <pt x="265" y="-10" on="1"/>
        <pt x="214" y="-10" on="0"/>
        <pt x="135" y="24" on="0"/>
        <pt x="79" y="106" on="0"/>
        <pt x="50" y="245" on="0"/>
        <pt x="50" y="350" on="1"/>
        <pt x="50" y="455" on="0"/>
        <pt x="79" y="594" on="0"/>
        <pt x="135" y="676" on="0"/>
        <pt x="214" y="710" on="0"/>
      </contour>
      <contour>
        <pt x="265" y="50" on="1"/>
        <pt x="289" y="50" on="0"/>
        <pt x="335" y="76" on="0"/>
        <pt x="369" y="144" on="0"/>
        <pt x="390" y="260" on="0"/>
        <pt x="390" y="350" on="1"/>
        <pt x="390" y="440" on="0"/>
        <pt x="369" y="556" on="0"/>
        <pt x="335" y="624" on="0"/>
        <pt x="289" y="650" on="0"/>
        <pt x="265" y="650" on="1"/>
        <pt x="241" y="650" on="0"/>
        <pt x="195" y="624" on="0"/>
        <pt x="161" y="556" on="0"/>
        <pt x="140" y="440" on="0"/>
        <pt x="140" y="350" on="1"/>
        <pt x="140" y="260" on="0"/>
        <pt x="161" y="144" on="0"/>
        <pt x="195" y="76" on="0"/>
        <pt x="241" y="50" on="0"/>
      </contour>
      <contour>
        <pt x="145" y="760" on="1"/>
        <pt x="220" y="890" on="1"/>
        <pt x="315" y="890" on="1"/>
        <pt x="390" y="760" on="1"/>
        <pt x="330" y="760" on="1"/>
        <pt x="267" y="834" on="1"/>
        <pt x="205" y="760" on="1"/>
      </contour>
    </TTGlyph>
    <TTGlyph name="Odieresis" xMin="50" yMin="-10" xMax="480" yMax="880">
      <contour>
        <pt x="265" y="710" on="1"/>
        <pt x="316" y="710" on="0"/>
        <pt x="395" y="676" on="0"/>
        <pt x="451" y="594" on="0"/>
        <pt x="480" y="455" on="0"/>
        <pt x="480" y="350" on="1"/>
        <pt x="480" y="245" on="0"/>
        <pt x="451" y="106" on="0"/>
        <pt x="395" y="24" on="0"/>
        <pt x="316" y="-10" on="0"/>
        <pt x="265" y="-10" on="1"/>
        <pt x="214" y="-10" on="0"/>
        <pt x="135" y="24" on="0"/>
        <pt x="79" y="106" on="0"/>
        <pt x="50" y="245" on="0"/>
        <pt x="50" y="350" on="1"/>
        <pt x="50" y="455" on="0"/>
        <pt x="79" y="594" on="0"/>
        <pt x="135" y="676" on="0"/>
        <pt x="214" y="710" on="0"/>
      </contour>
      <contour>
        <pt x="265" y="50" on="1"/>
        <pt x="289" y="50" on="0"/>
        <pt x="335" y="76" on="0"/>
        <pt x="369" y="144" on="0"/>
        <pt x="390" y="260" on="0"/>
        <pt x="390" y="350" on="1"/>
        <pt x="390" y="440" on="0"/>
        <pt x="369" y="556" on="0"/>
        <pt x="335" y="624" on="0"/>
        <pt x="289" y="650" on="0"/>
        <pt x="265" y="650" on="1"/>
        <pt x="241" y="650" on="0"/>
        <pt x="195" y="624" on="0"/>
        <pt x="161" y="556" on="0"/>
        <pt x="140" y="440" on="0"/>
        <pt x="140" y="350" on="1"/>
        <pt x="140" y="260" on="0"/>
        <pt x="161" y="144" on="0"/>
        <pt x="195" y="76" on="0"/>
        <pt x="241" y="50" on="0"/>
      </contour>
      <contour>
        <pt x="230" y="880" on="1"/>
        <pt x="230" y="770" on="1"/>
        <pt x="140" y="770" on="1"/>
        <pt x="140" y="880" on="1"/>
      </contour>
      <contour>
        <pt x="390" y="880" on="1"/>
        <pt x="390" y="770" on="1"/>
        <pt x="300" y="770" on="1"/>
        <pt x="300" y="880" on="1"/>
      </contour>
    </TTGlyph>
    <TTGlyph name="Ograve" xMin="50" yMin="-10" xMax="480" yMax="890">
      <contour>
        <pt x="265" y="710" on="1"/>
        <pt x="316" y="710" on="0"/>
        <pt x="395" y="676" on="0"/>
        <pt x="451" y="594" on="0"/>
        <pt x="480" y="455" on="0"/>
        <pt x="480" y="350" on="1"/>
        <pt x="480" y="245" on="0"/>
        <pt x="451" y="106" on="0"/>
        <pt x="395" y="24" on="0"/>
        <pt x="316" y="-10" on="0"/>
        <pt x="265" y="-10" on="1"/>
        <pt x="214" y="-10" on="0"/>
        <pt x="135" y="24" on="0"/>
        <pt x="79" y="106" on="0"/>
        <pt x="50" y="245" on="0"/>
        <pt x="50" y="350" on="1"/>
        <pt x="50" y="455" on="0"/>
        <pt x="79" y="594" on="0"/>
        <pt x="135" y="676" on="0"/>
        <pt x="214" y="710" on="0"/>
      </contour>
      <contour>
        <pt x="265" y="50" on="1"/>
        <pt x="289" y="50" on="0"/>
        <pt x="335" y="76" on="0"/>
        <pt x="369" y="144" on="0"/>
        <pt x="390" y="260" on="0"/>
        <pt x="390" y="350" on="1"/>
        <pt x="390" y="440" on="0"/>
        <pt x="369" y="556" on="0"/>
        <pt x="335" y="624" on="0"/>
        <pt x="289" y="650" on="0"/>
        <pt x="265" y="650" on="1"/>
        <pt x="241" y="650" on="0"/>
        <pt x="195" y="624" on="0"/>
        <pt x="161" y="556" on="0"/>
        <pt x="140" y="440" on="0"/>
        <pt x="140" y="350" on="1"/>
        <pt x="140" y="260" on="0"/>
        <pt x="161" y="144" on="0"/>
        <pt x="195" y="76" on="0"/>
        <pt x="241" y="50" on="0"/>
      </contour>
      <contour>
        <pt x="240" y="760" on="1"/>
        <pt x="170" y="890" on="1"/>
        <pt x="265" y="890" on="1"/>
        <pt x="300" y="760" on="1"/>
      </contour>
    </TTGlyph>
    <TTGlyph name="Omacron" xMin="50" yMin="-10" xMax="480" yMax="830">
      <contour>
        <pt x="265" y="710" on="1"/>
        <pt x="316" y="710" on="0"/>
        <pt x="395" y="676" on="0"/>
        <pt x="451" y="594" on="0"/>
        <pt x="480" y="455" on="0"/>
        <pt x="480" y="350" on="1"/>
        <pt x="480" y="245" on="0"/>
        <pt x="451" y="106" on="0"/>
        <pt x="395" y="24" on="0"/>
        <pt x="316" y="-10" on="0"/>
        <pt x="265" y="-10" on="1"/>
        <pt x="214" y="-10" on="0"/>
        <pt x="135" y="24" on="0"/>
        <pt x="79" y="106" on="0"/>
        <pt x="50" y="245" on="0"/>
        <pt x="50" y="350" on="1"/>
        <pt x="50" y="455" on="0"/>
        <pt x="79" y="594" on="0"/>
        <pt x="135" y="676" on="0"/>
        <pt x="214" y="710" on="0"/>
      </contour>
      <contour>
        <pt x="265" y="50" on="1"/>
        <pt x="289" y="50" on="0"/>
        <pt x="335" y="76" on="0"/>
        <pt x="369" y="144" on="0"/>
        <pt x="390" y="260" on="0"/>
        <pt x="390" y="350" on="1"/>
        <pt x="390" y="440" on="0"/>
        <pt x="369" y="556" on="0"/>
        <pt x="335" y="624" on="0"/>
        <pt x="289" y="650" on="0"/>
        <pt x="265" y="650" on="1"/>
        <pt x="241" y="650" on="0"/>
        <pt x="195" y="624" on="0"/>
        <pt x="161" y="556" on="0"/>
        <pt x="140" y="440" on="0"/>
        <pt x="140" y="350" on="1"/>
        <pt x="140" y="260" on="0"/>
        <pt x="161" y="144" on="0"/>
        <pt x="195" y="76" on="0"/>
        <pt x="241" y="50" on="0"/>
      </contour>
      <contour>
        <pt x="150" y="830" on="1"/>
        <pt x="380" y="830" on="1"/>
        <pt x="380" y="770" on="1"/>
        <pt x="150" y="770" on="1"/>
      </contour>
    </TTGlyph>
    <TTGlyph name="Oslash" xMin="30" yMin="-10" xMax="510" yMax="710">
      <contour>
        <pt x="270" y="710" on="1"/>
        <pt x="323" y="710" on="0"/>
        <pt x="405" y="673" on="0"/>
        <pt x="433" y="627" on="1"/>
        <pt x="470" y="680" on="1"/>
        <pt x="510" y="650" on="1"/>
        <pt x="457" y="574" on="1"/>
        <pt x="471" y="533" on="0"/>
        <pt x="485" y="423" on="0"/>
        <pt x="485" y="350" on="1"/>
        <pt x="485" y="245" on="0"/>
        <pt x="456" y="106" on="0"/>
        <pt x="400" y="24" on="0"/>
        <pt x="321" y="-10" on="0"/>
        <pt x="270" y="-10" on="1"/>
        <pt x="216" y="-10" on="0"/>
        <pt x="135" y="27" on="0"/>
        <pt x="107" y="73" on="1"/>
        <pt x="70" y="20" on="1"/>
        <pt x="30" y="50" on="1"/>
        <pt x="83" y="126" on="1"/>
        <pt x="69" y="167" on="0"/>
        <pt x="55" y="277" on="0"/>
        <pt x="55" y="350" on="1"/>
        <pt x="55" y="455" on="0"/>
        <pt x="84" y="594" on="0"/>
        <pt x="140" y="676" on="0"/>
        <pt x="219" y="710" on="0"/>
      </contour>
      <contour>
        <pt x="145" y="350" on="1"/>
        <pt x="145" y="313" on="0"/>
        <pt x="148" y="251" on="0"/>
        <pt x="152" y="225" on="1"/>
        <pt x="374" y="543" on="1"/>
        <pt x="357" y="604" on="0"/>
        <pt x="301" y="650" on="0"/>
        <pt x="270" y="650" on="1"/>
        <pt x="246" y="650" on="0"/>
        <pt x="200" y="624" on="0"/>
        <pt x="166" y="556" on="0"/>
        <pt x="145" y="440" on="0"/>
      </contour>
      <contour>
        <pt x="270" y="50" on="1"/>
        <pt x="294" y="50" on="0"/>
        <pt x="340" y="76" on="0"/>
        <pt x="374" y="144" on="0"/>
        <pt x="395" y="260" on="0"/>
        <pt x="395" y="350" on="1"/>
        <pt x="395" y="387" on="0"/>
        <pt x="391" y="449" on="0"/>
        <pt x="388" y="475" on="1"/>
        <pt x="165" y="156" on="1"/>
        <pt x="182" y="95" on="0"/>
        <pt x="238" y="50" on="0"/>
      </contour>
    </TTGlyph>
    <TTGlyph name="Otilde" xMin="50" yMin="-10" xMax="480" yMax="880">
      <contour>
        <pt x="265" y="710" on="1"/>
        <pt x="316" y="710" on="0"/>
        <pt x="395" y="676" on="0"/>
        <pt x="451" y="594" on="0"/>
        <pt x="480" y="455" on="0"/>
        <pt x="480" y="350" on="1"/>
        <pt x="480" y="245" on="0"/>
        <pt x="451" y="106" on="0"/>
        <pt x="395" y="24" on="0"/>
        <pt x="316" y="-10" on="0"/>
        <pt x="265" y="-10" on="1"/>
        <pt x="214" y="-10" on="0"/>
        <pt x="135" y="24" on="0"/>
        <pt x="79" y="106" on="0"/>
        <pt x="50" y="245" on="0"/>
        <pt x="50" y="350" on="1"/>
        <pt x="50" y="455" on="0"/>
        <pt x="79" y="594" on="0"/>
        <pt x="135" y="676" on="0"/>
        <pt x="214" y="710" on="0"/>
      </contour>
      <contour>
        <pt x="265" y="50" on="1"/>
        <pt x="289" y="50" on="0"/>
        <pt x="335" y="76" on="0"/>
        <pt x="369" y="144" on="0"/>
        <pt x="390" y="260" on="0"/>
        <pt x="390" y="350" on="1"/>
        <pt x="390" y="440" on="0"/>
        <pt x="369" y="556" on="0"/>
        <pt x="335" y="624" on="0"/>
        <pt x="289" y="650" on="0"/>
        <pt x="265" y="650" on="1"/>
        <pt x="241" y="650" on="0"/>
        <pt x="195" y="624" on="0"/>
        <pt x="161" y="556" on="0"/>
        <pt x="140" y="440" on="0"/>
        <pt x="140" y="350" on="1"/>
        <pt x="140" y="260" on="0"/>
        <pt x="161" y="144" on="0"/>
        <pt x="195" y="76" on="0"/>
        <pt x="241" y="50" on="0"/>
      </contour>
      <contour>
        <pt x="330" y="775" on="1"/>
        <pt x="330" y="820" on="0"/>
        <pt x="305" y="820" on="1"/>
        <pt x="296" y="820" on="0"/>
        <pt x="279" y="801" on="0"/>
        <pt x="260" y="779" on="0"/>
        <pt x="234" y="760" on="0"/>
        <pt x="215" y="760" on="1"/>
        <pt x="177" y="760" on="0"/>
        <pt x="140" y="808" on="0"/>
        <pt x="140" y="865" on="1"/>
        <pt x="190" y="865" on="1"/>
        <pt x="190" y="820" on="0"/>
        <pt x="215" y="820" on="1"/>
        <pt x="224" y="820" on="0"/>
        <pt x="241" y="839" on="0"/>
        <pt x="260" y="861" on="0"/>
        <pt x="286" y="880" on="0"/>
        <pt x="305" y="880" on="1"/>
        <pt x="343" y="880" on="0"/>
        <pt x="380" y="832" on="0"/>
        <pt x="380" y="775" on="1"/>
      </contour>
    </TTGlyph>
    <TTGlyph name="P" xMin="70" yMin="0" xMax="450" yMax="710">
      <contour>
        <pt x="230" y="275" on="1"/>
        <pt x="264" y="275" on="0"/>
        <pt x="313" y="292" on="0"/>
        <pt x="345" y="334" on="0"/>
        <pt x="360" y="406" on="0"/>
        <pt x="360" y="460" on="1"/>
        <pt x="360" y="514" on="0"/>
        <pt x="345" y="586" on="0"/>
        <pt x="313" y="628" on="0"/>
        <pt x="264" y="645" on="0"/>
        <pt x="230" y="645" on="1"/>
        <pt x="160" y="645" on="1"/>
        <pt x="160" y="275" on="1"/>
      </contour>
      <contour>
        <pt x="160" y="0" on="1"/>
        <pt x="70" y="0" on="1"/>
        <pt x="70" y="690" on="1"/>
        <pt x="108" y="701" on="0"/>
        <pt x="185" y="710" on="0"/>
        <pt x="230" y="710" on="1"/>
        <pt x="290" y="710" on="0"/>
        <pt x="374" y="685" on="0"/>
        <pt x="426" y="627" on="0"/>
        <pt x="450" y="531" on="0"/>
        <pt x="450" y="460" on="1"/>
        <pt x="450" y="387" on="0"/>
        <pt x="427" y="289" on="0"/>
        <pt x="380" y="230" on="0"/>
        <pt x="309" y="205" on="0"/>
        <pt x="260" y="205" on="1"/>
        <pt x="237" y="205" on="0"/>
        <pt x="179" y="211" on="0"/>
        <pt x="160" y="215" on="1"/>
      </contour>
    </TTGlyph>
    <TTGlyph name="Q" xMin="50" yMin="-10" xMax="530" yMax="710">
      <contour>
        <pt x="265" y="710" on="1"/>
        <pt x="316" y="710" on="0"/>
        <pt x="395" y="676" on="0"/>
        <pt x="451" y="594" on="0"/>
        <pt x="480" y="455" on="0"/>
        <pt x="480" y="350" on="1"/>
        <pt x="480" y="233" on="0"/>
        <pt x="444" y="92" on="0"/>
        <pt x="410" y="50" on="1"/>
        <pt x="448" y="50" on="0"/>
        <pt x="507" y="38" on="0"/>
        <pt x="530" y="30" on="1"/>
        <pt x="530" y="-10" on="1"/>
        <pt x="265" y="-10" on="1"/>
        <pt x="214" y="-10" on="0"/>
        <pt x="135" y="24" on="0"/>
        <pt x="79" y="106" on="0"/>
        <pt x="50" y="245" on="0"/>
        <pt x="50" y="350" on="1"/>
        <pt x="50" y="455" on="0"/>
        <pt x="79" y="594" on="0"/>
        <pt x="135" y="676" on="0"/>
        <pt x="214" y="710" on="0"/>
      </contour>
      <contour>
        <pt x="265" y="50" on="1"/>
        <pt x="289" y="50" on="0"/>
        <pt x="335" y="76" on="0"/>
        <pt x="369" y="144" on="0"/>
        <pt x="390" y="260" on="0"/>
        <pt x="390" y="350" on="1"/>
        <pt x="390" y="440" on="0"/>
        <pt x="369" y="556" on="0"/>
        <pt x="335" y="624" on="0"/>
        <pt x="289" y="650" on="0"/>
        <pt x="265" y="650" on="1"/>
        <pt x="241" y="650" on="0"/>
        <pt x="195" y="624" on="0"/>
        <pt x="161" y="556" on="0"/>
        <pt x="140" y="440" on="0"/>
        <pt x="140" y="350" on="1"/>
        <pt x="140" y="260" on="0"/>
        <pt x="161" y="144" on="0"/>
        <pt x="195" y="76" on="0"/>
        <pt x="241" y="50" on="0"/>
      </contour>
    </TTGlyph>
    <TTGlyph name="R" xMin="70" yMin="0" xMax="470" yMax="710">
      <contour>
        <pt x="450" y="470" on="1"/>
        <pt x="450" y="419" on="0"/>
        <pt x="437" y="345" on="0"/>
        <pt x="412" y="292" on="0"/>
        <pt x="374" y="259" on="0"/>
        <pt x="350" y="250" on="1"/>
        <pt x="470" y="0" on="1"/>
        <pt x="370" y="0" on="1"/>
        <pt x="260" y="230" on="1"/>
        <pt x="160" y="230" on="1"/>
        <pt x="160" y="0" on="1"/>
        <pt x="70" y="0" on="1"/>
        <pt x="70" y="690" on="1"/>
        <pt x="108" y="701" on="0"/>
        <pt x="185" y="710" on="0"/>
        <pt x="230" y="710" on="1"/>
        <pt x="290" y="710" on="0"/>
        <pt x="374" y="686" on="0"/>
        <pt x="426" y="629" on="0"/>
        <pt x="450" y="537" on="0"/>
      </contour>
      <contour>
        <pt x="230" y="300" on="1"/>
        <pt x="264" y="300" on="0"/>
        <pt x="313" y="317" on="0"/>
        <pt x="345" y="356" on="0"/>
        <pt x="360" y="421" on="0"/>
        <pt x="360" y="470" on="1"/>
        <pt x="360" y="521" on="0"/>
        <pt x="345" y="588" on="0"/>
        <pt x="313" y="628" on="0"/>
        <pt x="264" y="645" on="0"/>
        <pt x="230" y="645" on="1"/>
        <pt x="160" y="645" on="1"/>
        <pt x="160" y="300" on="1"/>
      </contour>
    </TTGlyph>
    <TTGlyph name="Racute" xMin="70" yMin="0" xMax="470" yMax="880">
      <contour>
        <pt x="450" y="470" on="1"/>
        <pt x="450" y="419" on="0"/>
        <pt x="437" y="345" on="0"/>
        <pt x="412" y="292" on="0"/>
        <pt x="374" y="259" on="0"/>
        <pt x="350" y="250" on="1"/>
        <pt x="470" y="0" on="1"/>
        <pt x="370" y="0" on="1"/>
        <pt x="260" y="230" on="1"/>
        <pt x="160" y="230" on="1"/>
        <pt x="160" y="0" on="1"/>
        <pt x="70" y="0" on="1"/>
        <pt x="70" y="690" on="1"/>
        <pt x="108" y="701" on="0"/>
        <pt x="185" y="710" on="0"/>
        <pt x="230" y="710" on="1"/>
        <pt x="290" y="710" on="0"/>
        <pt x="374" y="686" on="0"/>
        <pt x="426" y="629" on="0"/>
        <pt x="450" y="537" on="0"/>
      </contour>
      <contour>
        <pt x="230" y="300" on="1"/>
        <pt x="264" y="300" on="0"/>
        <pt x="313" y="317" on="0"/>
        <pt x="345" y="356" on="0"/>
        <pt x="360" y="421" on="0"/>
        <pt x="360" y="470" on="1"/>
        <pt x="360" y="521" on="0"/>
        <pt x="345" y="588" on="0"/>
        <pt x="313" y="628" on="0"/>
        <pt x="264" y="645" on="0"/>
        <pt x="230" y="645" on="1"/>
        <pt x="160" y="645" on="1"/>
        <pt x="160" y="300" on="1"/>
      </contour>
      <contour>
        <pt x="200" y="750" on="1"/>
        <pt x="235" y="880" on="1"/>
        <pt x="330" y="880" on="1"/>
        <pt x="260" y="750" on="1"/>
      </contour>
    </TTGlyph>
    <TTGlyph name="Rcaron" xMin="70" yMin="0" xMax="470" yMax="880">
      <contour>
        <pt x="450" y="470" on="1"/>
        <pt x="450" y="419" on="0"/>
        <pt x="437" y="345" on="0"/>
        <pt x="412" y="292" on="0"/>
        <pt x="374" y="259" on="0"/>
        <pt x="350" y="250" on="1"/>
        <pt x="470" y="0" on="1"/>
        <pt x="370" y="0" on="1"/>
        <pt x="260" y="230" on="1"/>
        <pt x="160" y="230" on="1"/>
        <pt x="160" y="0" on="1"/>
        <pt x="70" y="0" on="1"/>
        <pt x="70" y="690" on="1"/>
        <pt x="108" y="701" on="0"/>
        <pt x="185" y="710" on="0"/>
        <pt x="230" y="710" on="1"/>
        <pt x="290" y="710" on="0"/>
        <pt x="374" y="686" on="0"/>
        <pt x="426" y="629" on="0"/>
        <pt x="450" y="537" on="0"/>
      </contour>
      <contour>
        <pt x="230" y="300" on="1"/>
        <pt x="264" y="300" on="0"/>
        <pt x="313" y="317" on="0"/>
        <pt x="345" y="356" on="0"/>
        <pt x="360" y="421" on="0"/>
        <pt x="360" y="470" on="1"/>
        <pt x="360" y="521" on="0"/>
        <pt x="345" y="588" on="0"/>
        <pt x="313" y="628" on="0"/>
        <pt x="264" y="645" on="0"/>
        <pt x="230" y="645" on="1"/>
        <pt x="160" y="645" on="1"/>
        <pt x="160" y="300" on="1"/>
      </contour>
      <contour>
        <pt x="168" y="880" on="1"/>
        <pt x="230" y="806" on="1"/>
        <pt x="293" y="880" on="1"/>
        <pt x="353" y="880" on="1"/>
        <pt x="278" y="750" on="1"/>
        <pt x="183" y="750" on="1"/>
        <pt x="108" y="880" on="1"/>
      </contour>
    </TTGlyph>
    <TTGlyph name="Rcommaaccent" xMin="70" yMin="-200" xMax="470" yMax="710">
      <contour>
        <pt x="220" y="-50" on="1"/>
        <pt x="310" y="-50" on="1"/>
        <pt x="280" y="-200" on="1"/>
        <pt x="220" y="-200" on="1"/>
      </contour>
      <contour>
        <pt x="450" y="470" on="1"/>
        <pt x="450" y="419" on="0"/>
        <pt x="437" y="345" on="0"/>
        <pt x="412" y="292" on="0"/>
        <pt x="374" y="259" on="0"/>
        <pt x="350" y="250" on="1"/>
        <pt x="470" y="0" on="1"/>
        <pt x="370" y="0" on="1"/>
        <pt x="260" y="230" on="1"/>
        <pt x="160" y="230" on="1"/>
        <pt x="160" y="0" on="1"/>
        <pt x="70" y="0" on="1"/>
        <pt x="70" y="690" on="1"/>
        <pt x="108" y="701" on="0"/>
        <pt x="185" y="710" on="0"/>
        <pt x="230" y="710" on="1"/>
        <pt x="290" y="710" on="0"/>
        <pt x="374" y="686" on="0"/>
        <pt x="426" y="629" on="0"/>
        <pt x="450" y="537" on="0"/>
      </contour>
      <contour>
        <pt x="230" y="300" on="1"/>
        <pt x="264" y="300" on="0"/>
        <pt x="313" y="317" on="0"/>
        <pt x="345" y="356" on="0"/>
        <pt x="360" y="421" on="0"/>
        <pt x="360" y="470" on="1"/>
        <pt x="360" y="521" on="0"/>
        <pt x="345" y="588" on="0"/>
        <pt x="313" y="628" on="0"/>
        <pt x="264" y="645" on="0"/>
        <pt x="230" y="645" on="1"/>
        <pt x="160" y="645" on="1"/>
        <pt x="160" y="300" on="1"/>
      </contour>
    </TTGlyph>
    <TTGlyph name="S" xMin="35" yMin="-10" xMax="410" yMax="710">
      <contour>
        <pt x="35" y="530" on="1"/>
        <pt x="35" y="621" on="0"/>
        <pt x="127" y="710" on="0"/>
        <pt x="225" y="710" on="1"/>
        <pt x="270" y="710" on="0"/>
        <pt x="352" y="698" on="0"/>
        <pt x="375" y="690" on="1"/>
        <pt x="375" y="645" on="1"/>
        <pt x="245" y="645" on="1"/>
        <pt x="125" y="645" on="0"/>
        <pt x="125" y="530" on="1"/>
        <pt x="125" y="484" on="0"/>
        <pt x="167" y="430" on="0"/>
        <pt x="231" y="393" on="0"/>
        <pt x="304" y="362" on="0"/>
        <pt x="368" y="315" on="0"/>
        <pt x="410" y="241" on="0"/>
        <pt x="410" y="180" on="1"/>
        <pt x="410" y="131" on="0"/>
        <pt x="386" y="60" on="0"/>
        <pt x="333" y="13" on="0"/>
        <pt x="247" y="-10" on="0"/>
        <pt x="185" y="-10" on="1"/>
        <pt x="140" y="-10" on="0"/>
        <pt x="58" y="2" on="0"/>
        <pt x="35" y="10" on="1"/>
        <pt x="35" y="55" on="1"/>
        <pt x="165" y="55" on="1"/>
        <pt x="251" y="55" on="0"/>
        <pt x="320" y="116" on="0"/>
        <pt x="320" y="180" on="1"/>
        <pt x="320" y="224" on="0"/>
        <pt x="278" y="274" on="0"/>
        <pt x="214" y="309" on="0"/>
        <pt x="141" y="341" on="0"/>
        <pt x="77" y="389" on="0"/>
        <pt x="35" y="466" on="0"/>
      </contour>
    </TTGlyph>
    <TTGlyph name="Sacute" xMin="35" yMin="-10" xMax="410" yMax="890">
      <contour>
        <pt x="35" y="530" on="1"/>
        <pt x="35" y="621" on="0"/>
        <pt x="127" y="710" on="0"/>
        <pt x="225" y="710" on="1"/>
        <pt x="270" y="710" on="0"/>
        <pt x="352" y="698" on="0"/>
        <pt x="375" y="690" on="1"/>
        <pt x="375" y="645" on="1"/>
        <pt x="245" y="645" on="1"/>
        <pt x="125" y="645" on="0"/>
        <pt x="125" y="530" on="1"/>
        <pt x="125" y="484" on="0"/>
        <pt x="167" y="430" on="0"/>
        <pt x="231" y="393" on="0"/>
        <pt x="304" y="362" on="0"/>
        <pt x="368" y="315" on="0"/>
        <pt x="410" y="241" on="0"/>
        <pt x="410" y="180" on="1"/>
        <pt x="410" y="131" on="0"/>
        <pt x="386" y="60" on="0"/>
        <pt x="333" y="13" on="0"/>
        <pt x="247" y="-10" on="0"/>
        <pt x="185" y="-10" on="1"/>
        <pt x="140" y="-10" on="0"/>
        <pt x="58" y="2" on="0"/>
        <pt x="35" y="10" on="1"/>
        <pt x="35" y="55" on="1"/>
        <pt x="165" y="55" on="1"/>
        <pt x="251" y="55" on="0"/>
        <pt x="320" y="116" on="0"/>
        <pt x="320" y="180" on="1"/>
        <pt x="320" y="224" on="0"/>
        <pt x="278" y="274" on="0"/>
        <pt x="214" y="309" on="0"/>
        <pt x="141" y="341" on="0"/>
        <pt x="77" y="389" on="0"/>
        <pt x="35" y="466" on="0"/>
      </contour>
      <contour>
        <pt x="190" y="760" on="1"/>
        <pt x="225" y="890" on="1"/>
        <pt x="320" y="890" on="1"/>
        <pt x="250" y="760" on="1"/>
      </contour>
    </TTGlyph>
    <TTGlyph name="Scaron" xMin="35" yMin="-10" xMax="410" yMax="890">
      <contour>
        <pt x="35" y="530" on="1"/>
        <pt x="35" y="621" on="0"/>
        <pt x="127" y="710" on="0"/>
        <pt x="225" y="710" on="1"/>
        <pt x="270" y="710" on="0"/>
        <pt x="352" y="698" on="0"/>
        <pt x="375" y="690" on="1"/>
        <pt x="375" y="645" on="1"/>
        <pt x="245" y="645" on="1"/>
        <pt x="125" y="645" on="0"/>
        <pt x="125" y="530" on="1"/>
        <pt x="125" y="484" on="0"/>
        <pt x="167" y="430" on="0"/>
        <pt x="231" y="393" on="0"/>
        <pt x="304" y="362" on="0"/>
        <pt x="368" y="315" on="0"/>
        <pt x="410" y="241" on="0"/>
        <pt x="410" y="180" on="1"/>
        <pt x="410" y="131" on="0"/>
        <pt x="386" y="60" on="0"/>
        <pt x="333" y="13" on="0"/>
        <pt x="247" y="-10" on="0"/>
        <pt x="185" y="-10" on="1"/>
        <pt x="140" y="-10" on="0"/>
        <pt x="58" y="2" on="0"/>
        <pt x="35" y="10" on="1"/>
        <pt x="35" y="55" on="1"/>
        <pt x="165" y="55" on="1"/>
        <pt x="251" y="55" on="0"/>
        <pt x="320" y="116" on="0"/>
        <pt x="320" y="180" on="1"/>
        <pt x="320" y="224" on="0"/>
        <pt x="278" y="274" on="0"/>
        <pt x="214" y="309" on="0"/>
        <pt x="141" y="341" on="0"/>
        <pt x="77" y="389" on="0"/>
        <pt x="35" y="466" on="0"/>
      </contour>
      <contour>
        <pt x="153" y="890" on="1"/>
        <pt x="215" y="816" on="1"/>
        <pt x="278" y="890" on="1"/>
        <pt x="338" y="890" on="1"/>
        <pt x="263" y="760" on="1"/>
        <pt x="168" y="760" on="1"/>
        <pt x="93" y="890" on="1"/>
      </contour>
    </TTGlyph>
    <TTGlyph name="Scedilla" xMin="35" yMin="-165" xMax="410" yMax="710">
      <contour>
        <pt x="250" y="-25" on="1"/>
        <pt x="292" y="-25" on="0"/>
        <pt x="335" y="-65" on="0"/>
        <pt x="335" y="-95" on="1"/>
        <pt x="335" y="-125" on="0"/>
        <pt x="289" y="-165" on="0"/>
        <pt x="240" y="-165" on="1"/>
        <pt x="223" y="-165" on="0"/>
        <pt x="196" y="-161" on="0"/>
        <pt x="186" y="-158" on="1"/>
        <pt x="175" y="-154" on="0"/>
        <pt x="165" y="-150" on="1"/>
        <pt x="165" y="-120" on="1"/>
        <pt x="230" y="-120" on="1"/>
        <pt x="253" y="-120" on="0"/>
        <pt x="270" y="-106" on="0"/>
        <pt x="270" y="-95" on="1"/>
        <pt x="270" y="-70" on="0"/>
        <pt x="240" y="-70" on="1"/>
        <pt x="185" y="-70" on="1"/>
        <pt x="185" y="-10" on="1"/>
        <pt x="140" y="-10" on="0"/>
        <pt x="58" y="2" on="0"/>
        <pt x="35" y="10" on="1"/>
        <pt x="35" y="55" on="1"/>
        <pt x="165" y="55" on="1"/>
        <pt x="251" y="55" on="0"/>
        <pt x="320" y="116" on="0"/>
        <pt x="320" y="180" on="1"/>
        <pt x="320" y="224" on="0"/>
        <pt x="278" y="274" on="0"/>
        <pt x="214" y="309" on="0"/>
        <pt x="141" y="341" on="0"/>
        <pt x="77" y="389" on="0"/>
        <pt x="35" y="466" on="0"/>
        <pt x="35" y="530" on="1"/>
        <pt x="35" y="621" on="0"/>
        <pt x="127" y="710" on="0"/>
        <pt x="225" y="710" on="1"/>
        <pt x="270" y="710" on="0"/>
        <pt x="352" y="698" on="0"/>
        <pt x="375" y="690" on="1"/>
        <pt x="375" y="645" on="1"/>
        <pt x="245" y="645" on="1"/>
        <pt x="125" y="645" on="0"/>
        <pt x="125" y="530" on="1"/>
        <pt x="125" y="484" on="0"/>
        <pt x="167" y="430" on="0"/>
        <pt x="231" y="393" on="0"/>
        <pt x="304" y="362" on="0"/>
        <pt x="368" y="315" on="0"/>
        <pt x="410" y="241" on="0"/>
        <pt x="410" y="180" on="1"/>
        <pt x="410" y="93" on="0"/>
        <pt x="330" y="1" on="0"/>
        <pt x="235" y="-7" on="1"/>
        <pt x="235" y="-25" on="1"/>
      </contour>
    </TTGlyph>
    <TTGlyph name="T" xMin="10" yMin="0" xMax="420" yMax="700">
      <contour>
        <pt x="10" y="700" on="1"/>
        <pt x="420" y="700" on="1"/>
        <pt x="420" y="630" on="1"/>
        <pt x="260" y="630" on="1"/>
        <pt x="260" y="0" on="1"/>
        <pt x="170" y="0" on="1"/>
        <pt x="170" y="630" on="1"/>
        <pt x="10" y="630" on="1"/>
      </contour>
    </TTGlyph>
    <TTGlyph name="Thorn" xMin="70" yMin="-10" xMax="460" yMax="710">
      <contour>
        <pt x="160" y="630" on="1"/>
        <pt x="315" y="622" on="0"/>
        <pt x="460" y="482" on="0"/>
        <pt x="460" y="350" on="1"/>
        <pt x="460" y="218" on="0"/>
        <pt x="315" y="78" on="0"/>
        <pt x="160" y="70" on="1"/>
        <pt x="160" y="-10" on="1"/>
        <pt x="70" y="-10" on="1"/>
        <pt x="70" y="710" on="1"/>
        <pt x="160" y="710" on="1"/>
      </contour>
      <contour>
        <pt x="160" y="135" on="1"/>
        <pt x="370" y="142" on="0"/>
        <pt x="370" y="350" on="1"/>
        <pt x="370" y="456" on="0"/>
        <pt x="266" y="561" on="0"/>
        <pt x="160" y="565" on="1"/>
      </contour>
    </TTGlyph>
    <TTGlyph name="U" xMin="60" yMin="-10" xMax="460" yMax="700">
      <contour>
        <pt x="260" y="50" on="1"/>
        <pt x="286" y="50" on="0"/>
        <pt x="327" y="67" on="0"/>
        <pt x="355" y="110" on="0"/>
        <pt x="370" y="184" on="0"/>
        <pt x="370" y="240" on="1"/>
        <pt x="370" y="700" on="1"/>
        <pt x="460" y="700" on="1"/>
        <pt x="460" y="240" on="1"/>
        <pt x="460" y="169" on="0"/>
        <pt x="437" y="73" on="0"/>
        <pt x="388" y="15" on="0"/>
        <pt x="312" y="-10" on="0"/>
        <pt x="260" y="-10" on="1"/>
        <pt x="207" y="-10" on="0"/>
        <pt x="132" y="15" on="0"/>
        <pt x="83" y="73" on="0"/>
        <pt x="60" y="169" on="0"/>
        <pt x="60" y="240" on="1"/>
        <pt x="60" y="700" on="1"/>
        <pt x="150" y="700" on="1"/>
        <pt x="150" y="240" on="1"/>
        <pt x="150" y="184" on="0"/>
        <pt x="165" y="110" on="0"/>
        <pt x="193" y="67" on="0"/>
        <pt x="234" y="50" on="0"/>
      </contour>
    </TTGlyph>
    <TTGlyph name="Uacute" xMin="60" yMin="-10" xMax="460" yMax="870">
      <contour>
        <pt x="260" y="50" on="1"/>
        <pt x="286" y="50" on="0"/>
        <pt x="327" y="67" on="0"/>
        <pt x="355" y="110" on="0"/>
        <pt x="370" y="184" on="0"/>
        <pt x="370" y="240" on="1"/>
        <pt x="370" y="700" on="1"/>
        <pt x="460" y="700" on="1"/>
        <pt x="460" y="240" on="1"/>
        <pt x="460" y="169" on="0"/>
        <pt x="437" y="73" on="0"/>
        <pt x="388" y="15" on="0"/>
        <pt x="312" y="-10" on="0"/>
        <pt x="260" y="-10" on="1"/>
        <pt x="207" y="-10" on="0"/>
        <pt x="132" y="15" on="0"/>
        <pt x="83" y="73" on="0"/>
        <pt x="60" y="169" on="0"/>
        <pt x="60" y="240" on="1"/>
        <pt x="60" y="700" on="1"/>
        <pt x="150" y="700" on="1"/>
        <pt x="150" y="240" on="1"/>
        <pt x="150" y="184" on="0"/>
        <pt x="165" y="110" on="0"/>
        <pt x="193" y="67" on="0"/>
        <pt x="234" y="50" on="0"/>
      </contour>
      <contour>
        <pt x="225" y="740" on="1"/>
        <pt x="260" y="870" on="1"/>
        <pt x="355" y="870" on="1"/>
        <pt x="285" y="740" on="1"/>
      </contour>
    </TTGlyph>
    <TTGlyph name="Ucircumflex" xMin="60" yMin="-10" xMax="460" yMax="870">
      <contour>
        <pt x="260" y="50" on="1"/>
        <pt x="286" y="50" on="0"/>
        <pt x="327" y="67" on="0"/>
        <pt x="355" y="110" on="0"/>
        <pt x="370" y="184" on="0"/>
        <pt x="370" y="240" on="1"/>
        <pt x="370" y="700" on="1"/>
        <pt x="460" y="700" on="1"/>
        <pt x="460" y="240" on="1"/>
        <pt x="460" y="169" on="0"/>
        <pt x="437" y="73" on="0"/>
        <pt x="388" y="15" on="0"/>
        <pt x="312" y="-10" on="0"/>
        <pt x="260" y="-10" on="1"/>
        <pt x="207" y="-10" on="0"/>
        <pt x="132" y="15" on="0"/>
        <pt x="83" y="73" on="0"/>
        <pt x="60" y="169" on="0"/>
        <pt x="60" y="240" on="1"/>
        <pt x="60" y="700" on="1"/>
        <pt x="150" y="700" on="1"/>
        <pt x="150" y="240" on="1"/>
        <pt x="150" y="184" on="0"/>
        <pt x="165" y="110" on="0"/>
        <pt x="193" y="67" on="0"/>
        <pt x="234" y="50" on="0"/>
      </contour>
      <contour>
        <pt x="138" y="740" on="1"/>
        <pt x="213" y="870" on="1"/>
        <pt x="308" y="870" on="1"/>
        <pt x="383" y="740" on="1"/>
        <pt x="323" y="740" on="1"/>
        <pt x="260" y="814" on="1"/>
        <pt x="198" y="740" on="1"/>
      </contour>
    </TTGlyph>
    <TTGlyph name="Udieresis" xMin="60" yMin="-10" xMax="460" yMax="860">
      <contour>
        <pt x="260" y="50" on="1"/>
        <pt x="286" y="50" on="0"/>
        <pt x="327" y="67" on="0"/>
        <pt x="355" y="110" on="0"/>
        <pt x="370" y="184" on="0"/>
        <pt x="370" y="240" on="1"/>
        <pt x="370" y="700" on="1"/>
        <pt x="460" y="700" on="1"/>
        <pt x="460" y="240" on="1"/>
        <pt x="460" y="169" on="0"/>
        <pt x="437" y="73" on="0"/>
        <pt x="388" y="15" on="0"/>
        <pt x="312" y="-10" on="0"/>
        <pt x="260" y="-10" on="1"/>
        <pt x="207" y="-10" on="0"/>
        <pt x="132" y="15" on="0"/>
        <pt x="83" y="73" on="0"/>
        <pt x="60" y="169" on="0"/>
        <pt x="60" y="240" on="1"/>
        <pt x="60" y="700" on="1"/>
        <pt x="150" y="700" on="1"/>
        <pt x="150" y="240" on="1"/>
        <pt x="150" y="184" on="0"/>
        <pt x="165" y="110" on="0"/>
        <pt x="193" y="67" on="0"/>
        <pt x="234" y="50" on="0"/>
      </contour>
      <contour>
        <pt x="225" y="860" on="1"/>
        <pt x="225" y="750" on="1"/>
        <pt x="135" y="750" on="1"/>
        <pt x="135" y="860" on="1"/>
      </contour>
      <contour>
        <pt x="385" y="860" on="1"/>
        <pt x="385" y="750" on="1"/>
        <pt x="295" y="750" on="1"/>
        <pt x="295" y="860" on="1"/>
      </contour>
    </TTGlyph>
    <TTGlyph name="Ugrave" xMin="60" yMin="-10" xMax="460" yMax="870">
      <contour>
        <pt x="260" y="50" on="1"/>
        <pt x="286" y="50" on="0"/>
        <pt x="327" y="67" on="0"/>
        <pt x="355" y="110" on="0"/>
        <pt x="370" y="184" on="0"/>
        <pt x="370" y="240" on="1"/>
        <pt x="370" y="700" on="1"/>
        <pt x="460" y="700" on="1"/>
        <pt x="460" y="240" on="1"/>
        <pt x="460" y="169" on="0"/>
        <pt x="437" y="73" on="0"/>
        <pt x="388" y="15" on="0"/>
        <pt x="312" y="-10" on="0"/>
        <pt x="260" y="-10" on="1"/>
        <pt x="207" y="-10" on="0"/>
        <pt x="132" y="15" on="0"/>
        <pt x="83" y="73" on="0"/>
        <pt x="60" y="169" on="0"/>
        <pt x="60" y="240" on="1"/>
        <pt x="60" y="700" on="1"/>
        <pt x="150" y="700" on="1"/>
        <pt x="150" y="240" on="1"/>
        <pt x="150" y="184" on="0"/>
        <pt x="165" y="110" on="0"/>
        <pt x="193" y="67" on="0"/>
        <pt x="234" y="50" on="0"/>
      </contour>
      <contour>
        <pt x="235" y="740" on="1"/>
        <pt x="165" y="870" on="1"/>
        <pt x="260" y="870" on="1"/>
        <pt x="295" y="740" on="1"/>
      </contour>
    </TTGlyph>
    <TTGlyph name="Umacron" xMin="60" yMin="-10" xMax="460" yMax="830">
      <contour>
        <pt x="260" y="50" on="1"/>
        <pt x="286" y="50" on="0"/>
        <pt x="327" y="67" on="0"/>
        <pt x="355" y="110" on="0"/>
        <pt x="370" y="184" on="0"/>
        <pt x="370" y="240" on="1"/>
        <pt x="370" y="700" on="1"/>
        <pt x="460" y="700" on="1"/>
        <pt x="460" y="240" on="1"/>
        <pt x="460" y="169" on="0"/>
        <pt x="437" y="73" on="0"/>
        <pt x="388" y="15" on="0"/>
        <pt x="312" y="-10" on="0"/>
        <pt x="260" y="-10" on="1"/>
        <pt x="207" y="-10" on="0"/>
        <pt x="132" y="15" on="0"/>
        <pt x="83" y="73" on="0"/>
        <pt x="60" y="169" on="0"/>
        <pt x="60" y="240" on="1"/>
        <pt x="60" y="700" on="1"/>
        <pt x="150" y="700" on="1"/>
        <pt x="150" y="240" on="1"/>
        <pt x="150" y="184" on="0"/>
        <pt x="165" y="110" on="0"/>
        <pt x="193" y="67" on="0"/>
        <pt x="234" y="50" on="0"/>
      </contour>
      <contour>
        <pt x="145" y="830" on="1"/>
        <pt x="375" y="830" on="1"/>
        <pt x="375" y="770" on="1"/>
        <pt x="145" y="770" on="1"/>
      </contour>
    </TTGlyph>
    <TTGlyph name="Uogonek" xMin="60" yMin="-160" xMax="460" yMax="700">
      <contour>
        <pt x="280" y="-45" on="1"/>
        <pt x="280" y="-79" on="0"/>
        <pt x="306" y="-104" on="0"/>
        <pt x="340" y="-104" on="1"/>
        <pt x="375" y="-104" on="1"/>
        <pt x="375" y="-145" on="1"/>
        <pt x="365" y="-149" on="0"/>
        <pt x="354" y="-153" on="1"/>
        <pt x="344" y="-156" on="0"/>
        <pt x="317" y="-160" on="0"/>
        <pt x="300" y="-160" on="1"/>
        <pt x="258" y="-160" on="0"/>
        <pt x="215" y="-118" on="0"/>
        <pt x="215" y="-80" on="1"/>
        <pt x="215" y="-56" on="0"/>
        <pt x="229" y="-19" on="0"/>
        <pt x="234" y="-9" on="1"/>
        <pt x="189" y="-6" on="0"/>
        <pt x="123" y="22" on="0"/>
        <pt x="80" y="80" on="0"/>
        <pt x="60" y="173" on="0"/>
        <pt x="60" y="240" on="1"/>
        <pt x="60" y="700" on="1"/>
        <pt x="150" y="700" on="1"/>
        <pt x="150" y="240" on="1"/>
        <pt x="150" y="184" on="0"/>
        <pt x="165" y="110" on="0"/>
        <pt x="193" y="67" on="0"/>
        <pt x="234" y="50" on="0"/>
        <pt x="260" y="50" on="1"/>
        <pt x="286" y="50" on="0"/>
        <pt x="327" y="67" on="0"/>
        <pt x="355" y="110" on="0"/>
        <pt x="370" y="184" on="0"/>
        <pt x="370" y="240" on="1"/>
        <pt x="370" y="700" on="1"/>
        <pt x="460" y="700" on="1"/>
        <pt x="460" y="240" on="1"/>
        <pt x="460" y="172" on="0"/>
        <pt x="439" y="79" on="0"/>
        <pt x="395" y="20" on="0"/>
        <pt x="327" y="-7" on="0"/>
        <pt x="280" y="-9" on="1"/>
      </contour>
    </TTGlyph>
    <TTGlyph name="V" xMin="20" yMin="0" xMax="470" yMax="700">
      <contour>
        <pt x="243" y="95" on="1"/>
        <pt x="247" y="95" on="1"/>
        <pt x="380" y="700" on="1"/>
        <pt x="470" y="700" on="1"/>
        <pt x="310" y="0" on="1"/>
        <pt x="180" y="0" on="1"/>
        <pt x="20" y="700" on="1"/>
        <pt x="110" y="700" on="1"/>
      </contour>
    </TTGlyph>
    <TTGlyph name="W" xMin="20" yMin="0" xMax="700" yMax="700">
      <contour>
        <pt x="405" y="570" on="1"/>
        <pt x="515" y="160" on="1"/>
        <pt x="520" y="160" on="1"/>
        <pt x="610" y="700" on="1"/>
        <pt x="700" y="700" on="1"/>
        <pt x="585" y="0" on="1"/>
        <pt x="475" y="0" on="1"/>
        <pt x="362" y="420" on="1"/>
        <pt x="358" y="420" on="1"/>
        <pt x="245" y="0" on="1"/>
        <pt x="135" y="0" on="1"/>
        <pt x="20" y="700" on="1"/>
        <pt x="110" y="700" on="1"/>
        <pt x="200" y="160" on="1"/>
        <pt x="205" y="160" on="1"/>
        <pt x="315" y="570" on="1"/>
      </contour>
    </TTGlyph>
    <TTGlyph name="X" xMin="15" yMin="0" xMax="445" yMax="700">
      <contour>
        <pt x="340" y="700" on="1"/>
        <pt x="430" y="700" on="1"/>
        <pt x="295" y="360" on="1"/>
        <pt x="445" y="0" on="1"/>
        <pt x="355" y="0" on="1"/>
        <pt x="230" y="300" on="1"/>
        <pt x="105" y="0" on="1"/>
        <pt x="15" y="0" on="1"/>
        <pt x="165" y="360" on="1"/>
        <pt x="30" y="700" on="1"/>
        <pt x="120" y="700" on="1"/>
        <pt x="230" y="420" on="1"/>
      </contour>
    </TTGlyph>
    <TTGlyph name="Y" xMin="10" yMin="0" xMax="440" yMax="700">
      <contour>
        <pt x="350" y="700" on="1"/>
        <pt x="440" y="700" on="1"/>
        <pt x="270" y="220" on="1"/>
        <pt x="270" y="0" on="1"/>
        <pt x="180" y="0" on="1"/>
        <pt x="180" y="220" on="1"/>
        <pt x="10" y="700" on="1"/>
        <pt x="100" y="700" on="1"/>
        <pt x="225" y="345" on="1"/>
      </contour>
    </TTGlyph>
    <TTGlyph name="Yacute" xMin="10" yMin="0" xMax="440" yMax="870">
      <contour>
        <pt x="190" y="740" on="1"/>
        <pt x="225" y="870" on="1"/>
        <pt x="320" y="870" on="1"/>
        <pt x="250" y="740" on="1"/>
      </contour>
      <contour>
        <pt x="350" y="700" on="1"/>
        <pt x="440" y="700" on="1"/>
        <pt x="270" y="220" on="1"/>
        <pt x="270" y="0" on="1"/>
        <pt x="180" y="0" on="1"/>
        <pt x="180" y="220" on="1"/>
        <pt x="10" y="700" on="1"/>
        <pt x="100" y="700" on="1"/>
        <pt x="225" y="345" on="1"/>
      </contour>
    </TTGlyph>
    <TTGlyph name="Ydieresis" xMin="10" yMin="0" xMax="440" yMax="880">
      <contour>
        <pt x="190" y="880" on="1"/>
        <pt x="190" y="770" on="1"/>
        <pt x="100" y="770" on="1"/>
        <pt x="100" y="880" on="1"/>
      </contour>
      <contour>
        <pt x="350" y="880" on="1"/>
        <pt x="350" y="770" on="1"/>
        <pt x="260" y="770" on="1"/>
        <pt x="260" y="880" on="1"/>
      </contour>
      <contour>
        <pt x="350" y="700" on="1"/>
        <pt x="440" y="700" on="1"/>
        <pt x="270" y="220" on="1"/>
        <pt x="270" y="0" on="1"/>
        <pt x="180" y="0" on="1"/>
        <pt x="180" y="220" on="1"/>
        <pt x="10" y="700" on="1"/>
        <pt x="100" y="700" on="1"/>
        <pt x="225" y="345" on="1"/>
      </contour>
    </TTGlyph>
    <TTGlyph name="Z" xMin="20" yMin="0" xMax="385" yMax="700">
      <contour>
        <pt x="125" y="70" on="1"/>
        <pt x="380" y="70" on="1"/>
        <pt x="380" y="0" on="1"/>
        <pt x="20" y="0" on="1"/>
        <pt x="20" y="65" on="1"/>
        <pt x="280" y="630" on="1"/>
        <pt x="25" y="630" on="1"/>
        <pt x="25" y="700" on="1"/>
        <pt x="385" y="700" on="1"/>
        <pt x="385" y="635" on="1"/>
      </contour>
    </TTGlyph>
    <TTGlyph name="Zacute" xMin="20" yMin="0" xMax="385" yMax="880">
      <contour>
        <pt x="125" y="70" on="1"/>
        <pt x="380" y="70" on="1"/>
        <pt x="380" y="0" on="1"/>
        <pt x="20" y="0" on="1"/>
        <pt x="20" y="65" on="1"/>
        <pt x="280" y="630" on="1"/>
        <pt x="25" y="630" on="1"/>
        <pt x="25" y="700" on="1"/>
        <pt x="385" y="700" on="1"/>
        <pt x="385" y="635" on="1"/>
      </contour>
      <contour>
        <pt x="170" y="750" on="1"/>
        <pt x="205" y="880" on="1"/>
        <pt x="300" y="880" on="1"/>
        <pt x="230" y="750" on="1"/>
      </contour>
    </TTGlyph>
    <TTGlyph name="Zcaron" xMin="20" yMin="0" xMax="385" yMax="890">
      <contour>
        <pt x="125" y="70" on="1"/>
        <pt x="380" y="70" on="1"/>
        <pt x="380" y="0" on="1"/>
        <pt x="20" y="0" on="1"/>
        <pt x="20" y="65" on="1"/>
        <pt x="280" y="630" on="1"/>
        <pt x="25" y="630" on="1"/>
        <pt x="25" y="700" on="1"/>
        <pt x="385" y="700" on="1"/>
        <pt x="385" y="635" on="1"/>
      </contour>
      <contour>
        <pt x="153" y="890" on="1"/>
        <pt x="215" y="816" on="1"/>
        <pt x="278" y="890" on="1"/>
        <pt x="338" y="890" on="1"/>
        <pt x="263" y="760" on="1"/>
        <pt x="168" y="760" on="1"/>
        <pt x="93" y="890" on="1"/>
      </contour>
    </TTGlyph>
    <TTGlyph name="Zdotaccent" xMin="20" yMin="0" xMax="385" yMax="880">
      <contour>
        <pt x="125" y="70" on="1"/>
        <pt x="380" y="70" on="1"/>
        <pt x="380" y="0" on="1"/>
        <pt x="20" y="0" on="1"/>
        <pt x="20" y="65" on="1"/>
        <pt x="280" y="630" on="1"/>
        <pt x="25" y="630" on="1"/>
        <pt x="25" y="700" on="1"/>
        <pt x="385" y="700" on="1"/>
        <pt x="385" y="635" on="1"/>
      </contour>
      <contour>
        <pt x="250" y="880" on="1"/>
        <pt x="250" y="770" on="1"/>
        <pt x="160" y="770" on="1"/>
        <pt x="160" y="880" on="1"/>
      </contour>
    </TTGlyph>
    <TTGlyph name="a" xMin="45" yMin="-10" xMax="385" yMax="510">
      <contour>
        <pt x="295" y="245" on="1"/>
        <pt x="225" y="245" on="1"/>
        <pt x="187" y="245" on="0"/>
        <pt x="135" y="206" on="0"/>
        <pt x="135" y="150" on="1"/>
        <pt x="135" y="120" on="0"/>
        <pt x="149" y="81" on="0"/>
        <pt x="173" y="59" on="0"/>
        <pt x="206" y="50" on="0"/>
        <pt x="225" y="50" on="1"/>
        <pt x="244" y="50" on="0"/>
        <pt x="284" y="62" on="0"/>
        <pt x="295" y="70" on="1"/>
      </contour>
      <contour>
        <pt x="195" y="-10" on="1"/>
        <pt x="161" y="-10" on="0"/>
        <pt x="106" y="3" on="0"/>
        <pt x="67" y="39" on="0"/>
        <pt x="45" y="101" on="0"/>
        <pt x="45" y="150" on="1"/>
        <pt x="45" y="197" on="0"/>
        <pt x="67" y="257" on="0"/>
        <pt x="106" y="292" on="0"/>
        <pt x="161" y="305" on="0"/>
        <pt x="195" y="305" on="1"/>
        <pt x="218" y="305" on="0"/>
        <pt x="272" y="299" on="0"/>
        <pt x="295" y="295" on="1"/>
        <pt x="295" y="340" on="1"/>
        <pt x="295" y="374" on="0"/>
        <pt x="280" y="417" on="0"/>
        <pt x="252" y="441" on="0"/>
        <pt x="211" y="450" on="0"/>
        <pt x="185" y="450" on="1"/>
        <pt x="85" y="450" on="1"/>
        <pt x="85" y="490" on="1"/>
        <pt x="108" y="498" on="0"/>
        <pt x="175" y="510" on="0"/>
        <pt x="205" y="510" on="1"/>
        <pt x="250" y="510" on="0"/>
        <pt x="317" y="496" on="0"/>
        <pt x="362" y="459" on="0"/>
        <pt x="385" y="392" on="0"/>
        <pt x="385" y="340" on="1"/>
        <pt x="385" y="0" on="1"/>
        <pt x="310" y="0" on="1"/>
        <pt x="305" y="30" on="1"/>
        <pt x="300" y="30" on="1"/>
        <pt x="281" y="11" on="0"/>
        <pt x="225" y="-10" on="0"/>
      </contour>
    </TTGlyph>
    <TTGlyph name="aacute" xMin="45" yMin="-10" xMax="385" yMax="690">
      <contour>
        <pt x="195" y="560" on="1"/>
        <pt x="230" y="690" on="1"/>
        <pt x="325" y="690" on="1"/>
        <pt x="255" y="560" on="1"/>
      </contour>
      <contour>
        <pt x="295" y="245" on="1"/>
        <pt x="225" y="245" on="1"/>
        <pt x="187" y="245" on="0"/>
        <pt x="135" y="206" on="0"/>
        <pt x="135" y="150" on="1"/>
        <pt x="135" y="120" on="0"/>
        <pt x="149" y="81" on="0"/>
        <pt x="173" y="59" on="0"/>
        <pt x="206" y="50" on="0"/>
        <pt x="225" y="50" on="1"/>
        <pt x="244" y="50" on="0"/>
        <pt x="284" y="62" on="0"/>
        <pt x="295" y="70" on="1"/>
      </contour>
      <contour>
        <pt x="195" y="-10" on="1"/>
        <pt x="161" y="-10" on="0"/>
        <pt x="106" y="3" on="0"/>
        <pt x="67" y="39" on="0"/>
        <pt x="45" y="101" on="0"/>
        <pt x="45" y="150" on="1"/>
        <pt x="45" y="197" on="0"/>
        <pt x="67" y="257" on="0"/>
        <pt x="106" y="292" on="0"/>
        <pt x="161" y="305" on="0"/>
        <pt x="195" y="305" on="1"/>
        <pt x="218" y="305" on="0"/>
        <pt x="272" y="299" on="0"/>
        <pt x="295" y="295" on="1"/>
        <pt x="295" y="340" on="1"/>
        <pt x="295" y="374" on="0"/>
        <pt x="280" y="417" on="0"/>
        <pt x="252" y="441" on="0"/>
        <pt x="211" y="450" on="0"/>
        <pt x="185" y="450" on="1"/>
        <pt x="85" y="450" on="1"/>
        <pt x="85" y="490" on="1"/>
        <pt x="108" y="498" on="0"/>
        <pt x="175" y="510" on="0"/>
        <pt x="205" y="510" on="1"/>
        <pt x="250" y="510" on="0"/>
        <pt x="317" y="496" on="0"/>
        <pt x="362" y="459" on="0"/>
        <pt x="385" y="392" on="0"/>
        <pt x="385" y="340" on="1"/>
        <pt x="385" y="0" on="1"/>
        <pt x="310" y="0" on="1"/>
        <pt x="305" y="30" on="1"/>
        <pt x="300" y="30" on="1"/>
        <pt x="281" y="11" on="0"/>
        <pt x="225" y="-10" on="0"/>
      </contour>
    </TTGlyph>
    <TTGlyph name="acircumflex" xMin="45" yMin="-10" xMax="385" yMax="680">
      <contour>
        <pt x="110" y="550" on="1"/>
        <pt x="185" y="680" on="1"/>
        <pt x="280" y="680" on="1"/>
        <pt x="355" y="550" on="1"/>
        <pt x="295" y="550" on="1"/>
        <pt x="232" y="624" on="1"/>
        <pt x="170" y="550" on="1"/>
      </contour>
      <contour>
        <pt x="295" y="245" on="1"/>
        <pt x="225" y="245" on="1"/>
        <pt x="187" y="245" on="0"/>
        <pt x="135" y="206" on="0"/>
        <pt x="135" y="150" on="1"/>
        <pt x="135" y="120" on="0"/>
        <pt x="149" y="81" on="0"/>
        <pt x="173" y="59" on="0"/>
        <pt x="206" y="50" on="0"/>
        <pt x="225" y="50" on="1"/>
        <pt x="244" y="50" on="0"/>
        <pt x="284" y="62" on="0"/>
        <pt x="295" y="70" on="1"/>
      </contour>
      <contour>
        <pt x="195" y="-10" on="1"/>
        <pt x="161" y="-10" on="0"/>
        <pt x="106" y="3" on="0"/>
        <pt x="67" y="39" on="0"/>
        <pt x="45" y="101" on="0"/>
        <pt x="45" y="150" on="1"/>
        <pt x="45" y="197" on="0"/>
        <pt x="67" y="257" on="0"/>
        <pt x="106" y="292" on="0"/>
        <pt x="161" y="305" on="0"/>
        <pt x="195" y="305" on="1"/>
        <pt x="218" y="305" on="0"/>
        <pt x="272" y="299" on="0"/>
        <pt x="295" y="295" on="1"/>
        <pt x="295" y="340" on="1"/>
        <pt x="295" y="374" on="0"/>
        <pt x="280" y="417" on="0"/>
        <pt x="252" y="441" on="0"/>
        <pt x="211" y="450" on="0"/>
        <pt x="185" y="450" on="1"/>
        <pt x="85" y="450" on="1"/>
        <pt x="85" y="490" on="1"/>
        <pt x="108" y="498" on="0"/>
        <pt x="175" y="510" on="0"/>
        <pt x="205" y="510" on="1"/>
        <pt x="250" y="510" on="0"/>
        <pt x="317" y="496" on="0"/>
        <pt x="362" y="459" on="0"/>
        <pt x="385" y="392" on="0"/>
        <pt x="385" y="340" on="1"/>
        <pt x="385" y="0" on="1"/>
        <pt x="310" y="0" on="1"/>
        <pt x="305" y="30" on="1"/>
        <pt x="300" y="30" on="1"/>
        <pt x="281" y="11" on="0"/>
        <pt x="225" y="-10" on="0"/>
      </contour>
    </TTGlyph>
    <TTGlyph name="acute" xMin="20" yMin="560" xMax="150" yMax="690">
      <contour>
        <pt x="20" y="560" on="1"/>
        <pt x="55" y="690" on="1"/>
        <pt x="150" y="690" on="1"/>
        <pt x="80" y="560" on="1"/>
      </contour>
    </TTGlyph>
    <TTGlyph name="adieresis" xMin="45" yMin="-10" xMax="385" yMax="680">
      <contour>
        <pt x="195" y="680" on="1"/>
        <pt x="195" y="570" on="1"/>
        <pt x="105" y="570" on="1"/>
        <pt x="105" y="680" on="1"/>
      </contour>
      <contour>
        <pt x="355" y="680" on="1"/>
        <pt x="355" y="570" on="1"/>
        <pt x="265" y="570" on="1"/>
        <pt x="265" y="680" on="1"/>
      </contour>
      <contour>
        <pt x="295" y="245" on="1"/>
        <pt x="225" y="245" on="1"/>
        <pt x="187" y="245" on="0"/>
        <pt x="135" y="206" on="0"/>
        <pt x="135" y="150" on="1"/>
        <pt x="135" y="120" on="0"/>
        <pt x="149" y="81" on="0"/>
        <pt x="173" y="59" on="0"/>
        <pt x="206" y="50" on="0"/>
        <pt x="225" y="50" on="1"/>
        <pt x="244" y="50" on="0"/>
        <pt x="284" y="62" on="0"/>
        <pt x="295" y="70" on="1"/>
      </contour>
      <contour>
        <pt x="195" y="-10" on="1"/>
        <pt x="161" y="-10" on="0"/>
        <pt x="106" y="3" on="0"/>
        <pt x="67" y="39" on="0"/>
        <pt x="45" y="101" on="0"/>
        <pt x="45" y="150" on="1"/>
        <pt x="45" y="197" on="0"/>
        <pt x="67" y="257" on="0"/>
        <pt x="106" y="292" on="0"/>
        <pt x="161" y="305" on="0"/>
        <pt x="195" y="305" on="1"/>
        <pt x="218" y="305" on="0"/>
        <pt x="272" y="299" on="0"/>
        <pt x="295" y="295" on="1"/>
        <pt x="295" y="340" on="1"/>
        <pt x="295" y="374" on="0"/>
        <pt x="280" y="417" on="0"/>
        <pt x="252" y="441" on="0"/>
        <pt x="211" y="450" on="0"/>
        <pt x="185" y="450" on="1"/>
        <pt x="85" y="450" on="1"/>
        <pt x="85" y="490" on="1"/>
        <pt x="108" y="498" on="0"/>
        <pt x="175" y="510" on="0"/>
        <pt x="205" y="510" on="1"/>
        <pt x="250" y="510" on="0"/>
        <pt x="317" y="496" on="0"/>
        <pt x="362" y="459" on="0"/>
        <pt x="385" y="392" on="0"/>
        <pt x="385" y="340" on="1"/>
        <pt x="385" y="0" on="1"/>
        <pt x="310" y="0" on="1"/>
        <pt x="305" y="30" on="1"/>
        <pt x="300" y="30" on="1"/>
        <pt x="281" y="11" on="0"/>
        <pt x="225" y="-10" on="0"/>
      </contour>
    </TTGlyph>
    <TTGlyph name="ae" xMin="45" yMin="-10" xMax="645" yMax="510">
      <contour>
        <pt x="295" y="225" on="1"/>
        <pt x="225" y="225" on="1"/>
        <pt x="206" y="225" on="0"/>
        <pt x="173" y="217" on="0"/>
        <pt x="149" y="197" on="0"/>
        <pt x="135" y="164" on="0"/>
        <pt x="135" y="140" on="1"/>
        <pt x="135" y="114" on="0"/>
        <pt x="149" y="79" on="0"/>
        <pt x="171" y="58" on="0"/>
        <pt x="200" y="50" on="0"/>
        <pt x="215" y="50" on="1"/>
        <pt x="234" y="50" on="0"/>
        <pt x="263" y="59" on="0"/>
        <pt x="274" y="65" on="1"/>
        <pt x="286" y="71" on="0"/>
        <pt x="295" y="80" on="1"/>
      </contour>
      <contour>
        <pt x="555" y="285" on="1"/>
        <pt x="555" y="334" on="0"/>
        <pt x="541" y="399" on="0"/>
        <pt x="518" y="438" on="0"/>
        <pt x="487" y="455" on="0"/>
        <pt x="470" y="455" on="1"/>
        <pt x="453" y="455" on="0"/>
        <pt x="423" y="439" on="0"/>
        <pt x="400" y="401" on="0"/>
        <pt x="386" y="338" on="0"/>
        <pt x="385" y="290" on="1"/>
        <pt x="385" y="285" on="1"/>
      </contour>
      <contour>
        <pt x="295" y="340" on="1"/>
        <pt x="295" y="374" on="0"/>
        <pt x="280" y="417" on="0"/>
        <pt x="252" y="441" on="0"/>
        <pt x="211" y="450" on="0"/>
        <pt x="185" y="450" on="1"/>
        <pt x="85" y="450" on="1"/>
        <pt x="85" y="490" on="1"/>
        <pt x="108" y="498" on="0"/>
        <pt x="175" y="510" on="0"/>
        <pt x="205" y="510" on="1"/>
        <pt x="250" y="510" on="0"/>
        <pt x="326" y="474" on="0"/>
        <pt x="345" y="440" on="1"/>
        <pt x="364" y="474" on="0"/>
        <pt x="428" y="510" on="0"/>
        <pt x="470" y="510" on="1"/>
        <pt x="513" y="510" on="0"/>
        <pt x="579" y="485" on="0"/>
        <pt x="623" y="426" on="0"/>
        <pt x="645" y="328" on="0"/>
        <pt x="645" y="255" on="1"/>
        <pt x="645" y="225" on="1"/>
        <pt x="385" y="225" on="1"/>
        <pt x="385" y="210" on="1"/>
        <pt x="386" y="164" on="0"/>
        <pt x="402" y="103" on="0"/>
        <pt x="436" y="66" on="0"/>
        <pt x="488" y="50" on="0"/>
        <pt x="525" y="50" on="1"/>
        <pt x="625" y="50" on="1"/>
        <pt x="625" y="10" on="1"/>
        <pt x="602" y="2" on="0"/>
        <pt x="535" y="-10" on="0"/>
        <pt x="505" y="-10" on="1"/>
        <pt x="445" y="-10" on="0"/>
        <pt x="371" y="22" on="0"/>
        <pt x="345" y="60" on="1"/>
        <pt x="322" y="26" on="0"/>
        <pt x="248" y="-10" on="0"/>
        <pt x="195" y="-10" on="1"/>
        <pt x="161" y="-10" on="0"/>
        <pt x="106" y="3" on="0"/>
        <pt x="67" y="37" on="0"/>
        <pt x="45" y="95" on="0"/>
        <pt x="45" y="140" on="1"/>
        <pt x="45" y="183" on="0"/>
        <pt x="67" y="239" on="0"/>
        <pt x="106" y="272" on="0"/>
        <pt x="161" y="285" on="0"/>
        <pt x="195" y="285" on="1"/>
        <pt x="218" y="285" on="0"/>
        <pt x="272" y="279" on="0"/>
        <pt x="295" y="275" on="1"/>
      </contour>
    </TTGlyph>
    <TTGlyph name="afii10017" xMin="20" yMin="0" xMax="490" yMax="700">
      <contour>
        <pt x="155" y="180" on="1"/>
        <pt x="110" y="0" on="1"/>
        <pt x="20" y="0" on="1"/>
        <pt x="190" y="700" on="1"/>
        <pt x="320" y="700" on="1"/>
        <pt x="490" y="0" on="1"/>
        <pt x="400" y="0" on="1"/>
        <pt x="355" y="180" on="1"/>
      </contour>
      <contour>
        <pt x="257" y="600" on="1"/>
        <pt x="253" y="600" on="1"/>
        <pt x="170" y="250" on="1"/>
        <pt x="340" y="250" on="1"/>
      </contour>
    </TTGlyph>
    <TTGlyph name="afii10018" xMin="70" yMin="-10" xMax="450" yMax="700">
      <contour>
        <pt x="160" y="425" on="1"/>
        <pt x="230" y="425" on="1"/>
        <pt x="290" y="425" on="0"/>
        <pt x="374" y="401" on="0"/>
        <pt x="426" y="349" on="0"/>
        <pt x="450" y="265" on="0"/>
        <pt x="450" y="205" on="1"/>
        <pt x="450" y="147" on="0"/>
        <pt x="426" y="65" on="0"/>
        <pt x="374" y="14" on="0"/>
        <pt x="290" y="-10" on="0"/>
        <pt x="230" y="-10" on="1"/>
        <pt x="185" y="-10" on="0"/>
        <pt x="108" y="-1" on="0"/>
        <pt x="70" y="10" on="1"/>
        <pt x="70" y="700" on="1"/>
        <pt x="420" y="700" on="1"/>
        <pt x="420" y="630" on="1"/>
        <pt x="160" y="630" on="1"/>
      </contour>
      <contour>
        <pt x="160" y="355" on="1"/>
        <pt x="160" y="55" on="1"/>
        <pt x="230" y="55" on="1"/>
        <pt x="298" y="55" on="0"/>
        <pt x="360" y="122" on="0"/>
        <pt x="360" y="205" on="1"/>
        <pt x="360" y="288" on="0"/>
        <pt x="298" y="355" on="0"/>
        <pt x="230" y="355" on="1"/>
      </contour>
    </TTGlyph>
    <TTGlyph name="afii10019" xMin="70" yMin="-10" xMax="460" yMax="710">
      <contour>
        <pt x="350" y="373" on="1"/>
        <pt x="410" y="356" on="0"/>
        <pt x="460" y="258" on="0"/>
        <pt x="460" y="190" on="1"/>
        <pt x="460" y="137" on="0"/>
        <pt x="436" y="62" on="0"/>
        <pt x="382" y="13" on="0"/>
        <pt x="294" y="-10" on="0"/>
        <pt x="230" y="-10" on="1"/>
        <pt x="185" y="-10" on="0"/>
        <pt x="108" y="-1" on="0"/>
        <pt x="70" y="10" on="1"/>
        <pt x="70" y="690" on="1"/>
        <pt x="108" y="701" on="0"/>
        <pt x="185" y="710" on="0"/>
        <pt x="230" y="710" on="1"/>
        <pt x="336" y="710" on="0"/>
        <pt x="430" y="619" on="0"/>
        <pt x="430" y="525" on="1"/>
        <pt x="430" y="480" on="0"/>
        <pt x="395" y="402" on="0"/>
        <pt x="350" y="377" on="1"/>
      </contour>
      <contour>
        <pt x="160" y="335" on="1"/>
        <pt x="160" y="55" on="1"/>
        <pt x="230" y="55" on="1"/>
        <pt x="305" y="55" on="0"/>
        <pt x="370" y="118" on="0"/>
        <pt x="370" y="190" on="1"/>
        <pt x="370" y="269" on="0"/>
        <pt x="305" y="335" on="0"/>
        <pt x="230" y="335" on="1"/>
      </contour>
      <contour>
        <pt x="220" y="400" on="1"/>
        <pt x="340" y="400" on="0"/>
        <pt x="340" y="525" on="1"/>
        <pt x="340" y="645" on="0"/>
        <pt x="220" y="645" on="1"/>
        <pt x="160" y="645" on="1"/>
        <pt x="160" y="400" on="1"/>
      </contour>
    </TTGlyph>
    <TTGlyph name="afii10020" xMin="70" yMin="0" xMax="390" yMax="700">
      <contour>
        <pt x="70" y="700" on="1"/>
        <pt x="390" y="700" on="1"/>
        <pt x="390" y="630" on="1"/>
        <pt x="160" y="630" on="1"/>
        <pt x="160" y="0" on="1"/>
        <pt x="70" y="0" on="1"/>
      </contour>
    </TTGlyph>
    <TTGlyph name="afii10021" xMin="10" yMin="-150" xMax="520" yMax="700">
      <contour>
        <pt x="365" y="70" on="1"/>
        <pt x="365" y="630" on="1"/>
        <pt x="217" y="630" on="1"/>
        <pt x="200" y="275" on="1"/>
        <pt x="198" y="224" on="0"/>
        <pt x="182" y="148" on="0"/>
        <pt x="173" y="122" on="1"/>
        <pt x="162" y="92" on="0"/>
        <pt x="150" y="70" on="1"/>
      </contour>
      <contour>
        <pt x="95" y="0" on="1"/>
        <pt x="87" y="-90" on="0"/>
        <pt x="65" y="-150" on="1"/>
        <pt x="10" y="-150" on="1"/>
        <pt x="10" y="70" on="1"/>
        <pt x="60" y="70" on="1"/>
        <pt x="72" y="92" on="0"/>
        <pt x="83" y="122" on="1"/>
        <pt x="92" y="148" on="0"/>
        <pt x="108" y="224" on="0"/>
        <pt x="110" y="275" on="1"/>
        <pt x="130" y="700" on="1"/>
        <pt x="455" y="700" on="1"/>
        <pt x="455" y="70" on="1"/>
        <pt x="520" y="70" on="1"/>
        <pt x="520" y="-150" on="1"/>
        <pt x="465" y="-150" on="1"/>
        <pt x="442" y="-90" on="0"/>
        <pt x="435" y="0" on="1"/>
      </contour>
    </TTGlyph>
    <TTGlyph name="afii10022" xMin="70" yMin="0" xMax="410" yMax="700">
      <contour>
        <pt x="160" y="70" on="1"/>
        <pt x="410" y="70" on="1"/>
        <pt x="410" y="0" on="1"/>
        <pt x="70" y="0" on="1"/>
        <pt x="70" y="700" on="1"/>
        <pt x="410" y="700" on="1"/>
        <pt x="410" y="630" on="1"/>
        <pt x="160" y="630" on="1"/>
        <pt x="160" y="400" on="1"/>
        <pt x="380" y="400" on="1"/>
        <pt x="380" y="330" on="1"/>
        <pt x="160" y="330" on="1"/>
      </contour>
    </TTGlyph>
    <TTGlyph name="afii10023" xMin="70" yMin="0" xMax="410" yMax="880">
      <contour>
        <pt x="160" y="70" on="1"/>
        <pt x="410" y="70" on="1"/>
        <pt x="410" y="0" on="1"/>
        <pt x="70" y="0" on="1"/>
        <pt x="70" y="700" on="1"/>
        <pt x="410" y="700" on="1"/>
        <pt x="410" y="630" on="1"/>
        <pt x="160" y="630" on="1"/>
        <pt x="160" y="400" on="1"/>
        <pt x="380" y="400" on="1"/>
        <pt x="380" y="330" on="1"/>
        <pt x="160" y="330" on="1"/>
      </contour>
      <contour>
        <pt x="200" y="880" on="1"/>
        <pt x="200" y="770" on="1"/>
        <pt x="110" y="770" on="1"/>
        <pt x="110" y="880" on="1"/>
      </contour>
      <contour>
        <pt x="360" y="880" on="1"/>
        <pt x="360" y="770" on="1"/>
        <pt x="270" y="770" on="1"/>
        <pt x="270" y="880" on="1"/>
      </contour>
    </TTGlyph>
    <TTGlyph name="afii10024" xMin="5" yMin="-10" xMax="735" yMax="710">
      <contour>
        <pt x="210" y="367" on="1"/>
        <pt x="193" y="372" on="0"/>
        <pt x="167" y="388" on="0"/>
        <pt x="145" y="416" on="0"/>
        <pt x="128" y="459" on="0"/>
        <pt x="120" y="490" on="1"/>
        <pt x="95" y="590" on="1"/>
        <pt x="87" y="620" on="0"/>
        <pt x="53" y="655" on="0"/>
        <pt x="15" y="655" on="1"/>
        <pt x="15" y="700" on="1"/>
        <pt x="22" y="702" on="0"/>
        <pt x="32" y="705" on="1"/>
        <pt x="40" y="707" on="0"/>
        <pt x="61" y="710" on="0"/>
        <pt x="75" y="710" on="1"/>
        <pt x="160" y="710" on="0"/>
        <pt x="190" y="590" on="1"/>
        <pt x="215" y="490" on="1"/>
        <pt x="228" y="438" on="0"/>
        <pt x="274" y="400" on="0"/>
        <pt x="300" y="400" on="1"/>
        <pt x="325" y="400" on="1"/>
        <pt x="325" y="700" on="1"/>
        <pt x="415" y="700" on="1"/>
        <pt x="415" y="400" on="1"/>
        <pt x="440" y="400" on="1"/>
        <pt x="466" y="400" on="0"/>
        <pt x="512" y="438" on="0"/>
        <pt x="525" y="490" on="1"/>
        <pt x="550" y="590" on="1"/>
        <pt x="580" y="710" on="0"/>
        <pt x="665" y="710" on="1"/>
        <pt x="678" y="710" on="0"/>
        <pt x="700" y="707" on="0"/>
        <pt x="708" y="705" on="1"/>
        <pt x="718" y="702" on="0"/>
        <pt x="725" y="700" on="1"/>
        <pt x="725" y="655" on="1"/>
        <pt x="687" y="655" on="0"/>
        <pt x="653" y="620" on="0"/>
        <pt x="645" y="590" on="1"/>
        <pt x="620" y="490" on="1"/>
        <pt x="612" y="459" on="0"/>
        <pt x="595" y="416" on="0"/>
        <pt x="573" y="388" on="0"/>
        <pt x="547" y="372" on="0"/>
        <pt x="530" y="367" on="1"/>
        <pt x="530" y="363" on="1"/>
        <pt x="549" y="358" on="0"/>
        <pt x="580" y="342" on="0"/>
        <pt x="605" y="314" on="0"/>
        <pt x="624" y="271" on="0"/>
        <pt x="630" y="240" on="1"/>
        <pt x="655" y="110" on="1"/>
        <pt x="660" y="84" on="0"/>
        <pt x="697" y="45" on="0"/>
        <pt x="735" y="45" on="1"/>
        <pt x="735" y="0" on="1"/>
        <pt x="728" y="-3" on="0"/>
        <pt x="718" y="-5" on="1"/>
        <pt x="700" y="-10" on="0"/>
        <pt x="675" y="-10" on="1"/>
        <pt x="630" y="-10" on="0"/>
        <pt x="571" y="50" on="0"/>
        <pt x="560" y="110" on="1"/>
        <pt x="535" y="240" on="1"/>
        <pt x="525" y="293" on="0"/>
        <pt x="474" y="330" on="0"/>
        <pt x="440" y="330" on="1"/>
        <pt x="415" y="330" on="1"/>
        <pt x="415" y="0" on="1"/>
        <pt x="325" y="0" on="1"/>
        <pt x="325" y="330" on="1"/>
        <pt x="300" y="330" on="1"/>
        <pt x="266" y="330" on="0"/>
        <pt x="215" y="293" on="0"/>
        <pt x="205" y="240" on="1"/>
        <pt x="180" y="110" on="1"/>
        <pt x="157" y="-10" on="0"/>
        <pt x="65" y="-10" on="1"/>
        <pt x="40" y="-10" on="0"/>
        <pt x="22" y="-5" on="1"/>
        <pt x="12" y="-3" on="0"/>
        <pt x="5" y="0" on="1"/>
        <pt x="5" y="45" on="1"/>
        <pt x="43" y="45" on="0"/>
        <pt x="80" y="84" on="0"/>
        <pt x="85" y="110" on="1"/>
        <pt x="110" y="240" on="1"/>
        <pt x="116" y="271" on="0"/>
        <pt x="135" y="314" on="0"/>
        <pt x="160" y="342" on="0"/>
        <pt x="191" y="358" on="0"/>
        <pt x="210" y="363" on="1"/>
      </contour>
    </TTGlyph>
    <TTGlyph name="afii10025" xMin="15" yMin="-10" xMax="385" yMax="710">
      <contour>
        <pt x="155" y="55" on="1"/>
        <pt x="230" y="55" on="0"/>
        <pt x="295" y="118" on="0"/>
        <pt x="295" y="190" on="1"/>
        <pt x="295" y="265" on="0"/>
        <pt x="230" y="330" on="0"/>
        <pt x="155" y="330" on="1"/>
        <pt x="85" y="330" on="1"/>
        <pt x="85" y="400" on="1"/>
        <pt x="145" y="400" on="1"/>
        <pt x="213" y="400" on="0"/>
        <pt x="275" y="461" on="0"/>
        <pt x="275" y="525" on="1"/>
        <pt x="275" y="585" on="0"/>
        <pt x="213" y="645" on="0"/>
        <pt x="145" y="645" on="1"/>
        <pt x="25" y="645" on="1"/>
        <pt x="25" y="690" on="1"/>
        <pt x="36" y="694" on="0"/>
        <pt x="68" y="701" on="0"/>
        <pt x="104" y="707" on="0"/>
        <pt x="140" y="710" on="0"/>
        <pt x="155" y="710" on="1"/>
        <pt x="268" y="710" on="0"/>
        <pt x="365" y="619" on="0"/>
        <pt x="365" y="525" on="1"/>
        <pt x="365" y="465" on="0"/>
        <pt x="320" y="393" on="0"/>
        <pt x="275" y="372" on="1"/>
        <pt x="275" y="368" on="1"/>
        <pt x="335" y="351" on="0"/>
        <pt x="385" y="254" on="0"/>
        <pt x="385" y="190" on="1"/>
        <pt x="385" y="137" on="0"/>
        <pt x="361" y="62" on="0"/>
        <pt x="307" y="13" on="0"/>
        <pt x="219" y="-10" on="0"/>
        <pt x="155" y="-10" on="1"/>
        <pt x="117" y="-10" on="0"/>
        <pt x="38" y="2" on="0"/>
        <pt x="15" y="10" on="1"/>
        <pt x="15" y="55" on="1"/>
      </contour>
    </TTGlyph>
    <TTGlyph name="afii10026" xMin="70" yMin="0" xMax="470" yMax="700">
      <contour>
        <pt x="380" y="520" on="1"/>
        <pt x="375" y="520" on="1"/>
        <pt x="170" y="0" on="1"/>
        <pt x="70" y="0" on="1"/>
        <pt x="70" y="700" on="1"/>
        <pt x="160" y="700" on="1"/>
        <pt x="160" y="180" on="1"/>
        <pt x="165" y="180" on="1"/>
        <pt x="365" y="700" on="1"/>
        <pt x="470" y="700" on="1"/>
        <pt x="470" y="0" on="1"/>
        <pt x="380" y="0" on="1"/>
      </contour>
    </TTGlyph>
    <TTGlyph name="afii10027" xMin="70" yMin="0" xMax="470" yMax="875">
      <contour>
        <pt x="380" y="520" on="1"/>
        <pt x="375" y="520" on="1"/>
        <pt x="170" y="0" on="1"/>
        <pt x="70" y="0" on="1"/>
        <pt x="70" y="700" on="1"/>
        <pt x="160" y="700" on="1"/>
        <pt x="160" y="180" on="1"/>
        <pt x="165" y="180" on="1"/>
        <pt x="365" y="700" on="1"/>
        <pt x="470" y="700" on="1"/>
        <pt x="470" y="0" on="1"/>
        <pt x="380" y="0" on="1"/>
      </contour>
      <contour>
        <pt x="270" y="830" on="1"/>
        <pt x="304" y="830" on="0"/>
        <pt x="355" y="860" on="0"/>
        <pt x="370" y="875" on="1"/>
        <pt x="410" y="835" on="1"/>
        <pt x="391" y="801" on="0"/>
        <pt x="319" y="760" on="0"/>
        <pt x="270" y="760" on="1"/>
        <pt x="221" y="760" on="0"/>
        <pt x="149" y="801" on="0"/>
        <pt x="130" y="835" on="1"/>
        <pt x="170" y="875" on="1"/>
        <pt x="185" y="860" on="0"/>
        <pt x="236" y="830" on="0"/>
      </contour>
    </TTGlyph>
    <TTGlyph name="afii10028" xMin="70" yMin="-10" xMax="490" yMax="710">
      <contour>
        <pt x="285" y="363" on="1"/>
        <pt x="304" y="358" on="0"/>
        <pt x="335" y="342" on="0"/>
        <pt x="360" y="314" on="0"/>
        <pt x="379" y="271" on="0"/>
        <pt x="385" y="240" on="1"/>
        <pt x="410" y="110" on="1"/>
        <pt x="415" y="84" on="0"/>
        <pt x="452" y="45" on="0"/>
        <pt x="490" y="45" on="1"/>
        <pt x="490" y="0" on="1"/>
        <pt x="483" y="-3" on="0"/>
        <pt x="473" y="-5" on="1"/>
        <pt x="455" y="-10" on="0"/>
        <pt x="430" y="-10" on="1"/>
        <pt x="385" y="-10" on="0"/>
        <pt x="326" y="50" on="0"/>
        <pt x="315" y="110" on="1"/>
        <pt x="290" y="240" on="1"/>
        <pt x="280" y="293" on="0"/>
        <pt x="229" y="330" on="0"/>
        <pt x="195" y="330" on="1"/>
        <pt x="160" y="330" on="1"/>
        <pt x="160" y="0" on="1"/>
        <pt x="70" y="0" on="1"/>
        <pt x="70" y="700" on="1"/>
        <pt x="160" y="700" on="1"/>
        <pt x="160" y="400" on="1"/>
        <pt x="195" y="400" on="1"/>
        <pt x="221" y="400" on="0"/>
        <pt x="267" y="438" on="0"/>
        <pt x="280" y="490" on="1"/>
        <pt x="305" y="590" on="1"/>
        <pt x="335" y="710" on="0"/>
        <pt x="420" y="710" on="1"/>
        <pt x="433" y="710" on="0"/>
        <pt x="455" y="707" on="0"/>
        <pt x="463" y="705" on="1"/>
        <pt x="473" y="702" on="0"/>
        <pt x="480" y="700" on="1"/>
        <pt x="480" y="655" on="1"/>
        <pt x="442" y="655" on="0"/>
        <pt x="408" y="620" on="0"/>
        <pt x="400" y="590" on="1"/>
        <pt x="375" y="490" on="1"/>
        <pt x="367" y="459" on="0"/>
        <pt x="350" y="416" on="0"/>
        <pt x="328" y="388" on="0"/>
        <pt x="302" y="372" on="0"/>
        <pt x="285" y="367" on="1"/>
      </contour>
    </TTGlyph>
    <TTGlyph name="afii10029" xMin="0" yMin="-10" xMax="460" yMax="700">
      <contour>
        <pt x="60" y="-10" on="1"/>
        <pt x="35" y="-10" on="0"/>
        <pt x="17" y="-5" on="1"/>
        <pt x="7" y="-3" on="0"/>
        <pt x="0" y="0" on="1"/>
        <pt x="0" y="45" on="1"/>
        <pt x="21" y="45" on="0"/>
        <pt x="55" y="61" on="0"/>
        <pt x="81" y="100" on="0"/>
        <pt x="98" y="163" on="0"/>
        <pt x="100" y="210" on="1"/>
        <pt x="125" y="700" on="1"/>
        <pt x="460" y="700" on="1"/>
        <pt x="460" y="0" on="1"/>
        <pt x="370" y="0" on="1"/>
        <pt x="370" y="630" on="1"/>
        <pt x="212" y="630" on="1"/>
        <pt x="190" y="210" on="1"/>
        <pt x="187" y="150" on="0"/>
        <pt x="164" y="66" on="0"/>
        <pt x="129" y="14" on="0"/>
        <pt x="84" y="-10" on="0"/>
      </contour>
    </TTGlyph>
    <TTGlyph name="afii10030" xMin="55" yMin="0" xMax="685" yMax="700">
      <contour>
        <pt x="325" y="90" on="1"/>
        <pt x="180" y="520" on="1"/>
        <pt x="175" y="520" on="1"/>
        <pt x="145" y="0" on="1"/>
        <pt x="55" y="0" on="1"/>
        <pt x="95" y="700" on="1"/>
        <pt x="205" y="700" on="1"/>
        <pt x="368" y="220" on="1"/>
        <pt x="372" y="220" on="1"/>
        <pt x="535" y="700" on="1"/>
        <pt x="645" y="700" on="1"/>
        <pt x="685" y="0" on="1"/>
        <pt x="595" y="0" on="1"/>
        <pt x="565" y="520" on="1"/>
        <pt x="560" y="520" on="1"/>
        <pt x="415" y="90" on="1"/>
      </contour>
    </TTGlyph>
    <TTGlyph name="afii10031" xMin="70" yMin="0" xMax="460" yMax="700">
      <contour>
        <pt x="460" y="700" on="1"/>
        <pt x="460" y="0" on="1"/>
        <pt x="370" y="0" on="1"/>
        <pt x="370" y="320" on="1"/>
        <pt x="160" y="320" on="1"/>
        <pt x="160" y="0" on="1"/>
        <pt x="70" y="0" on="1"/>
        <pt x="70" y="700" on="1"/>
        <pt x="160" y="700" on="1"/>
        <pt x="160" y="390" on="1"/>
        <pt x="370" y="390" on="1"/>
        <pt x="370" y="700" on="1"/>
      </contour>
    </TTGlyph>
    <TTGlyph name="afii10032" xMin="50" yMin="-10" xMax="480" yMax="710">
      <contour>
        <pt x="265" y="710" on="1"/>
        <pt x="316" y="710" on="0"/>
        <pt x="395" y="676" on="0"/>
        <pt x="451" y="594" on="0"/>
        <pt x="480" y="455" on="0"/>
        <pt x="480" y="350" on="1"/>
        <pt x="480" y="245" on="0"/>
        <pt x="451" y="106" on="0"/>
        <pt x="395" y="24" on="0"/>
        <pt x="316" y="-10" on="0"/>
        <pt x="265" y="-10" on="1"/>
        <pt x="214" y="-10" on="0"/>
        <pt x="135" y="24" on="0"/>
        <pt x="79" y="106" on="0"/>
        <pt x="50" y="245" on="0"/>
        <pt x="50" y="350" on="1"/>
        <pt x="50" y="455" on="0"/>
        <pt x="79" y="594" on="0"/>
        <pt x="135" y="676" on="0"/>
        <pt x="214" y="710" on="0"/>
      </contour>
      <contour>
        <pt x="265" y="50" on="1"/>
        <pt x="289" y="50" on="0"/>
        <pt x="335" y="76" on="0"/>
        <pt x="369" y="144" on="0"/>
        <pt x="390" y="260" on="0"/>
        <pt x="390" y="350" on="1"/>
        <pt x="390" y="440" on="0"/>
        <pt x="369" y="556" on="0"/>
        <pt x="335" y="624" on="0"/>
        <pt x="289" y="650" on="0"/>
        <pt x="265" y="650" on="1"/>
        <pt x="241" y="650" on="0"/>
        <pt x="195" y="624" on="0"/>
        <pt x="161" y="556" on="0"/>
        <pt x="140" y="440" on="0"/>
        <pt x="140" y="350" on="1"/>
        <pt x="140" y="260" on="0"/>
        <pt x="161" y="144" on="0"/>
        <pt x="195" y="76" on="0"/>
        <pt x="241" y="50" on="0"/>
      </contour>
    </TTGlyph>
    <TTGlyph name="afii10033" xMin="70" yMin="0" xMax="460" yMax="700">
      <contour>
        <pt x="460" y="700" on="1"/>
        <pt x="460" y="0" on="1"/>
        <pt x="370" y="0" on="1"/>
        <pt x="370" y="630" on="1"/>
        <pt x="160" y="630" on="1"/>
        <pt x="160" y="0" on="1"/>
        <pt x="70" y="0" on="1"/>
        <pt x="70" y="700" on="1"/>
      </contour>
    </TTGlyph>
    <TTGlyph name="afii10034" xMin="70" yMin="0" xMax="450" yMax="710">
      <contour>
        <pt x="230" y="275" on="1"/>
        <pt x="264" y="275" on="0"/>
        <pt x="313" y="292" on="0"/>
        <pt x="345" y="334" on="0"/>
        <pt x="360" y="406" on="0"/>
        <pt x="360" y="460" on="1"/>
        <pt x="360" y="514" on="0"/>
        <pt x="345" y="586" on="0"/>
        <pt x="313" y="628" on="0"/>
        <pt x="264" y="645" on="0"/>
        <pt x="230" y="645" on="1"/>
        <pt x="160" y="645" on="1"/>
        <pt x="160" y="275" on="1"/>
      </contour>
      <contour>
        <pt x="160" y="0" on="1"/>
        <pt x="70" y="0" on="1"/>
        <pt x="70" y="690" on="1"/>
        <pt x="108" y="701" on="0"/>
        <pt x="185" y="710" on="0"/>
        <pt x="230" y="710" on="1"/>
        <pt x="290" y="710" on="0"/>
        <pt x="374" y="685" on="0"/>
        <pt x="426" y="627" on="0"/>
        <pt x="450" y="531" on="0"/>
        <pt x="450" y="460" on="1"/>
        <pt x="450" y="387" on="0"/>
        <pt x="427" y="289" on="0"/>
        <pt x="380" y="230" on="0"/>
        <pt x="309" y="205" on="0"/>
        <pt x="260" y="205" on="1"/>
        <pt x="237" y="205" on="0"/>
        <pt x="179" y="211" on="0"/>
        <pt x="160" y="215" on="1"/>
      </contour>
    </TTGlyph>
    <TTGlyph name="afii10035" xMin="50" yMin="-10" xMax="420" yMax="710">
      <contour>
        <pt x="270" y="-10" on="1"/>
        <pt x="217" y="-10" on="0"/>
        <pt x="136" y="24" on="0"/>
        <pt x="79" y="106" on="0"/>
        <pt x="50" y="245" on="0"/>
        <pt x="50" y="350" on="1"/>
        <pt x="50" y="455" on="0"/>
        <pt x="79" y="594" on="0"/>
        <pt x="133" y="676" on="0"/>
        <pt x="211" y="710" on="0"/>
        <pt x="260" y="710" on="1"/>
        <pt x="305" y="710" on="0"/>
        <pt x="387" y="698" on="0"/>
        <pt x="410" y="690" on="1"/>
        <pt x="410" y="645" on="1"/>
        <pt x="280" y="645" on="1"/>
        <pt x="250" y="645" on="0"/>
        <pt x="199" y="619" on="0"/>
        <pt x="161" y="552" on="0"/>
        <pt x="140" y="438" on="0"/>
        <pt x="140" y="350" on="1"/>
        <pt x="140" y="262" on="0"/>
        <pt x="162" y="148" on="0"/>
        <pt x="201" y="81" on="0"/>
        <pt x="256" y="55" on="0"/>
        <pt x="290" y="55" on="1"/>
        <pt x="420" y="55" on="1"/>
        <pt x="420" y="10" on="1"/>
        <pt x="397" y="2" on="0"/>
        <pt x="315" y="-10" on="0"/>
      </contour>
    </TTGlyph>
    <TTGlyph name="afii10036" xMin="10" yMin="0" xMax="420" yMax="700">
      <contour>
        <pt x="10" y="700" on="1"/>
        <pt x="420" y="700" on="1"/>
        <pt x="420" y="630" on="1"/>
        <pt x="260" y="630" on="1"/>
        <pt x="260" y="0" on="1"/>
        <pt x="170" y="0" on="1"/>
        <pt x="170" y="630" on="1"/>
        <pt x="10" y="630" on="1"/>
      </contour>
    </TTGlyph>
    <TTGlyph name="afii10037" xMin="0" yMin="-10" xMax="445" yMax="700">
      <contour>
        <pt x="176" y="-10" on="1"/>
        <pt x="153" y="-10" on="0"/>
        <pt x="99" y="2" on="0"/>
        <pt x="76" y="10" on="1"/>
        <pt x="76" y="55" on="1"/>
        <pt x="146" y="55" on="1"/>
        <pt x="166" y="55" on="0"/>
        <pt x="199" y="68" on="0"/>
        <pt x="225" y="101" on="0"/>
        <pt x="245" y="157" on="0"/>
        <pt x="254" y="200" on="1"/>
        <pt x="191" y="200" on="0"/>
        <pt x="120" y="264" on="0"/>
        <pt x="105" y="320" on="1"/>
        <pt x="0" y="700" on="1"/>
        <pt x="90" y="700" on="1"/>
        <pt x="195" y="320" on="1"/>
        <pt x="211" y="265" on="0"/>
        <pt x="267" y="265" on="1"/>
        <pt x="355" y="700" on="1"/>
        <pt x="445" y="700" on="1"/>
        <pt x="336" y="160" on="1"/>
        <pt x="318" y="70" on="0"/>
        <pt x="243" y="-10" on="0"/>
      </contour>
    </TTGlyph>
    <TTGlyph name="afii10038" xMin="30" yMin="-20" xMax="660" yMax="720">
      <contour>
        <pt x="120" y="350" on="1"/>
        <pt x="120" y="294" on="0"/>
        <pt x="148" y="208" on="0"/>
        <pt x="197" y="149" on="0"/>
        <pt x="262" y="117" on="0"/>
        <pt x="300" y="115" on="1"/>
        <pt x="300" y="585" on="1"/>
        <pt x="262" y="583" on="0"/>
        <pt x="197" y="551" on="0"/>
        <pt x="148" y="492" on="0"/>
        <pt x="120" y="406" on="0"/>
      </contour>
      <contour>
        <pt x="390" y="650" on="1"/>
        <pt x="452" y="646" on="0"/>
        <pt x="552" y="604" on="0"/>
        <pt x="622" y="528" on="0"/>
        <pt x="660" y="419" on="0"/>
        <pt x="660" y="350" on="1"/>
        <pt x="660" y="281" on="0"/>
        <pt x="622" y="172" on="0"/>
        <pt x="552" y="96" on="0"/>
        <pt x="452" y="54" on="0"/>
        <pt x="390" y="50" on="1"/>
        <pt x="390" y="-20" on="1"/>
        <pt x="300" y="-20" on="1"/>
        <pt x="300" y="50" on="1"/>
        <pt x="238" y="54" on="0"/>
        <pt x="138" y="96" on="0"/>
        <pt x="68" y="172" on="0"/>
        <pt x="30" y="281" on="0"/>
        <pt x="30" y="350" on="1"/>
        <pt x="30" y="419" on="0"/>
        <pt x="68" y="528" on="0"/>
        <pt x="138" y="604" on="0"/>
        <pt x="238" y="646" on="0"/>
        <pt x="300" y="650" on="1"/>
        <pt x="300" y="720" on="1"/>
        <pt x="390" y="720" on="1"/>
      </contour>
      <contour>
        <pt x="570" y="350" on="1"/>
        <pt x="570" y="406" on="0"/>
        <pt x="542" y="492" on="0"/>
        <pt x="493" y="551" on="0"/>
        <pt x="427" y="583" on="0"/>
        <pt x="390" y="585" on="1"/>
        <pt x="390" y="115" on="1"/>
        <pt x="427" y="117" on="0"/>
        <pt x="493" y="149" on="0"/>
        <pt x="542" y="208" on="0"/>
        <pt x="570" y="294" on="0"/>
      </contour>
    </TTGlyph>
    <TTGlyph name="afii10039" xMin="15" yMin="0" xMax="445" yMax="700">
      <contour>
        <pt x="340" y="700" on="1"/>
        <pt x="430" y="700" on="1"/>
        <pt x="295" y="360" on="1"/>
        <pt x="445" y="0" on="1"/>
        <pt x="355" y="0" on="1"/>
        <pt x="230" y="300" on="1"/>
        <pt x="105" y="0" on="1"/>
        <pt x="15" y="0" on="1"/>
        <pt x="165" y="360" on="1"/>
        <pt x="30" y="700" on="1"/>
        <pt x="120" y="700" on="1"/>
        <pt x="230" y="420" on="1"/>
      </contour>
    </TTGlyph>
    <TTGlyph name="afii10040" xMin="70" yMin="-150" xMax="515" yMax="700">
      <contour>
        <pt x="70" y="0" on="1"/>
        <pt x="70" y="700" on="1"/>
        <pt x="160" y="700" on="1"/>
        <pt x="160" y="70" on="1"/>
        <pt x="360" y="70" on="1"/>
        <pt x="360" y="700" on="1"/>
        <pt x="450" y="700" on="1"/>
        <pt x="450" y="70" on="1"/>
        <pt x="515" y="70" on="1"/>
        <pt x="515" y="-150" on="1"/>
        <pt x="460" y="-150" on="1"/>
        <pt x="437" y="-90" on="0"/>
        <pt x="430" y="0" on="1"/>
      </contour>
    </TTGlyph>
    <TTGlyph name="afii10041" xMin="50" yMin="0" xMax="435" yMax="700">
      <contour>
        <pt x="235" y="260" on="1"/>
        <pt x="141" y="260" on="0"/>
        <pt x="50" y="353" on="0"/>
        <pt x="50" y="455" on="1"/>
        <pt x="50" y="700" on="1"/>
        <pt x="140" y="700" on="1"/>
        <pt x="140" y="455" on="1"/>
        <pt x="140" y="391" on="0"/>
        <pt x="203" y="330" on="0"/>
        <pt x="275" y="330" on="1"/>
        <pt x="345" y="330" on="1"/>
        <pt x="345" y="700" on="1"/>
        <pt x="435" y="700" on="1"/>
        <pt x="435" y="0" on="1"/>
        <pt x="345" y="0" on="1"/>
        <pt x="345" y="270" on="1"/>
        <pt x="326" y="266" on="0"/>
        <pt x="265" y="260" on="0"/>
      </contour>
    </TTGlyph>
    <TTGlyph name="afii10042" xMin="70" yMin="0" xMax="680" yMax="700">
      <contour>
        <pt x="420" y="70" on="1"/>
        <pt x="590" y="70" on="1"/>
        <pt x="590" y="700" on="1"/>
        <pt x="680" y="700" on="1"/>
        <pt x="680" y="0" on="1"/>
        <pt x="70" y="0" on="1"/>
        <pt x="70" y="700" on="1"/>
        <pt x="160" y="700" on="1"/>
        <pt x="160" y="70" on="1"/>
        <pt x="330" y="70" on="1"/>
        <pt x="330" y="700" on="1"/>
        <pt x="420" y="700" on="1"/>
      </contour>
    </TTGlyph>
    <TTGlyph name="afii10043" xMin="70" yMin="-150" xMax="745" yMax="700">
      <contour>
        <pt x="70" y="0" on="1"/>
        <pt x="70" y="700" on="1"/>
        <pt x="160" y="700" on="1"/>
        <pt x="160" y="70" on="1"/>
        <pt x="330" y="70" on="1"/>
        <pt x="330" y="700" on="1"/>
        <pt x="420" y="700" on="1"/>
        <pt x="420" y="70" on="1"/>
        <pt x="590" y="70" on="1"/>
        <pt x="590" y="700" on="1"/>
        <pt x="680" y="700" on="1"/>
        <pt x="680" y="70" on="1"/>
        <pt x="745" y="70" on="1"/>
        <pt x="745" y="-150" on="1"/>
        <pt x="690" y="-150" on="1"/>
        <pt x="667" y="-90" on="0"/>
        <pt x="660" y="0" on="1"/>
      </contour>
    </TTGlyph>
    <TTGlyph name="afii10044" xMin="20" yMin="-10" xMax="510" yMax="700">
      <contour>
        <pt x="220" y="355" on="1"/>
        <pt x="220" y="55" on="1"/>
        <pt x="290" y="55" on="1"/>
        <pt x="358" y="55" on="0"/>
        <pt x="420" y="122" on="0"/>
        <pt x="420" y="205" on="1"/>
        <pt x="420" y="288" on="0"/>
        <pt x="358" y="355" on="0"/>
        <pt x="290" y="355" on="1"/>
      </contour>
      <contour>
        <pt x="320" y="425" on="1"/>
        <pt x="417" y="425" on="0"/>
        <pt x="510" y="325" on="0"/>
        <pt x="510" y="205" on="1"/>
        <pt x="510" y="147" on="0"/>
        <pt x="486" y="65" on="0"/>
        <pt x="434" y="14" on="0"/>
        <pt x="350" y="-10" on="0"/>
        <pt x="290" y="-10" on="1"/>
        <pt x="245" y="-10" on="0"/>
        <pt x="168" y="-1" on="0"/>
        <pt x="130" y="10" on="1"/>
        <pt x="130" y="630" on="1"/>
        <pt x="20" y="630" on="1"/>
        <pt x="20" y="700" on="1"/>
        <pt x="220" y="700" on="1"/>
        <pt x="220" y="415" on="1"/>
        <pt x="239" y="419" on="0"/>
        <pt x="297" y="425" on="0"/>
      </contour>
    </TTGlyph>
    <TTGlyph name="afii10045" xMin="70" yMin="-10" xMax="620" yMax="700">
      <contour>
        <pt x="620" y="700" on="1"/>
        <pt x="620" y="0" on="1"/>
        <pt x="530" y="0" on="1"/>
        <pt x="530" y="700" on="1"/>
      </contour>
      <contour>
        <pt x="160" y="355" on="1"/>
        <pt x="160" y="55" on="1"/>
        <pt x="230" y="55" on="1"/>
        <pt x="294" y="55" on="0"/>
        <pt x="355" y="122" on="0"/>
        <pt x="355" y="205" on="1"/>
        <pt x="355" y="288" on="0"/>
        <pt x="294" y="355" on="0"/>
        <pt x="230" y="355" on="1"/>
      </contour>
      <contour>
        <pt x="260" y="425" on="1"/>
        <pt x="354" y="425" on="0"/>
        <pt x="445" y="325" on="0"/>
        <pt x="445" y="205" on="1"/>
        <pt x="445" y="147" on="0"/>
        <pt x="421" y="65" on="0"/>
        <pt x="370" y="14" on="0"/>
        <pt x="288" y="-10" on="0"/>
        <pt x="230" y="-10" on="1"/>
        <pt x="185" y="-10" on="0"/>
        <pt x="108" y="-1" on="0"/>
        <pt x="70" y="10" on="1"/>
        <pt x="70" y="700" on="1"/>
        <pt x="160" y="700" on="1"/>
        <pt x="160" y="415" on="1"/>
        <pt x="179" y="419" on="0"/>
        <pt x="237" y="425" on="0"/>
      </contour>
    </TTGlyph>
    <TTGlyph name="afii10046" xMin="70" yMin="-10" xMax="450" yMax="700">
      <contour>
        <pt x="160" y="355" on="1"/>
        <pt x="160" y="55" on="1"/>
        <pt x="230" y="55" on="1"/>
        <pt x="298" y="55" on="0"/>
        <pt x="360" y="122" on="0"/>
        <pt x="360" y="205" on="1"/>
        <pt x="360" y="288" on="0"/>
        <pt x="298" y="355" on="0"/>
        <pt x="230" y="355" on="1"/>
      </contour>
      <contour>
        <pt x="260" y="425" on="1"/>
        <pt x="357" y="425" on="0"/>
        <pt x="450" y="325" on="0"/>
        <pt x="450" y="205" on="1"/>
        <pt x="450" y="147" on="0"/>
        <pt x="426" y="65" on="0"/>
        <pt x="374" y="14" on="0"/>
        <pt x="290" y="-10" on="0"/>
        <pt x="230" y="-10" on="1"/>
        <pt x="185" y="-10" on="0"/>
        <pt x="108" y="-1" on="0"/>
        <pt x="70" y="10" on="1"/>
        <pt x="70" y="700" on="1"/>
        <pt x="160" y="700" on="1"/>
        <pt x="160" y="415" on="1"/>
        <pt x="179" y="419" on="0"/>
        <pt x="237" y="425" on="0"/>
      </contour>
    </TTGlyph>
    <TTGlyph name="afii10047" xMin="15" yMin="-10" xMax="385" yMax="710">
      <contour>
        <pt x="85" y="395" on="1"/>
        <pt x="295" y="395" on="1"/>
        <pt x="293" y="466" on="0"/>
        <pt x="270" y="562" on="0"/>
        <pt x="232" y="620" on="0"/>
        <pt x="183" y="645" on="0"/>
        <pt x="155" y="645" on="1"/>
        <pt x="25" y="645" on="1"/>
        <pt x="25" y="690" on="1"/>
        <pt x="48" y="698" on="0"/>
        <pt x="130" y="710" on="0"/>
        <pt x="175" y="710" on="1"/>
        <pt x="224" y="710" on="0"/>
        <pt x="302" y="676" on="0"/>
        <pt x="356" y="594" on="0"/>
        <pt x="385" y="455" on="0"/>
        <pt x="385" y="350" on="1"/>
        <pt x="385" y="245" on="0"/>
        <pt x="356" y="106" on="0"/>
        <pt x="299" y="24" on="0"/>
        <pt x="217" y="-10" on="0"/>
        <pt x="165" y="-10" on="1"/>
        <pt x="120" y="-10" on="0"/>
        <pt x="38" y="2" on="0"/>
        <pt x="15" y="10" on="1"/>
        <pt x="15" y="55" on="1"/>
        <pt x="145" y="55" on="1"/>
        <pt x="179" y="55" on="0"/>
        <pt x="233" y="80" on="0"/>
        <pt x="271" y="142" on="0"/>
        <pt x="293" y="246" on="0"/>
        <pt x="295" y="325" on="1"/>
        <pt x="85" y="325" on="1"/>
      </contour>
    </TTGlyph>
    <TTGlyph name="afii10048" xMin="70" yMin="-10" xMax="655" yMax="710">
      <contour>
        <pt x="160" y="320" on="1"/>
        <pt x="160" y="0" on="1"/>
        <pt x="70" y="0" on="1"/>
        <pt x="70" y="700" on="1"/>
        <pt x="160" y="700" on="1"/>
        <pt x="160" y="390" on="1"/>
        <pt x="235" y="390" on="1"/>
        <pt x="241" y="482" on="0"/>
        <pt x="272" y="605" on="0"/>
        <pt x="325" y="679" on="0"/>
        <pt x="398" y="710" on="0"/>
        <pt x="445" y="710" on="1"/>
        <pt x="494" y="710" on="0"/>
        <pt x="572" y="676" on="0"/>
        <pt x="626" y="594" on="0"/>
        <pt x="655" y="455" on="0"/>
        <pt x="655" y="350" on="1"/>
        <pt x="655" y="245" on="0"/>
        <pt x="626" y="106" on="0"/>
        <pt x="572" y="24" on="0"/>
        <pt x="494" y="-10" on="0"/>
        <pt x="445" y="-10" on="1"/>
        <pt x="398" y="-10" on="0"/>
        <pt x="325" y="21" on="0"/>
        <pt x="272" y="97" on="0"/>
        <pt x="241" y="224" on="0"/>
        <pt x="235" y="320" on="1"/>
      </contour>
      <contour>
        <pt x="445" y="50" on="1"/>
        <pt x="467" y="50" on="0"/>
        <pt x="511" y="76" on="0"/>
        <pt x="544" y="144" on="0"/>
        <pt x="565" y="260" on="0"/>
        <pt x="565" y="350" on="1"/>
        <pt x="565" y="440" on="0"/>
        <pt x="544" y="556" on="0"/>
        <pt x="511" y="624" on="0"/>
        <pt x="467" y="650" on="0"/>
        <pt x="445" y="650" on="1"/>
        <pt x="422" y="650" on="0"/>
        <pt x="379" y="624" on="0"/>
        <pt x="346" y="556" on="0"/>
        <pt x="325" y="440" on="0"/>
        <pt x="325" y="350" on="1"/>
        <pt x="325" y="260" on="0"/>
        <pt x="346" y="144" on="0"/>
        <pt x="379" y="76" on="0"/>
        <pt x="422" y="50" on="0"/>
      </contour>
    </TTGlyph>
    <TTGlyph name="afii10049" xMin="10" yMin="-10" xMax="430" yMax="710">
      <contour>
        <pt x="340" y="355" on="1"/>
        <pt x="340" y="645" on="1"/>
        <pt x="270" y="645" on="1"/>
        <pt x="202" y="645" on="0"/>
        <pt x="140" y="579" on="0"/>
        <pt x="140" y="500" on="1"/>
        <pt x="140" y="421" on="0"/>
        <pt x="202" y="355" on="0"/>
        <pt x="270" y="355" on="1"/>
      </contour>
      <contour>
        <pt x="185" y="310" on="1"/>
        <pt x="161" y="314" on="0"/>
        <pt x="112" y="340" on="0"/>
        <pt x="74" y="387" on="0"/>
        <pt x="50" y="455" on="0"/>
        <pt x="50" y="500" on="1"/>
        <pt x="50" y="556" on="0"/>
        <pt x="74" y="636" on="0"/>
        <pt x="126" y="687" on="0"/>
        <pt x="210" y="710" on="0"/>
        <pt x="270" y="710" on="1"/>
        <pt x="315" y="710" on="0"/>
        <pt x="392" y="701" on="0"/>
        <pt x="430" y="690" on="1"/>
        <pt x="430" y="0" on="1"/>
        <pt x="340" y="0" on="1"/>
        <pt x="340" y="285" on="1"/>
        <pt x="300" y="285" on="1"/>
        <pt x="270" y="285" on="0"/>
        <pt x="218" y="247" on="0"/>
        <pt x="205" y="195" on="1"/>
        <pt x="185" y="110" on="1"/>
        <pt x="155" y="-10" on="0"/>
        <pt x="70" y="-10" on="1"/>
        <pt x="47" y="-10" on="0"/>
        <pt x="29" y="-5" on="1"/>
        <pt x="19" y="-3" on="0"/>
        <pt x="10" y="0" on="1"/>
        <pt x="10" y="45" on="1"/>
        <pt x="48" y="45" on="0"/>
        <pt x="82" y="80" on="0"/>
        <pt x="90" y="110" on="1"/>
        <pt x="110" y="195" on="1"/>
        <pt x="121" y="244" on="0"/>
        <pt x="159" y="298" on="0"/>
        <pt x="185" y="306" on="1"/>
      </contour>
    </TTGlyph>
    <TTGlyph name="afii10050" xMin="70" yMin="0" xMax="390" yMax="785">
      <contour>
        <pt x="70" y="700" on="1"/>
        <pt x="318" y="700" on="1"/>
        <pt x="325" y="785" on="1"/>
        <pt x="390" y="785" on="1"/>
        <pt x="390" y="630" on="1"/>
        <pt x="160" y="630" on="1"/>
        <pt x="160" y="0" on="1"/>
        <pt x="70" y="0" on="1"/>
      </contour>
    </TTGlyph>
    <TTGlyph name="afii10051" xMin="0" yMin="-10" xMax="510" yMax="700">
      <contour>
        <pt x="420" y="245" on="1"/>
        <pt x="420" y="309" on="0"/>
        <pt x="357" y="370" on="0"/>
        <pt x="285" y="370" on="1"/>
        <pt x="215" y="370" on="1"/>
        <pt x="215" y="0" on="1"/>
        <pt x="125" y="0" on="1"/>
        <pt x="125" y="630" on="1"/>
        <pt x="0" y="630" on="1"/>
        <pt x="0" y="700" on="1"/>
        <pt x="360" y="700" on="1"/>
        <pt x="360" y="630" on="1"/>
        <pt x="215" y="630" on="1"/>
        <pt x="215" y="430" on="1"/>
        <pt x="234" y="434" on="0"/>
        <pt x="295" y="440" on="0"/>
        <pt x="325" y="440" on="1"/>
        <pt x="419" y="440" on="0"/>
        <pt x="510" y="347" on="0"/>
        <pt x="510" y="245" on="1"/>
        <pt x="510" y="160" on="1"/>
        <pt x="510" y="70" on="0"/>
        <pt x="437" y="-10" on="0"/>
        <pt x="370" y="-10" on="1"/>
        <pt x="355" y="-10" on="0"/>
        <pt x="315" y="-1" on="0"/>
        <pt x="300" y="10" on="1"/>
        <pt x="300" y="50" on="1"/>
        <pt x="350" y="50" on="1"/>
        <pt x="380" y="50" on="0"/>
        <pt x="420" y="100" on="0"/>
        <pt x="420" y="160" on="1"/>
      </contour>
    </TTGlyph>
    <TTGlyph name="afii10052" xMin="70" yMin="0" xMax="390" yMax="880">
      <contour>
        <pt x="70" y="700" on="1"/>
        <pt x="390" y="700" on="1"/>
        <pt x="390" y="630" on="1"/>
        <pt x="160" y="630" on="1"/>
        <pt x="160" y="0" on="1"/>
        <pt x="70" y="0" on="1"/>
      </contour>
      <contour>
        <pt x="190" y="750" on="1"/>
        <pt x="225" y="880" on="1"/>
        <pt x="320" y="880" on="1"/>
        <pt x="250" y="750" on="1"/>
      </contour>
    </TTGlyph>
    <TTGlyph name="afii10053" xMin="50" yMin="-10" xMax="420" yMax="710">
      <contour>
        <pt x="350" y="325" on="1"/>
        <pt x="140" y="325" on="1"/>
        <pt x="142" y="246" on="0"/>
        <pt x="164" y="142" on="0"/>
        <pt x="202" y="80" on="0"/>
        <pt x="256" y="55" on="0"/>
        <pt x="290" y="55" on="1"/>
        <pt x="420" y="55" on="1"/>
        <pt x="420" y="10" on="1"/>
        <pt x="397" y="2" on="0"/>
        <pt x="315" y="-10" on="0"/>
        <pt x="270" y="-10" on="1"/>
        <pt x="217" y="-10" on="0"/>
        <pt x="136" y="24" on="0"/>
        <pt x="79" y="106" on="0"/>
        <pt x="50" y="245" on="0"/>
        <pt x="50" y="350" on="1"/>
        <pt x="50" y="455" on="0"/>
        <pt x="79" y="594" on="0"/>
        <pt x="133" y="676" on="0"/>
        <pt x="211" y="710" on="0"/>
        <pt x="260" y="710" on="1"/>
        <pt x="305" y="710" on="0"/>
        <pt x="387" y="698" on="0"/>
        <pt x="410" y="690" on="1"/>
        <pt x="410" y="645" on="1"/>
        <pt x="280" y="645" on="1"/>
        <pt x="252" y="645" on="0"/>
        <pt x="202" y="620" on="0"/>
        <pt x="165" y="562" on="0"/>
        <pt x="142" y="466" on="0"/>
        <pt x="140" y="395" on="1"/>
        <pt x="350" y="395" on="1"/>
      </contour>
    </TTGlyph>
    <TTGlyph name="afii10054" xMin="35" yMin="-10" xMax="410" yMax="710">
      <contour>
        <pt x="35" y="530" on="1"/>
        <pt x="35" y="621" on="0"/>
        <pt x="127" y="710" on="0"/>
        <pt x="225" y="710" on="1"/>
        <pt x="270" y="710" on="0"/>
        <pt x="352" y="698" on="0"/>
        <pt x="375" y="690" on="1"/>
        <pt x="375" y="645" on="1"/>
        <pt x="245" y="645" on="1"/>
        <pt x="125" y="645" on="0"/>
        <pt x="125" y="530" on="1"/>
        <pt x="125" y="484" on="0"/>
        <pt x="167" y="430" on="0"/>
        <pt x="231" y="393" on="0"/>
        <pt x="304" y="362" on="0"/>
        <pt x="368" y="315" on="0"/>
        <pt x="410" y="241" on="0"/>
        <pt x="410" y="180" on="1"/>
        <pt x="410" y="131" on="0"/>
        <pt x="386" y="60" on="0"/>
        <pt x="333" y="13" on="0"/>
        <pt x="247" y="-10" on="0"/>
        <pt x="185" y="-10" on="1"/>
        <pt x="140" y="-10" on="0"/>
        <pt x="58" y="2" on="0"/>
        <pt x="35" y="10" on="1"/>
        <pt x="35" y="55" on="1"/>
        <pt x="165" y="55" on="1"/>
        <pt x="251" y="55" on="0"/>
        <pt x="320" y="116" on="0"/>
        <pt x="320" y="180" on="1"/>
        <pt x="320" y="224" on="0"/>
        <pt x="278" y="274" on="0"/>
        <pt x="214" y="309" on="0"/>
        <pt x="141" y="341" on="0"/>
        <pt x="77" y="389" on="0"/>
        <pt x="35" y="466" on="0"/>
      </contour>
    </TTGlyph>
    <TTGlyph name="afii10055" xMin="70" yMin="0" xMax="160" yMax="700">
      <contour>
        <pt x="160" y="700" on="1"/>
        <pt x="160" y="0" on="1"/>
        <pt x="70" y="0" on="1"/>
        <pt x="70" y="700" on="1"/>
      </contour>
    </TTGlyph>
    <TTGlyph name="afii10056" xMin="-10" yMin="0" xMax="240" yMax="880">
      <contour>
        <pt x="160" y="700" on="1"/>
        <pt x="160" y="0" on="1"/>
        <pt x="70" y="0" on="1"/>
        <pt x="70" y="700" on="1"/>
      </contour>
      <contour>
        <pt x="80" y="880" on="1"/>
        <pt x="80" y="770" on="1"/>
        <pt x="-10" y="770" on="1"/>
        <pt x="-10" y="880" on="1"/>
      </contour>
      <contour>
        <pt x="240" y="880" on="1"/>
        <pt x="240" y="770" on="1"/>
        <pt x="150" y="770" on="1"/>
        <pt x="150" y="880" on="1"/>
      </contour>
    </TTGlyph>
    <TTGlyph name="afii10057" xMin="0" yMin="-10" xMax="290" yMax="700">
      <contour>
        <pt x="90" y="55" on="1"/>
        <pt x="116" y="55" on="0"/>
        <pt x="157" y="72" on="0"/>
        <pt x="185" y="114" on="0"/>
        <pt x="200" y="186" on="0"/>
        <pt x="200" y="240" on="1"/>
        <pt x="200" y="700" on="1"/>
        <pt x="290" y="700" on="1"/>
        <pt x="290" y="240" on="1"/>
        <pt x="290" y="169" on="0"/>
        <pt x="267" y="73" on="0"/>
        <pt x="218" y="15" on="0"/>
        <pt x="142" y="-10" on="0"/>
        <pt x="90" y="-10" on="1"/>
        <pt x="67" y="-10" on="0"/>
        <pt x="19" y="2" on="0"/>
        <pt x="0" y="10" on="1"/>
        <pt x="0" y="55" on="1"/>
      </contour>
    </TTGlyph>
    <TTGlyph name="afii10058" xMin="0" yMin="-10" xMax="750" yMax="700">
      <contour>
        <pt x="560" y="425" on="1"/>
        <pt x="657" y="425" on="0"/>
        <pt x="750" y="325" on="0"/>
        <pt x="750" y="205" on="1"/>
        <pt x="750" y="147" on="0"/>
        <pt x="726" y="65" on="0"/>
        <pt x="674" y="14" on="0"/>
        <pt x="590" y="-10" on="0"/>
        <pt x="530" y="-10" on="1"/>
        <pt x="485" y="-10" on="0"/>
        <pt x="408" y="-1" on="0"/>
        <pt x="370" y="10" on="1"/>
        <pt x="370" y="630" on="1"/>
        <pt x="212" y="630" on="1"/>
        <pt x="190" y="210" on="1"/>
        <pt x="187" y="150" on="0"/>
        <pt x="164" y="66" on="0"/>
        <pt x="129" y="14" on="0"/>
        <pt x="84" y="-10" on="0"/>
        <pt x="60" y="-10" on="1"/>
        <pt x="35" y="-10" on="0"/>
        <pt x="17" y="-5" on="1"/>
        <pt x="7" y="-3" on="0"/>
        <pt x="0" y="0" on="1"/>
        <pt x="0" y="45" on="1"/>
        <pt x="21" y="45" on="0"/>
        <pt x="55" y="61" on="0"/>
        <pt x="81" y="100" on="0"/>
        <pt x="98" y="163" on="0"/>
        <pt x="100" y="210" on="1"/>
        <pt x="125" y="700" on="1"/>
        <pt x="460" y="700" on="1"/>
        <pt x="460" y="415" on="1"/>
        <pt x="479" y="419" on="0"/>
        <pt x="537" y="425" on="0"/>
      </contour>
      <contour>
        <pt x="460" y="355" on="1"/>
        <pt x="460" y="55" on="1"/>
        <pt x="530" y="55" on="1"/>
        <pt x="598" y="55" on="0"/>
        <pt x="660" y="122" on="0"/>
        <pt x="660" y="205" on="1"/>
        <pt x="660" y="288" on="0"/>
        <pt x="598" y="355" on="0"/>
        <pt x="530" y="355" on="1"/>
      </contour>
    </TTGlyph>
    <TTGlyph name="afii10059" xMin="70" yMin="-10" xMax="750" yMax="700">
      <contour>
        <pt x="560" y="405" on="1"/>
        <pt x="658" y="405" on="0"/>
        <pt x="750" y="308" on="0"/>
        <pt x="750" y="195" on="1"/>
        <pt x="750" y="141" on="0"/>
        <pt x="726" y="63" on="0"/>
        <pt x="674" y="13" on="0"/>
        <pt x="590" y="-10" on="0"/>
        <pt x="530" y="-10" on="1"/>
        <pt x="485" y="-10" on="0"/>
        <pt x="408" y="-2" on="0"/>
        <pt x="371" y="9" on="1"/>
        <pt x="370" y="0" on="1"/>
        <pt x="370" y="335" on="1"/>
        <pt x="160" y="335" on="1"/>
        <pt x="160" y="0" on="1"/>
        <pt x="70" y="0" on="1"/>
        <pt x="70" y="700" on="1"/>
        <pt x="160" y="700" on="1"/>
        <pt x="160" y="405" on="1"/>
        <pt x="370" y="405" on="1"/>
        <pt x="370" y="700" on="1"/>
        <pt x="460" y="700" on="1"/>
        <pt x="460" y="395" on="1"/>
        <pt x="479" y="399" on="0"/>
        <pt x="537" y="405" on="0"/>
      </contour>
      <contour>
        <pt x="460" y="335" on="1"/>
        <pt x="460" y="55" on="1"/>
        <pt x="530" y="55" on="1"/>
        <pt x="598" y="55" on="0"/>
        <pt x="660" y="120" on="0"/>
        <pt x="660" y="195" on="1"/>
        <pt x="660" y="270" on="0"/>
        <pt x="598" y="335" on="0"/>
        <pt x="530" y="335" on="1"/>
      </contour>
    </TTGlyph>
    <TTGlyph name="afii10060" xMin="0" yMin="0" xMax="510" yMax="700">
      <contour>
        <pt x="325" y="440" on="1"/>
        <pt x="419" y="440" on="0"/>
        <pt x="510" y="347" on="0"/>
        <pt x="510" y="245" on="1"/>
        <pt x="510" y="0" on="1"/>
        <pt x="420" y="0" on="1"/>
        <pt x="420" y="245" on="1"/>
        <pt x="420" y="309" on="0"/>
        <pt x="357" y="370" on="0"/>
        <pt x="285" y="370" on="1"/>
        <pt x="215" y="370" on="1"/>
        <pt x="215" y="0" on="1"/>
        <pt x="125" y="0" on="1"/>
        <pt x="125" y="630" on="1"/>
        <pt x="0" y="630" on="1"/>
        <pt x="0" y="700" on="1"/>
        <pt x="360" y="700" on="1"/>
        <pt x="360" y="630" on="1"/>
        <pt x="215" y="630" on="1"/>
        <pt x="215" y="430" on="1"/>
        <pt x="234" y="434" on="0"/>
        <pt x="295" y="440" on="0"/>
      </contour>
    </TTGlyph>
    <TTGlyph name="afii10061" xMin="70" yMin="-10" xMax="490" yMax="870">
      <contour>
        <pt x="220" y="740" on="1"/>
        <pt x="255" y="870" on="1"/>
        <pt x="350" y="870" on="1"/>
        <pt x="280" y="740" on="1"/>
      </contour>
      <contour>
        <pt x="285" y="363" on="1"/>
        <pt x="304" y="358" on="0"/>
        <pt x="335" y="342" on="0"/>
        <pt x="360" y="314" on="0"/>
        <pt x="379" y="271" on="0"/>
        <pt x="385" y="240" on="1"/>
        <pt x="410" y="110" on="1"/>
        <pt x="415" y="84" on="0"/>
        <pt x="452" y="45" on="0"/>
        <pt x="490" y="45" on="1"/>
        <pt x="490" y="0" on="1"/>
        <pt x="483" y="-3" on="0"/>
        <pt x="473" y="-5" on="1"/>
        <pt x="455" y="-10" on="0"/>
        <pt x="430" y="-10" on="1"/>
        <pt x="385" y="-10" on="0"/>
        <pt x="326" y="50" on="0"/>
        <pt x="315" y="110" on="1"/>
        <pt x="290" y="240" on="1"/>
        <pt x="280" y="293" on="0"/>
        <pt x="229" y="330" on="0"/>
        <pt x="195" y="330" on="1"/>
        <pt x="160" y="330" on="1"/>
        <pt x="160" y="0" on="1"/>
        <pt x="70" y="0" on="1"/>
        <pt x="70" y="700" on="1"/>
        <pt x="160" y="700" on="1"/>
        <pt x="160" y="400" on="1"/>
        <pt x="195" y="400" on="1"/>
        <pt x="221" y="400" on="0"/>
        <pt x="267" y="438" on="0"/>
        <pt x="280" y="490" on="1"/>
        <pt x="305" y="590" on="1"/>
        <pt x="335" y="710" on="0"/>
        <pt x="420" y="710" on="1"/>
        <pt x="433" y="710" on="0"/>
        <pt x="455" y="707" on="0"/>
        <pt x="463" y="705" on="1"/>
        <pt x="473" y="702" on="0"/>
        <pt x="480" y="700" on="1"/>
        <pt x="480" y="655" on="1"/>
        <pt x="442" y="655" on="0"/>
        <pt x="408" y="620" on="0"/>
        <pt x="400" y="590" on="1"/>
        <pt x="375" y="490" on="1"/>
        <pt x="367" y="459" on="0"/>
        <pt x="350" y="416" on="0"/>
        <pt x="328" y="388" on="0"/>
        <pt x="302" y="372" on="0"/>
        <pt x="285" y="367" on="1"/>
      </contour>
    </TTGlyph>
    <TTGlyph name="afii10062" xMin="0" yMin="-10" xMax="440" yMax="865">
      <contour>
        <pt x="230" y="820" on="1"/>
        <pt x="264" y="820" on="0"/>
        <pt x="315" y="850" on="0"/>
        <pt x="330" y="865" on="1"/>
        <pt x="370" y="825" on="1"/>
        <pt x="351" y="791" on="0"/>
        <pt x="279" y="750" on="0"/>
        <pt x="230" y="750" on="1"/>
        <pt x="181" y="750" on="0"/>
        <pt x="109" y="791" on="0"/>
        <pt x="90" y="825" on="1"/>
        <pt x="130" y="865" on="1"/>
        <pt x="145" y="850" on="0"/>
        <pt x="196" y="820" on="0"/>
      </contour>
      <contour>
        <pt x="180" y="-10" on="1"/>
        <pt x="157" y="-10" on="0"/>
        <pt x="103" y="2" on="0"/>
        <pt x="80" y="10" on="1"/>
        <pt x="80" y="55" on="1"/>
        <pt x="150" y="55" on="1"/>
        <pt x="171" y="55" on="0"/>
        <pt x="204" y="69" on="0"/>
        <pt x="231" y="103" on="0"/>
        <pt x="251" y="159" on="0"/>
        <pt x="257" y="200" on="1"/>
        <pt x="199" y="200" on="0"/>
        <pt x="127" y="263" on="0"/>
        <pt x="110" y="320" on="1"/>
        <pt x="0" y="700" on="1"/>
        <pt x="90" y="700" on="1"/>
        <pt x="200" y="320" on="1"/>
        <pt x="216" y="265" on="0"/>
        <pt x="270" y="265" on="1"/>
        <pt x="350" y="700" on="1"/>
        <pt x="440" y="700" on="1"/>
        <pt x="340" y="160" on="1"/>
        <pt x="323" y="70" on="0"/>
        <pt x="247" y="-10" on="0"/>
      </contour>
    </TTGlyph>
    <TTGlyph name="afii10065" xMin="45" yMin="-10" xMax="385" yMax="510">
      <contour>
        <pt x="295" y="245" on="1"/>
        <pt x="225" y="245" on="1"/>
        <pt x="187" y="245" on="0"/>
        <pt x="135" y="206" on="0"/>
        <pt x="135" y="150" on="1"/>
        <pt x="135" y="120" on="0"/>
        <pt x="149" y="81" on="0"/>
        <pt x="173" y="59" on="0"/>
        <pt x="206" y="50" on="0"/>
        <pt x="225" y="50" on="1"/>
        <pt x="244" y="50" on="0"/>
        <pt x="284" y="62" on="0"/>
        <pt x="295" y="70" on="1"/>
      </contour>
      <contour>
        <pt x="195" y="-10" on="1"/>
        <pt x="161" y="-10" on="0"/>
        <pt x="106" y="3" on="0"/>
        <pt x="67" y="39" on="0"/>
        <pt x="45" y="101" on="0"/>
        <pt x="45" y="150" on="1"/>
        <pt x="45" y="197" on="0"/>
        <pt x="67" y="257" on="0"/>
        <pt x="106" y="292" on="0"/>
        <pt x="161" y="305" on="0"/>
        <pt x="195" y="305" on="1"/>
        <pt x="218" y="305" on="0"/>
        <pt x="272" y="299" on="0"/>
        <pt x="295" y="295" on="1"/>
        <pt x="295" y="340" on="1"/>
        <pt x="295" y="374" on="0"/>
        <pt x="280" y="417" on="0"/>
        <pt x="252" y="441" on="0"/>
        <pt x="211" y="450" on="0"/>
        <pt x="185" y="450" on="1"/>
        <pt x="85" y="450" on="1"/>
        <pt x="85" y="490" on="1"/>
        <pt x="108" y="498" on="0"/>
        <pt x="175" y="510" on="0"/>
        <pt x="205" y="510" on="1"/>
        <pt x="250" y="510" on="0"/>
        <pt x="317" y="496" on="0"/>
        <pt x="362" y="459" on="0"/>
        <pt x="385" y="392" on="0"/>
        <pt x="385" y="340" on="1"/>
        <pt x="385" y="0" on="1"/>
        <pt x="310" y="0" on="1"/>
        <pt x="305" y="30" on="1"/>
        <pt x="300" y="30" on="1"/>
        <pt x="281" y="11" on="0"/>
        <pt x="225" y="-10" on="0"/>
      </contour>
    </TTGlyph>
    <TTGlyph name="afii10066" xMin="55" yMin="-10" xMax="425" yMax="710">
      <contour>
        <pt x="145" y="455" on="1"/>
        <pt x="168" y="466" on="0"/>
        <pt x="216" y="480" on="0"/>
        <pt x="250" y="480" on="1"/>
        <pt x="293" y="480" on="0"/>
        <pt x="359" y="455" on="0"/>
        <pt x="403" y="398" on="0"/>
        <pt x="425" y="304" on="0"/>
        <pt x="425" y="235" on="1"/>
        <pt x="425" y="166" on="0"/>
        <pt x="402" y="72" on="0"/>
        <pt x="356" y="15" on="0"/>
        <pt x="287" y="-10" on="0"/>
        <pt x="240" y="-10" on="1"/>
        <pt x="193" y="-10" on="0"/>
        <pt x="124" y="15" on="0"/>
        <pt x="78" y="72" on="0"/>
        <pt x="55" y="166" on="0"/>
        <pt x="55" y="235" on="1"/>
        <pt x="55" y="400" on="1"/>
        <pt x="55" y="486" on="0"/>
        <pt x="81" y="601" on="0"/>
        <pt x="140" y="671" on="0"/>
        <pt x="236" y="702" on="0"/>
        <pt x="305" y="705" on="1"/>
        <pt x="415" y="710" on="1"/>
        <pt x="420" y="670" on="1"/>
        <pt x="394" y="659" on="0"/>
        <pt x="332" y="639" on="0"/>
        <pt x="290" y="635" on="1"/>
        <pt x="252" y="631" on="0"/>
        <pt x="198" y="609" on="0"/>
        <pt x="162" y="567" on="0"/>
        <pt x="145" y="502" on="0"/>
      </contour>
      <contour>
        <pt x="145" y="235" on="1"/>
        <pt x="145" y="179" on="0"/>
        <pt x="159" y="105" on="0"/>
        <pt x="185" y="62" on="0"/>
        <pt x="219" y="45" on="0"/>
        <pt x="240" y="45" on="1"/>
        <pt x="261" y="45" on="0"/>
        <pt x="295" y="62" on="0"/>
        <pt x="321" y="105" on="0"/>
        <pt x="335" y="179" on="0"/>
        <pt x="335" y="235" on="1"/>
        <pt x="335" y="289" on="0"/>
        <pt x="320" y="361" on="0"/>
        <pt x="291" y="403" on="0"/>
        <pt x="248" y="420" on="0"/>
        <pt x="220" y="420" on="1"/>
        <pt x="197" y="420" on="0"/>
        <pt x="156" y="408" on="0"/>
        <pt x="145" y="400" on="1"/>
      </contour>
    </TTGlyph>
    <TTGlyph name="afii10067" xMin="65" yMin="-10" xMax="410" yMax="510">
      <contour>
        <pt x="225" y="50" on="1"/>
        <pt x="270" y="50" on="0"/>
        <pt x="320" y="87" on="0"/>
        <pt x="320" y="140" on="1"/>
        <pt x="320" y="193" on="0"/>
        <pt x="270" y="230" on="0"/>
        <pt x="225" y="230" on="1"/>
        <pt x="155" y="230" on="1"/>
        <pt x="155" y="50" on="1"/>
      </contour>
      <contour>
        <pt x="155" y="450" on="1"/>
        <pt x="155" y="290" on="1"/>
        <pt x="215" y="290" on="1"/>
        <pt x="253" y="290" on="0"/>
        <pt x="300" y="325" on="0"/>
        <pt x="300" y="370" on="1"/>
        <pt x="300" y="415" on="0"/>
        <pt x="253" y="450" on="0"/>
        <pt x="215" y="450" on="1"/>
      </contour>
      <contour>
        <pt x="65" y="490" on="1"/>
        <pt x="103" y="501" on="0"/>
        <pt x="177" y="510" on="0"/>
        <pt x="215" y="510" on="1"/>
        <pt x="258" y="510" on="0"/>
        <pt x="324" y="497" on="0"/>
        <pt x="368" y="465" on="0"/>
        <pt x="390" y="411" on="0"/>
        <pt x="390" y="370" on="1"/>
        <pt x="390" y="346" on="0"/>
        <pt x="378" y="311" on="0"/>
        <pt x="358" y="287" on="0"/>
        <pt x="333" y="272" on="0"/>
        <pt x="320" y="267" on="1"/>
        <pt x="320" y="263" on="1"/>
        <pt x="337" y="258" on="0"/>
        <pt x="369" y="240" on="0"/>
        <pt x="395" y="210" on="0"/>
        <pt x="410" y="168" on="0"/>
        <pt x="410" y="140" on="1"/>
        <pt x="410" y="95" on="0"/>
        <pt x="387" y="37" on="0"/>
        <pt x="341" y="3" on="0"/>
        <pt x="272" y="-10" on="0"/>
        <pt x="225" y="-10" on="1"/>
        <pt x="180" y="-10" on="0"/>
        <pt x="103" y="-1" on="0"/>
        <pt x="65" y="10" on="1"/>
      </contour>
    </TTGlyph>
    <TTGlyph name="afii10068" xMin="65" yMin="0" xMax="355" yMax="500">
      <contour>
        <pt x="355" y="500" on="1"/>
        <pt x="355" y="435" on="1"/>
        <pt x="155" y="435" on="1"/>
        <pt x="155" y="0" on="1"/>
        <pt x="65" y="0" on="1"/>
        <pt x="65" y="500" on="1"/>
      </contour>
    </TTGlyph>
    <TTGlyph name="afii10069" xMin="10" yMin="-145" xMax="470" yMax="500">
      <contour>
        <pt x="470" y="65" on="1"/>
        <pt x="470" y="-145" on="1"/>
        <pt x="415" y="-145" on="1"/>
        <pt x="404" y="-115" on="0"/>
        <pt x="389" y="-38" on="0"/>
        <pt x="385" y="0" on="1"/>
        <pt x="95" y="0" on="1"/>
        <pt x="91" y="-38" on="0"/>
        <pt x="76" y="-115" on="0"/>
        <pt x="65" y="-145" on="1"/>
        <pt x="10" y="-145" on="1"/>
        <pt x="10" y="65" on="1"/>
        <pt x="55" y="65" on="1"/>
        <pt x="66" y="82" on="0"/>
        <pt x="97" y="150" on="0"/>
        <pt x="100" y="210" on="1"/>
        <pt x="115" y="500" on="1"/>
        <pt x="410" y="500" on="1"/>
        <pt x="410" y="65" on="1"/>
      </contour>
      <contour>
        <pt x="202" y="435" on="1"/>
        <pt x="190" y="210" on="1"/>
        <pt x="187" y="150" on="0"/>
        <pt x="156" y="82" on="0"/>
        <pt x="145" y="65" on="1"/>
        <pt x="320" y="65" on="1"/>
        <pt x="320" y="435" on="1"/>
      </contour>
    </TTGlyph>
    <TTGlyph name="afii10070" xMin="45" yMin="-10" xMax="395" yMax="510">
      <contour>
        <pt x="395" y="220" on="1"/>
        <pt x="135" y="220" on="1"/>
        <pt x="135" y="171" on="0"/>
        <pt x="151" y="106" on="0"/>
        <pt x="184" y="67" on="0"/>
        <pt x="237" y="50" on="0"/>
        <pt x="275" y="50" on="1"/>
        <pt x="375" y="50" on="1"/>
        <pt x="375" y="10" on="1"/>
        <pt x="352" y="2" on="0"/>
        <pt x="285" y="-10" on="0"/>
        <pt x="255" y="-10" on="1"/>
        <pt x="199" y="-10" on="0"/>
        <pt x="119" y="15" on="0"/>
        <pt x="68" y="75" on="0"/>
        <pt x="45" y="175" on="0"/>
        <pt x="45" y="250" on="1"/>
        <pt x="45" y="325" on="0"/>
        <pt x="67" y="425" on="0"/>
        <pt x="111" y="485" on="0"/>
        <pt x="177" y="510" on="0"/>
        <pt x="220" y="510" on="1"/>
        <pt x="263" y="510" on="0"/>
        <pt x="329" y="485" on="0"/>
        <pt x="373" y="425" on="0"/>
        <pt x="395" y="325" on="0"/>
        <pt x="395" y="250" on="1"/>
      </contour>
      <contour>
        <pt x="305" y="280" on="1"/>
        <pt x="305" y="331" on="0"/>
        <pt x="291" y="398" on="0"/>
        <pt x="268" y="438" on="0"/>
        <pt x="237" y="455" on="0"/>
        <pt x="220" y="455" on="1"/>
        <pt x="203" y="455" on="0"/>
        <pt x="172" y="438" on="0"/>
        <pt x="149" y="398" on="0"/>
        <pt x="135" y="331" on="0"/>
        <pt x="135" y="280" on="1"/>
      </contour>
    </TTGlyph>
    <TTGlyph name="afii10071" xMin="45" yMin="-10" xMax="395" yMax="680">
      <contour>
        <pt x="395" y="220" on="1"/>
        <pt x="135" y="220" on="1"/>
        <pt x="135" y="171" on="0"/>
        <pt x="151" y="106" on="0"/>
        <pt x="184" y="67" on="0"/>
        <pt x="237" y="50" on="0"/>
        <pt x="275" y="50" on="1"/>
        <pt x="375" y="50" on="1"/>
        <pt x="375" y="10" on="1"/>
        <pt x="352" y="2" on="0"/>
        <pt x="285" y="-10" on="0"/>
        <pt x="255" y="-10" on="1"/>
        <pt x="199" y="-10" on="0"/>
        <pt x="119" y="15" on="0"/>
        <pt x="68" y="75" on="0"/>
        <pt x="45" y="175" on="0"/>
        <pt x="45" y="250" on="1"/>
        <pt x="45" y="325" on="0"/>
        <pt x="67" y="425" on="0"/>
        <pt x="111" y="485" on="0"/>
        <pt x="177" y="510" on="0"/>
        <pt x="220" y="510" on="1"/>
        <pt x="263" y="510" on="0"/>
        <pt x="329" y="485" on="0"/>
        <pt x="373" y="425" on="0"/>
        <pt x="395" y="325" on="0"/>
        <pt x="395" y="250" on="1"/>
      </contour>
      <contour>
        <pt x="305" y="280" on="1"/>
        <pt x="305" y="331" on="0"/>
        <pt x="291" y="398" on="0"/>
        <pt x="268" y="438" on="0"/>
        <pt x="237" y="455" on="0"/>
        <pt x="220" y="455" on="1"/>
        <pt x="203" y="455" on="0"/>
        <pt x="172" y="438" on="0"/>
        <pt x="149" y="398" on="0"/>
        <pt x="135" y="331" on="0"/>
        <pt x="135" y="280" on="1"/>
      </contour>
      <contour>
        <pt x="185" y="680" on="1"/>
        <pt x="185" y="570" on="1"/>
        <pt x="95" y="570" on="1"/>
        <pt x="95" y="680" on="1"/>
      </contour>
      <contour>
        <pt x="345" y="680" on="1"/>
        <pt x="345" y="570" on="1"/>
        <pt x="255" y="570" on="1"/>
        <pt x="255" y="680" on="1"/>
      </contour>
    </TTGlyph>
    <TTGlyph name="afii10072" xMin="10" yMin="-10" xMax="632" yMax="510">
      <contour>
        <pt x="276" y="295" on="1"/>
        <pt x="276" y="500" on="1"/>
        <pt x="366" y="500" on="1"/>
        <pt x="366" y="295" on="1"/>
        <pt x="386" y="295" on="1"/>
        <pt x="402" y="295" on="0"/>
        <pt x="430" y="321" on="0"/>
        <pt x="442" y="355" on="1"/>
        <pt x="467" y="425" on="1"/>
        <pt x="483" y="469" on="0"/>
        <pt x="525" y="510" on="0"/>
        <pt x="567" y="510" on="1"/>
        <pt x="576" y="510" on="0"/>
        <pt x="596" y="507" on="0"/>
        <pt x="604" y="505" on="1"/>
        <pt x="614" y="502" on="0"/>
        <pt x="622" y="500" on="1"/>
        <pt x="622" y="460" on="1"/>
        <pt x="592" y="460" on="0"/>
        <pt x="567" y="440" on="0"/>
        <pt x="562" y="425" on="1"/>
        <pt x="537" y="355" on="1"/>
        <pt x="521" y="310" on="0"/>
        <pt x="489" y="273" on="0"/>
        <pt x="466" y="267" on="1"/>
        <pt x="466" y="263" on="1"/>
        <pt x="493" y="257" on="0"/>
        <pt x="534" y="219" on="0"/>
        <pt x="547" y="170" on="1"/>
        <pt x="572" y="75" on="1"/>
        <pt x="576" y="60" on="0"/>
        <pt x="602" y="40" on="0"/>
        <pt x="632" y="40" on="1"/>
        <pt x="632" y="0" on="1"/>
        <pt x="625" y="-3" on="0"/>
        <pt x="616" y="-5" on="1"/>
        <pt x="599" y="-10" on="0"/>
        <pt x="577" y="-10" on="1"/>
        <pt x="535" y="-10" on="0"/>
        <pt x="488" y="33" on="0"/>
        <pt x="477" y="75" on="1"/>
        <pt x="452" y="170" on="1"/>
        <pt x="435" y="230" on="0"/>
        <pt x="386" y="230" on="1"/>
        <pt x="366" y="230" on="1"/>
        <pt x="366" y="0" on="1"/>
        <pt x="276" y="0" on="1"/>
        <pt x="276" y="230" on="1"/>
        <pt x="256" y="230" on="1"/>
        <pt x="233" y="230" on="0"/>
        <pt x="198" y="200" on="0"/>
        <pt x="190" y="170" on="1"/>
        <pt x="165" y="75" on="1"/>
        <pt x="154" y="33" on="0"/>
        <pt x="107" y="-10" on="0"/>
        <pt x="65" y="-10" on="1"/>
        <pt x="43" y="-10" on="0"/>
        <pt x="26" y="-5" on="1"/>
        <pt x="17" y="-3" on="0"/>
        <pt x="10" y="0" on="1"/>
        <pt x="10" y="40" on="1"/>
        <pt x="40" y="40" on="0"/>
        <pt x="66" y="60" on="0"/>
        <pt x="70" y="75" on="1"/>
        <pt x="95" y="170" on="1"/>
        <pt x="108" y="219" on="0"/>
        <pt x="149" y="257" on="0"/>
        <pt x="176" y="263" on="1"/>
        <pt x="176" y="267" on="1"/>
        <pt x="153" y="273" on="0"/>
        <pt x="121" y="310" on="0"/>
        <pt x="105" y="355" on="1"/>
        <pt x="80" y="425" on="1"/>
        <pt x="75" y="440" on="0"/>
        <pt x="50" y="460" on="0"/>
        <pt x="20" y="460" on="1"/>
        <pt x="20" y="500" on="1"/>
        <pt x="28" y="502" on="0"/>
        <pt x="38" y="505" on="1"/>
        <pt x="46" y="507" on="0"/>
        <pt x="65" y="510" on="0"/>
        <pt x="75" y="510" on="1"/>
        <pt x="117" y="510" on="0"/>
        <pt x="159" y="469" on="0"/>
        <pt x="175" y="425" on="1"/>
        <pt x="200" y="355" on="1"/>
        <pt x="212" y="321" on="0"/>
        <pt x="240" y="295" on="0"/>
        <pt x="256" y="295" on="1"/>
      </contour>
    </TTGlyph>
    <TTGlyph name="afii10073" xMin="15" yMin="-10" xMax="340" yMax="510">
      <contour>
        <pt x="145" y="510" on="1"/>
        <pt x="192" y="510" on="0"/>
        <pt x="261" y="497" on="0"/>
        <pt x="307" y="465" on="0"/>
        <pt x="330" y="411" on="0"/>
        <pt x="330" y="370" on="1"/>
        <pt x="330" y="346" on="0"/>
        <pt x="316" y="311" on="0"/>
        <pt x="294" y="287" on="0"/>
        <pt x="265" y="272" on="0"/>
        <pt x="250" y="267" on="1"/>
        <pt x="250" y="263" on="1"/>
        <pt x="267" y="258" on="0"/>
        <pt x="299" y="240" on="0"/>
        <pt x="325" y="210" on="0"/>
        <pt x="340" y="168" on="0"/>
        <pt x="340" y="140" on="1"/>
        <pt x="340" y="95" on="0"/>
        <pt x="317" y="37" on="0"/>
        <pt x="267" y="3" on="0"/>
        <pt x="189" y="-10" on="0"/>
        <pt x="135" y="-10" on="1"/>
        <pt x="105" y="-10" on="0"/>
        <pt x="38" y="2" on="0"/>
        <pt x="15" y="10" on="1"/>
        <pt x="15" y="50" on="1"/>
        <pt x="135" y="50" on="1"/>
        <pt x="192" y="50" on="0"/>
        <pt x="250" y="87" on="0"/>
        <pt x="250" y="140" on="1"/>
        <pt x="250" y="192" on="0"/>
        <pt x="199" y="230" on="0"/>
        <pt x="165" y="230" on="1"/>
        <pt x="80" y="230" on="1"/>
        <pt x="80" y="290" on="1"/>
        <pt x="155" y="290" on="1"/>
        <pt x="189" y="290" on="0"/>
        <pt x="240" y="325" on="0"/>
        <pt x="240" y="370" on="1"/>
        <pt x="240" y="415" on="0"/>
        <pt x="182" y="450" on="0"/>
        <pt x="125" y="450" on="1"/>
        <pt x="25" y="450" on="1"/>
        <pt x="25" y="490" on="1"/>
        <pt x="48" y="498" on="0"/>
        <pt x="115" y="510" on="0"/>
      </contour>
    </TTGlyph>
    <TTGlyph name="afii10074" xMin="65" yMin="0" xMax="415" yMax="500">
      <contour>
        <pt x="325" y="350" on="1"/>
        <pt x="320" y="350" on="1"/>
        <pt x="160" y="0" on="1"/>
        <pt x="65" y="0" on="1"/>
        <pt x="65" y="500" on="1"/>
        <pt x="155" y="500" on="1"/>
        <pt x="155" y="160" on="1"/>
        <pt x="160" y="160" on="1"/>
        <pt x="310" y="500" on="1"/>
        <pt x="415" y="500" on="1"/>
        <pt x="415" y="0" on="1"/>
        <pt x="325" y="0" on="1"/>
      </contour>
    </TTGlyph>
    <TTGlyph name="afii10075" xMin="65" yMin="0" xMax="415" yMax="670">
      <contour>
        <pt x="325" y="350" on="1"/>
        <pt x="320" y="350" on="1"/>
        <pt x="160" y="0" on="1"/>
        <pt x="65" y="0" on="1"/>
        <pt x="65" y="500" on="1"/>
        <pt x="155" y="500" on="1"/>
        <pt x="155" y="160" on="1"/>
        <pt x="160" y="160" on="1"/>
        <pt x="310" y="500" on="1"/>
        <pt x="415" y="500" on="1"/>
        <pt x="415" y="0" on="1"/>
        <pt x="325" y="0" on="1"/>
      </contour>
      <contour>
        <pt x="235" y="630" on="1"/>
        <pt x="265" y="630" on="0"/>
        <pt x="315" y="655" on="0"/>
        <pt x="330" y="670" on="1"/>
        <pt x="370" y="630" on="1"/>
        <pt x="351" y="600" on="0"/>
        <pt x="284" y="560" on="0"/>
        <pt x="235" y="560" on="1"/>
        <pt x="186" y="560" on="0"/>
        <pt x="119" y="600" on="0"/>
        <pt x="100" y="630" on="1"/>
        <pt x="140" y="670" on="1"/>
        <pt x="155" y="655" on="0"/>
        <pt x="205" y="630" on="0"/>
      </contour>
    </TTGlyph>
    <TTGlyph name="afii10076" xMin="65" yMin="-10" xMax="435" yMax="510">
      <contour>
        <pt x="269" y="263" on="1"/>
        <pt x="296" y="257" on="0"/>
        <pt x="337" y="219" on="0"/>
        <pt x="350" y="170" on="1"/>
        <pt x="375" y="75" on="1"/>
        <pt x="379" y="60" on="0"/>
        <pt x="405" y="40" on="0"/>
        <pt x="435" y="40" on="1"/>
        <pt x="435" y="0" on="1"/>
        <pt x="428" y="-3" on="0"/>
        <pt x="419" y="-5" on="1"/>
        <pt x="402" y="-10" on="0"/>
        <pt x="380" y="-10" on="1"/>
        <pt x="338" y="-10" on="0"/>
        <pt x="291" y="33" on="0"/>
        <pt x="280" y="75" on="1"/>
        <pt x="255" y="170" on="1"/>
        <pt x="238" y="230" on="0"/>
        <pt x="189" y="230" on="1"/>
        <pt x="155" y="230" on="1"/>
        <pt x="155" y="0" on="1"/>
        <pt x="65" y="0" on="1"/>
        <pt x="65" y="500" on="1"/>
        <pt x="155" y="500" on="1"/>
        <pt x="155" y="295" on="1"/>
        <pt x="189" y="295" on="1"/>
        <pt x="205" y="295" on="0"/>
        <pt x="233" y="321" on="0"/>
        <pt x="245" y="355" on="1"/>
        <pt x="270" y="425" on="1"/>
        <pt x="286" y="469" on="0"/>
        <pt x="328" y="510" on="0"/>
        <pt x="370" y="510" on="1"/>
        <pt x="379" y="510" on="0"/>
        <pt x="399" y="507" on="0"/>
        <pt x="407" y="505" on="1"/>
        <pt x="417" y="502" on="0"/>
        <pt x="425" y="500" on="1"/>
        <pt x="425" y="460" on="1"/>
        <pt x="395" y="460" on="0"/>
        <pt x="370" y="440" on="0"/>
        <pt x="365" y="425" on="1"/>
        <pt x="340" y="355" on="1"/>
        <pt x="324" y="310" on="0"/>
        <pt x="292" y="273" on="0"/>
        <pt x="269" y="267" on="1"/>
      </contour>
    </TTGlyph>
    <TTGlyph name="afii10077" xMin="0" yMin="-10" xMax="406" yMax="500">
      <contour>
        <pt x="406" y="500" on="1"/>
        <pt x="406" y="0" on="1"/>
        <pt x="316" y="0" on="1"/>
        <pt x="316" y="435" on="1"/>
        <pt x="186" y="435" on="1"/>
        <pt x="170" y="160" on="1"/>
        <pt x="165" y="70" on="0"/>
        <pt x="100" y="-10" on="0"/>
        <pt x="55" y="-10" on="1"/>
        <pt x="32" y="-10" on="0"/>
        <pt x="1" y="0" on="0"/>
        <pt x="0" y="0" on="1"/>
        <pt x="0" y="40" on="1"/>
        <pt x="30" y="40" on="0"/>
        <pt x="76" y="96" on="0"/>
        <pt x="80" y="160" on="1"/>
        <pt x="100" y="500" on="1"/>
      </contour>
    </TTGlyph>
    <TTGlyph name="afii10078" xMin="55" yMin="0" xMax="575" yMax="500">
      <contour>
        <pt x="317" y="185" on="1"/>
        <pt x="435" y="500" on="1"/>
        <pt x="540" y="500" on="1"/>
        <pt x="575" y="0" on="1"/>
        <pt x="490" y="0" on="1"/>
        <pt x="465" y="355" on="1"/>
        <pt x="460" y="355" on="1"/>
        <pt x="355" y="75" on="1"/>
        <pt x="275" y="75" on="1"/>
        <pt x="170" y="355" on="1"/>
        <pt x="165" y="355" on="1"/>
        <pt x="140" y="0" on="1"/>
        <pt x="55" y="0" on="1"/>
        <pt x="90" y="500" on="1"/>
        <pt x="195" y="500" on="1"/>
        <pt x="313" y="185" on="1"/>
      </contour>
    </TTGlyph>
    <TTGlyph name="afii10079" xMin="65" yMin="0" xMax="410" yMax="500">
      <contour>
        <pt x="155" y="0" on="1"/>
        <pt x="65" y="0" on="1"/>
        <pt x="65" y="500" on="1"/>
        <pt x="155" y="500" on="1"/>
        <pt x="155" y="285" on="1"/>
        <pt x="320" y="285" on="1"/>
        <pt x="320" y="500" on="1"/>
        <pt x="410" y="500" on="1"/>
        <pt x="410" y="0" on="1"/>
        <pt x="320" y="0" on="1"/>
        <pt x="320" y="220" on="1"/>
        <pt x="155" y="220" on="1"/>
      </contour>
    </TTGlyph>
    <TTGlyph name="afii10080" xMin="45" yMin="-10" xMax="415" yMax="510">
      <contour>
        <pt x="325" y="250" on="1"/>
        <pt x="325" y="310" on="0"/>
        <pt x="309" y="389" on="0"/>
        <pt x="283" y="436" on="0"/>
        <pt x="249" y="455" on="0"/>
        <pt x="230" y="455" on="1"/>
        <pt x="211" y="455" on="0"/>
        <pt x="177" y="436" on="0"/>
        <pt x="151" y="389" on="0"/>
        <pt x="135" y="310" on="0"/>
        <pt x="135" y="250" on="1"/>
        <pt x="135" y="190" on="0"/>
        <pt x="151" y="111" on="0"/>
        <pt x="177" y="64" on="0"/>
        <pt x="211" y="45" on="0"/>
        <pt x="230" y="45" on="1"/>
        <pt x="249" y="45" on="0"/>
        <pt x="283" y="64" on="0"/>
        <pt x="309" y="111" on="0"/>
        <pt x="325" y="190" on="0"/>
      </contour>
      <contour>
        <pt x="415" y="250" on="1"/>
        <pt x="415" y="177" on="0"/>
        <pt x="391" y="77" on="0"/>
        <pt x="344" y="16" on="0"/>
        <pt x="275" y="-10" on="0"/>
        <pt x="230" y="-10" on="1"/>
        <pt x="185" y="-10" on="0"/>
        <pt x="116" y="16" on="0"/>
        <pt x="69" y="77" on="0"/>
        <pt x="45" y="177" on="0"/>
        <pt x="45" y="250" on="1"/>
        <pt x="45" y="323" on="0"/>
        <pt x="69" y="423" on="0"/>
        <pt x="116" y="484" on="0"/>
        <pt x="185" y="510" on="0"/>
        <pt x="230" y="510" on="1"/>
        <pt x="275" y="510" on="0"/>
        <pt x="344" y="484" on="0"/>
        <pt x="391" y="423" on="0"/>
        <pt x="415" y="323" on="0"/>
      </contour>
    </TTGlyph>
    <TTGlyph name="afii10081" xMin="65" yMin="0" xMax="410" yMax="500">
      <contour>
        <pt x="155" y="0" on="1"/>
        <pt x="65" y="0" on="1"/>
        <pt x="65" y="500" on="1"/>
        <pt x="410" y="500" on="1"/>
        <pt x="410" y="0" on="1"/>
        <pt x="320" y="0" on="1"/>
        <pt x="320" y="435" on="1"/>
        <pt x="155" y="435" on="1"/>
      </contour>
    </TTGlyph>
    <TTGlyph name="afii10082" xMin="65" yMin="-200" xMax="420" yMax="510">
      <contour>
        <pt x="150" y="470" on="1"/>
        <pt x="169" y="489" on="0"/>
        <pt x="225" y="510" on="0"/>
        <pt x="255" y="510" on="1"/>
        <pt x="294" y="510" on="0"/>
        <pt x="356" y="485" on="0"/>
        <pt x="398" y="425" on="0"/>
        <pt x="420" y="325" on="0"/>
        <pt x="420" y="250" on="1"/>
        <pt x="420" y="175" on="0"/>
        <pt x="398" y="75" on="0"/>
        <pt x="356" y="15" on="0"/>
        <pt x="294" y="-10" on="0"/>
        <pt x="255" y="-10" on="1"/>
        <pt x="225" y="-10" on="0"/>
        <pt x="178" y="4" on="0"/>
        <pt x="155" y="15" on="1"/>
        <pt x="155" y="-200" on="1"/>
        <pt x="65" y="-200" on="1"/>
        <pt x="65" y="500" on="1"/>
        <pt x="140" y="500" on="1"/>
        <pt x="145" y="470" on="1"/>
      </contour>
      <contour>
        <pt x="155" y="70" on="1"/>
        <pt x="166" y="62" on="0"/>
        <pt x="206" y="50" on="0"/>
        <pt x="225" y="50" on="1"/>
        <pt x="249" y="50" on="0"/>
        <pt x="288" y="67" on="0"/>
        <pt x="315" y="112" on="0"/>
        <pt x="330" y="190" on="0"/>
        <pt x="330" y="250" on="1"/>
        <pt x="330" y="310" on="0"/>
        <pt x="315" y="387" on="0"/>
        <pt x="288" y="432" on="0"/>
        <pt x="249" y="450" on="0"/>
        <pt x="225" y="450" on="1"/>
        <pt x="206" y="450" on="0"/>
        <pt x="166" y="438" on="0"/>
        <pt x="155" y="430" on="1"/>
      </contour>
    </TTGlyph>
    <TTGlyph name="afii10083" xMin="45" yMin="-10" xMax="360" yMax="510">
      <contour>
        <pt x="250" y="450" on="1"/>
        <pt x="222" y="450" on="0"/>
        <pt x="179" y="432" on="0"/>
        <pt x="150" y="387" on="0"/>
        <pt x="135" y="310" on="0"/>
        <pt x="135" y="250" on="1"/>
        <pt x="135" y="190" on="0"/>
        <pt x="150" y="112" on="0"/>
        <pt x="181" y="67" on="0"/>
        <pt x="228" y="50" on="0"/>
        <pt x="260" y="50" on="1"/>
        <pt x="360" y="50" on="1"/>
        <pt x="360" y="10" on="1"/>
        <pt x="337" y="2" on="0"/>
        <pt x="270" y="-10" on="0"/>
        <pt x="240" y="-10" on="1"/>
        <pt x="189" y="-10" on="0"/>
        <pt x="116" y="15" on="0"/>
        <pt x="68" y="75" on="0"/>
        <pt x="45" y="175" on="0"/>
        <pt x="45" y="250" on="1"/>
        <pt x="45" y="325" on="0"/>
        <pt x="68" y="425" on="0"/>
        <pt x="114" y="485" on="0"/>
        <pt x="183" y="510" on="0"/>
        <pt x="230" y="510" on="1"/>
        <pt x="260" y="510" on="0"/>
        <pt x="327" y="498" on="0"/>
        <pt x="350" y="490" on="1"/>
        <pt x="350" y="450" on="1"/>
      </contour>
    </TTGlyph>
    <TTGlyph name="afii10084" xMin="10" yMin="0" xMax="360" yMax="500">
      <contour>
        <pt x="360" y="500" on="1"/>
        <pt x="360" y="435" on="1"/>
        <pt x="230" y="435" on="1"/>
        <pt x="230" y="0" on="1"/>
        <pt x="140" y="0" on="1"/>
        <pt x="140" y="435" on="1"/>
        <pt x="10" y="435" on="1"/>
        <pt x="10" y="500" on="1"/>
      </contour>
    </TTGlyph>
    <TTGlyph name="afii10085" xMin="20" yMin="-210" xMax="415" yMax="500">
      <contour>
        <pt x="230" y="-10" on="1"/>
        <pt x="181" y="-10" on="0"/>
        <pt x="123" y="53" on="0"/>
        <pt x="110" y="110" on="1"/>
        <pt x="20" y="500" on="1"/>
        <pt x="110" y="500" on="1"/>
        <pt x="200" y="110" on="1"/>
        <pt x="207" y="80" on="0"/>
        <pt x="229" y="55" on="0"/>
        <pt x="242" y="55" on="1"/>
        <pt x="325" y="500" on="1"/>
        <pt x="415" y="500" on="1"/>
        <pt x="320" y="-10" on="1"/>
        <pt x="300" y="-115" on="0"/>
        <pt x="222" y="-210" on="0"/>
        <pt x="155" y="-210" on="1"/>
        <pt x="132" y="-210" on="0"/>
        <pt x="84" y="-198" on="0"/>
        <pt x="65" y="-190" on="1"/>
        <pt x="65" y="-150" on="1"/>
        <pt x="135" y="-150" on="1"/>
        <pt x="154" y="-150" on="0"/>
        <pt x="182" y="-139" on="0"/>
        <pt x="205" y="-108" on="0"/>
        <pt x="222" y="-53" on="0"/>
      </contour>
    </TTGlyph>
    <TTGlyph name="afii10086" xMin="40" yMin="-200" xMax="560" yMax="700">
      <contour>
        <pt x="255" y="700" on="1"/>
        <pt x="345" y="700" on="1"/>
        <pt x="345" y="505" on="1"/>
        <pt x="446" y="497" on="0"/>
        <pt x="560" y="374" on="0"/>
        <pt x="560" y="250" on="1"/>
        <pt x="560" y="126" on="0"/>
        <pt x="446" y="2" on="0"/>
        <pt x="345" y="-5" on="1"/>
        <pt x="345" y="-200" on="1"/>
        <pt x="255" y="-200" on="1"/>
        <pt x="255" y="-5" on="1"/>
        <pt x="154" y="2" on="0"/>
        <pt x="40" y="126" on="0"/>
        <pt x="40" y="250" on="1"/>
        <pt x="40" y="374" on="0"/>
        <pt x="154" y="497" on="0"/>
        <pt x="255" y="505" on="1"/>
      </contour>
      <contour>
        <pt x="345" y="55" on="1"/>
        <pt x="373" y="57" on="0"/>
        <pt x="419" y="79" on="0"/>
        <pt x="452" y="125" on="0"/>
        <pt x="470" y="197" on="0"/>
        <pt x="470" y="250" on="1"/>
        <pt x="470" y="302" on="0"/>
        <pt x="452" y="375" on="0"/>
        <pt x="419" y="421" on="0"/>
        <pt x="373" y="443" on="0"/>
        <pt x="345" y="445" on="1"/>
      </contour>
      <contour>
        <pt x="255" y="445" on="1"/>
        <pt x="227" y="443" on="0"/>
        <pt x="181" y="421" on="0"/>
        <pt x="148" y="375" on="0"/>
        <pt x="130" y="302" on="0"/>
        <pt x="130" y="250" on="1"/>
        <pt x="130" y="197" on="0"/>
        <pt x="148" y="125" on="0"/>
        <pt x="181" y="79" on="0"/>
        <pt x="227" y="57" on="0"/>
        <pt x="255" y="55" on="1"/>
      </contour>
    </TTGlyph>
    <TTGlyph name="afii10087" xMin="15" yMin="0" xMax="385" yMax="500">
      <contour>
        <pt x="291" y="500" on="1"/>
        <pt x="381" y="500" on="1"/>
        <pt x="260" y="255" on="1"/>
        <pt x="385" y="0" on="1"/>
        <pt x="295" y="0" on="1"/>
        <pt x="200" y="195" on="1"/>
        <pt x="105" y="0" on="1"/>
        <pt x="15" y="0" on="1"/>
        <pt x="140" y="255" on="1"/>
        <pt x="19" y="500" on="1"/>
        <pt x="109" y="500" on="1"/>
        <pt x="200" y="315" on="1"/>
      </contour>
    </TTGlyph>
    <TTGlyph name="afii10088" xMin="65" yMin="-145" xMax="465" yMax="500">
      <contour>
        <pt x="465" y="65" on="1"/>
        <pt x="465" y="-145" on="1"/>
        <pt x="410" y="-145" on="1"/>
        <pt x="399" y="-115" on="0"/>
        <pt x="384" y="-38" on="0"/>
        <pt x="380" y="0" on="1"/>
        <pt x="65" y="0" on="1"/>
        <pt x="65" y="500" on="1"/>
        <pt x="155" y="500" on="1"/>
        <pt x="155" y="65" on="1"/>
        <pt x="315" y="65" on="1"/>
        <pt x="315" y="500" on="1"/>
        <pt x="405" y="500" on="1"/>
        <pt x="405" y="65" on="1"/>
      </contour>
    </TTGlyph>
    <TTGlyph name="afii10089" xMin="45" yMin="0" xMax="390" yMax="500">
      <contour>
        <pt x="45" y="500" on="1"/>
        <pt x="135" y="500" on="1"/>
        <pt x="135" y="325" on="1"/>
        <pt x="135" y="276" on="0"/>
        <pt x="190" y="240" on="0"/>
        <pt x="235" y="240" on="1"/>
        <pt x="300" y="240" on="1"/>
        <pt x="300" y="500" on="1"/>
        <pt x="390" y="500" on="1"/>
        <pt x="390" y="0" on="1"/>
        <pt x="300" y="0" on="1"/>
        <pt x="300" y="190" on="1"/>
        <pt x="281" y="186" on="0"/>
        <pt x="219" y="180" on="0"/>
        <pt x="185" y="180" on="1"/>
        <pt x="155" y="180" on="0"/>
        <pt x="104" y="193" on="0"/>
        <pt x="66" y="226" on="0"/>
        <pt x="45" y="282" on="0"/>
        <pt x="45" y="325" on="1"/>
      </contour>
    </TTGlyph>
    <TTGlyph name="afii10090" xMin="65" yMin="0" xMax="605" yMax="500">
      <contour>
        <pt x="65" y="0" on="1"/>
        <pt x="65" y="500" on="1"/>
        <pt x="155" y="500" on="1"/>
        <pt x="155" y="65" on="1"/>
        <pt x="290" y="65" on="1"/>
        <pt x="290" y="500" on="1"/>
        <pt x="380" y="500" on="1"/>
        <pt x="380" y="65" on="1"/>
        <pt x="515" y="65" on="1"/>
        <pt x="515" y="500" on="1"/>
        <pt x="605" y="500" on="1"/>
        <pt x="605" y="0" on="1"/>
      </contour>
    </TTGlyph>
    <TTGlyph name="afii10091" xMin="65" yMin="-145" xMax="665" yMax="500">
      <contour>
        <pt x="65" y="0" on="1"/>
        <pt x="65" y="500" on="1"/>
        <pt x="155" y="500" on="1"/>
        <pt x="155" y="65" on="1"/>
        <pt x="290" y="65" on="1"/>
        <pt x="290" y="500" on="1"/>
        <pt x="380" y="500" on="1"/>
        <pt x="380" y="65" on="1"/>
        <pt x="515" y="65" on="1"/>
        <pt x="515" y="500" on="1"/>
        <pt x="605" y="500" on="1"/>
        <pt x="605" y="65" on="1"/>
        <pt x="665" y="65" on="1"/>
        <pt x="665" y="-145" on="1"/>
        <pt x="610" y="-145" on="1"/>
        <pt x="599" y="-115" on="0"/>
        <pt x="584" y="-38" on="0"/>
        <pt x="580" y="0" on="1"/>
      </contour>
    </TTGlyph>
    <TTGlyph name="afii10092" xMin="20" yMin="-10" xMax="465" yMax="500">
      <contour>
        <pt x="210" y="305" on="1"/>
        <pt x="233" y="309" on="0"/>
        <pt x="280" y="315" on="0"/>
        <pt x="310" y="315" on="1"/>
        <pt x="346" y="315" on="0"/>
        <pt x="403" y="301" on="0"/>
        <pt x="443" y="265" on="0"/>
        <pt x="465" y="201" on="0"/>
        <pt x="465" y="150" on="1"/>
        <pt x="465" y="101" on="0"/>
        <pt x="442" y="39" on="0"/>
        <pt x="396" y="3" on="0"/>
        <pt x="327" y="-10" on="0"/>
        <pt x="280" y="-10" on="1"/>
        <pt x="235" y="-10" on="0"/>
        <pt x="158" y="-1" on="0"/>
        <pt x="120" y="10" on="1"/>
        <pt x="120" y="435" on="1"/>
        <pt x="20" y="435" on="1"/>
        <pt x="20" y="500" on="1"/>
        <pt x="210" y="500" on="1"/>
      </contour>
      <contour>
        <pt x="280" y="50" on="1"/>
        <pt x="325" y="50" on="0"/>
        <pt x="375" y="90" on="0"/>
        <pt x="375" y="150" on="1"/>
        <pt x="375" y="210" on="0"/>
        <pt x="325" y="250" on="0"/>
        <pt x="280" y="250" on="1"/>
        <pt x="210" y="250" on="1"/>
        <pt x="210" y="50" on="1"/>
      </contour>
    </TTGlyph>
    <TTGlyph name="afii10093" xMin="65" yMin="-10" xMax="565" yMax="500">
      <contour>
        <pt x="565" y="500" on="1"/>
        <pt x="565" y="0" on="1"/>
        <pt x="475" y="0" on="1"/>
        <pt x="475" y="500" on="1"/>
      </contour>
      <contour>
        <pt x="225" y="50" on="1"/>
        <pt x="267" y="50" on="0"/>
        <pt x="315" y="90" on="0"/>
        <pt x="315" y="150" on="1"/>
        <pt x="315" y="210" on="0"/>
        <pt x="267" y="250" on="0"/>
        <pt x="225" y="250" on="1"/>
        <pt x="155" y="250" on="1"/>
        <pt x="155" y="50" on="1"/>
      </contour>
      <contour>
        <pt x="255" y="315" on="1"/>
        <pt x="289" y="315" on="0"/>
        <pt x="344" y="301" on="0"/>
        <pt x="383" y="265" on="0"/>
        <pt x="405" y="201" on="0"/>
        <pt x="405" y="150" on="1"/>
        <pt x="405" y="101" on="0"/>
        <pt x="382" y="39" on="0"/>
        <pt x="337" y="3" on="0"/>
        <pt x="270" y="-10" on="0"/>
        <pt x="225" y="-10" on="1"/>
        <pt x="180" y="-10" on="0"/>
        <pt x="103" y="-1" on="0"/>
        <pt x="65" y="10" on="1"/>
        <pt x="65" y="500" on="1"/>
        <pt x="155" y="500" on="1"/>
        <pt x="155" y="305" on="1"/>
        <pt x="178" y="309" on="0"/>
        <pt x="225" y="315" on="0"/>
      </contour>
    </TTGlyph>
    <TTGlyph name="afii10094" xMin="65" yMin="-10" xMax="410" yMax="500">
      <contour>
        <pt x="155" y="305" on="1"/>
        <pt x="178" y="309" on="0"/>
        <pt x="225" y="315" on="0"/>
        <pt x="255" y="315" on="1"/>
        <pt x="291" y="315" on="0"/>
        <pt x="348" y="301" on="0"/>
        <pt x="388" y="265" on="0"/>
        <pt x="410" y="201" on="0"/>
        <pt x="410" y="150" on="1"/>
        <pt x="410" y="101" on="0"/>
        <pt x="387" y="39" on="0"/>
        <pt x="341" y="3" on="0"/>
        <pt x="272" y="-10" on="0"/>
        <pt x="225" y="-10" on="1"/>
        <pt x="180" y="-10" on="0"/>
        <pt x="103" y="-1" on="0"/>
        <pt x="65" y="10" on="1"/>
        <pt x="65" y="500" on="1"/>
        <pt x="155" y="500" on="1"/>
      </contour>
      <contour>
        <pt x="225" y="50" on="1"/>
        <pt x="270" y="50" on="0"/>
        <pt x="320" y="90" on="0"/>
        <pt x="320" y="150" on="1"/>
        <pt x="320" y="210" on="0"/>
        <pt x="270" y="250" on="0"/>
        <pt x="225" y="250" on="1"/>
        <pt x="155" y="250" on="1"/>
        <pt x="155" y="50" on="1"/>
      </contour>
    </TTGlyph>
    <TTGlyph name="afii10095" xMin="15" yMin="-10" xMax="330" yMax="510">
      <contour>
        <pt x="85" y="225" on="1"/>
        <pt x="85" y="290" on="1"/>
        <pt x="240" y="290" on="1"/>
        <pt x="236" y="377" on="0"/>
        <pt x="182" y="450" on="0"/>
        <pt x="125" y="450" on="1"/>
        <pt x="25" y="450" on="1"/>
        <pt x="25" y="490" on="1"/>
        <pt x="48" y="498" on="0"/>
        <pt x="115" y="510" on="0"/>
        <pt x="145" y="510" on="1"/>
        <pt x="192" y="510" on="0"/>
        <pt x="261" y="485" on="0"/>
        <pt x="307" y="425" on="0"/>
        <pt x="330" y="325" on="0"/>
        <pt x="330" y="250" on="1"/>
        <pt x="330" y="175" on="0"/>
        <pt x="307" y="75" on="0"/>
        <pt x="259" y="15" on="0"/>
        <pt x="186" y="-10" on="0"/>
        <pt x="135" y="-10" on="1"/>
        <pt x="105" y="-10" on="0"/>
        <pt x="38" y="2" on="0"/>
        <pt x="15" y="10" on="1"/>
        <pt x="15" y="50" on="1"/>
        <pt x="115" y="50" on="1"/>
        <pt x="147" y="50" on="0"/>
        <pt x="192" y="67" on="0"/>
        <pt x="222" y="107" on="0"/>
        <pt x="238" y="174" on="0"/>
        <pt x="240" y="225" on="1"/>
      </contour>
    </TTGlyph>
</ttFont>
